<svg xmlns="http://www.w3.org/2000/svg" viewBox="0 0 733.96 407.22"><defs><style>.cls-1{fill:#fff;}</style></defs><title>Recurso 30</title><g id="Capa_2" data-name="Capa 2"><g id="Capa_1-2" data-name="Capa 1"><path class="cls-1" d="M695.2,407V273.83a.11.11,0,0,0-.09-.1l-54.39-5.64h0l-28.42,1.75V170.6a.1.1,0,0,0-.08-.1l-52.73-9h0l-9,1V155a4,4,0,0,0,2.46-3.87,3.15,3.15,0,0,0-2.28-3.26h-.1l-.45-.07-.2,0h-.2a1.66,1.66,0,0,0-.32,0,3.89,3.89,0,0,0-2.92,4c0,1.76,1,3.2,2.34,3.33l.46.07h.43v7.41l-9.17,1v-5.21a2.88,2.88,0,0,0,1.48-2.61,2.25,2.25,0,0,0-1.47-2.27v-2a5.09,5.09,0,0,0,3.3-5c0-2.1-1.24-3.88-2.88-4.16h-.11v0l-.57-.08-.26,0h-.25a2.83,2.83,0,0,0-.41,0c-2.07.32-3.69,2.54-3.69,5.07,0,2.25,1.3,4.1,2.95,4.26l.59.08.11,0h.52v1.71h-.3a2.75,2.75,0,0,0-2,2.8,2.19,2.19,0,0,0,1.64,2.35l.32,0h.38v5.06l-13.38,1.46V95.61a.1.1,0,0,0-.07-.09l-22.87-4.8h0l-3.26.46-.45-.12v-2.4a.1.1,0,0,0-.07-.1l-3.19-.68V79.66a.09.09,0,0,0-.08-.09l-17-3.72V70.52a.1.1,0,0,0-.08-.1L466.8,67.64h0l-12.49,2a.09.09,0,0,0-.08.09v.65l-1.12-.25V28.18a.1.1,0,0,0-.09-.1l-1.6-.08-.08,0a.11.11,0,0,0,0,.08V69.73l-14.62-3.19h0l-19.5,3.17L397,65.42V43.92a.1.1,0,0,0-.08-.1L371.36,38V18.25a.21.21,0,0,0,0-.07.11.11,0,0,0-.08,0l-1.17.07a.09.09,0,0,0-.09.09V37.68l-.81-.18h0l-3.69.67V.1a.09.09,0,0,0,0-.07.09.09,0,0,0-.07,0l-1.78.07a.09.09,0,0,0-.09.1V38.53l-24.3,4.41v-1.7a.09.09,0,0,0-.08-.09l-11.86-2.63h0l-15.76,2.93a.1.1,0,0,0-.08.1V48l-17.73,3.21a.09.09,0,0,0-.08.09v99.34L253.5,144.6h0l-4.13.57V138a4.46,4.46,0,0,0,2.16-4.1c0-1.77-.91-3.28-2.13-3.52h-.09l-.43-.06a.58.58,0,0,0-.19,0h-.18a1.55,1.55,0,0,0-.31,0c-1.53.27-2.73,2.15-2.73,4.29,0,1.89,1,3.45,2.19,3.59l.43.08h.5v7.07l-9,1.24v-5a3.23,3.23,0,0,0,1.29-2.75,2.47,2.47,0,0,0-1.29-2.41v-1.91c1.79-.74,3-2.87,3-5.38,0-2.27-1.17-4.21-2.72-4.51h-.11l0,.09v-.1l-.55-.08-.24,0h-.25a1.69,1.69,0,0,0-.38,0c-2,.34-3.5,2.76-3.5,5.5,0,2.44,1.23,4.44,2.8,4.62l.55.09.11,0h.52v1.54h-.05l-.22,0c-1.07.19-1.91,1.51-1.91,3,0,1.33.68,2.42,1.54,2.52l.29.05h.36v4.81L221,149.09a.11.11,0,0,0-.09.1V172.7l-5.59-.75h0l-4.8.6a.11.11,0,0,0-.08.1v.41l-5.75.71v-7.11a4.35,4.35,0,0,0,2.07-4c0-1.72-.88-3.18-2.06-3.41h-.08l0,.08h0v-.08l-.41-.07-.18,0h-.19l-.29,0c-1.49.26-2.65,2.09-2.65,4.16,0,1.84.94,3.36,2.12,3.49l.42.08h.31l.21,0v7l-19.59,2.43v-5.83c.39-.14.59-.3.6-.49h0V148.41c0-.4-1-.76-2.89-1.06a44.43,44.43,0,0,0-6.5-.5c-4.23,0-7.79.41-8.48,1.09a.35.35,0,0,0-.13.27v21.55h0c0,.26.38.48,1.16.68v7.89l-15.65,2-1.75-.22h0l-4.46.56a.1.1,0,0,0-.08.1v81.79l-34.75-2.68h0L44,265.47a.1.1,0,0,0-.09.1V407H0v.19H734V407Zm-584,0H44.1V265.66l67.12-5.6Zm34.86,0H111.42v-147l34.66,2.67Zm4.45,0h-4.26V180.82l4.26-.53ZM203.45,166.6a1.32,1.32,0,0,1-.34,0H203l-.18,0h0c-1-.24-1.79-1.61-1.79-3.27,0-2,1.12-3.73,2.49-4l.26,0h.16l.18,0c1,.24,1.86,1.59,1.86,3.21C206,164.57,204.92,166.22,203.45,166.6Zm.24.13a4.2,4.2,0,0,0,2.46-4.14,3.85,3.85,0,0,0-1.28-3.05,3.31,3.31,0,0,1,1.63,3.14c0,2-1,3.63-2.5,4A1.65,1.65,0,0,1,203.69,166.73Zm.74,0v7l-.36.05v-7A2.53,2.53,0,0,0,204.43,166.75Zm-37.36-18.54s0-.08.08-.13c.55-.55,3.82-1.09,8.34-1a46.93,46.93,0,0,1,6.47.5c2.15.34,2.73.71,2.73.87v21.26c-.93-.68-5-1-8.75-1.07-4.48,0-8.05.3-8.87.87Zm0,21.56a.16.16,0,0,1,.06-.09c.56-.56,4.35-.94,8.81-.89,5.69.07,8.73.73,8.75,1.18,0,0-.06.15-.41.28v-.31a.1.1,0,0,0-.1-.1h-.81a.1.1,0,0,0-.08,0l-.44.69a35.86,35.86,0,0,1-4.53.34l-1.07-1.58V169a.11.11,0,0,0-.1-.1h-.56a.1.1,0,0,0-.09.1v1.92h-.68a50.08,50.08,0,0,1-6.46-.43L169,170a.09.09,0,0,0-.08,0h-.8a.09.09,0,0,0-.1.09v.16C167.17,170,167.08,169.82,167.07,169.77Zm17,.27v6.27l-.39-.05V170Zm-3.43,5.48.5.74-1,.12Zm-.79.89-.44.05.9-1.41.21.3Zm-2.62-6.17v-.55l4.42,6.51-.29,0Zm.24.7h-.24v-.35Zm1,.18a39.78,39.78,0,0,0,4.27-.32l-2.15,3.42Zm2.24,3.28,2.74-4.36h.08v.56l-2.62,4.1Zm-3.64-5.28v8.09l-.36,0v-8.14Zm-.55,2v6.14l-.69.09v-6.23h.69Zm-.88,0v6.26l-.38.05v-6.31ZM172,175.19l.16.23L170,178.1l-.43.06Zm-2.74,3-.42.05v-7.33l3,4.12Zm3-2.61,1.5,2-3.53.45Zm-3.44-5v-.39h.07l5.39,7.37-.29,0Zm3.89,4.51,2.33-2.85v5.22l-.54.07Zm-.12-.17-.19-.26,2.64-3.17v.44Zm-.3-.42-2.77-3.77a47.08,47.08,0,0,0,5.52.39v.06Zm-3.75-4.31h.09v.13Zm.09.46v7.62l-.39,0v-8.13h0ZM152.29,379.78V407h-1.56V180.29l1.56.2v12a.08.08,0,0,0,0,.07l.05,0h0l1,.18v17.39l-1,.11a.11.11,0,0,0-.09.1v16a.08.08,0,0,0,0,.07.07.07,0,0,0,.06,0h.07l.88.18V244l-.93.08a.11.11,0,0,0-.09.1v16.18a.09.09,0,0,0,0,.07s0,0,0,0h0l.93.12v17.47l-.95.07a.09.09,0,0,0-.09.09v15.84a.08.08,0,0,0,0,.07s0,0,.05,0h0l1,.18v17.44l-.93.05a.09.09,0,0,0-.1.1v16a.21.21,0,0,0,0,.07l0,0h0l1,.19v17.5l-1,0a.09.09,0,0,0-.09.1V361.9a.11.11,0,0,0,0,.07l.07,0h0l1,0v17.69l-1,0A.09.09,0,0,0,152.29,379.78Zm1-119.39,11.22-.91-11.11.92Zm-.14,33.71,24.42-1.53-24.15,1.58ZM177.64,407H152.48V379.87l25.16-.39Zm0-28.31-2.26,0v-9.9l2.26-.05Zm0-10.12-23.7.54v-.44l23.7-.57Zm-2.45.25v9.91h-.26v-9.9Zm-.45,0v9.9h-.15v-9.9Zm-.34,0v9.9l-4.25.07V369ZM170,369v9.87h-.24V369Zm-.43,0v9.87h-.17V369Zm-.36,0v9.87l-4.26.07v-9.84Zm-4.45.1v9.84h-.21V369.1Zm-.41,0v9.84h-.17v-9.83Zm-.37,0v9.83l-4.19.07v-9.8Zm-4.39.1V379h-.23v-9.8Zm-.42,0V379h-.18v-9.8Zm-.37,0V379l-4.34.07v-9.77Zm-4.54.1v9.78h-.27v-9.77Zm-.27-.83v-5.85h.27v5.86Zm.47,0v-5.85l4.35-.1v5.85Zm4.55-.11v-5.85h.16v5.85Zm.35,0v-5.85h.21v5.85Zm.4,0v-5.86l4.21-.1v5.86Zm4.41-.11v-5.85h.17v5.86Zm.37,0V362.4h.22v5.86Zm.41,0v-5.85l4.26-.11v5.86Zm4.45-.11v-5.85h.15v5.85Zm.35,0v-5.86H170v5.85Zm.45,0v-5.86l4.25-.1V368Zm4.45-.11v-5.86h.14V368Zm.33,0v-5.85h.26V368Zm2.71-.06-2.26.05v-5.85l2.26-.06Zm0-6.05-23.8.57a.09.09,0,0,0-.09.1v16.65a.09.09,0,0,0,0,.07.07.07,0,0,0,.06,0h0l23.79-.4v.37l-24.08.38V362l24.08-.63Zm0-.76-25.15.67V345.92l25.15-.88Zm0-16.72-2.25.07v-9.83l2.25-.09Zm0-10-23.69.88v-.4l23.69-1Zm-2.45.28v9.84H175v-9.84Zm-.44,0v9.83h-.15v-9.84Zm-.34,0v9.84l-4.26.14v-9.82Zm-4.46.17v9.82h-.24v-9.82Zm-.43,0v9.83h-.15v-9.82Zm-.35,0v9.82l-4.24.14V335Zm-4.44.16v9.81h-.23v-9.81Zm-.42,0v9.81h-.16v-9.81Zm-.35,0v9.81l-4.22.14v-9.79Zm-4.42.17V345h-.21v-9.8Zm-.41,0V345H159v-9.79Zm-.38,0v9.79l-4.37.15v-9.78Zm-4.56.17v9.77H154v-9.78Zm-.24-.78v-5.92h.24v5.92Zm.43,0v-5.92l4.36-.2v5.93Zm4.56-.19v-5.94h.19v5.93Zm.39,0V328.5h.21v5.93Zm.4,0v-5.93l4.23-.2v6Zm4.42-.19v-6h.14v6Zm.34,0v-5.95h.24v5.95Zm.44,0v-5.95l4.24-.2v6Zm4.44-.19v-6h.14v6Zm.33,0v-6H170v6Zm.45,0v-6l4.27-.2v6Zm4.47-.19v-6h.13v6Zm.33,0v-6h.2v6Zm2.69-.11-2.29.09v-6l2.29-.11Zm0-6.19-23.79,1.09a.11.11,0,0,0-.09.1v16.67a.1.1,0,0,0,.1.1h0l23.78-.82v.25l-24.08.84V328.2l24.08-1.11Zm0-.56L153.46,328l-.21,0,24.39-1.09Zm0-.22L152.5,327.8V312l25.14-1.33Zm0-16.62-2.25.13v-9.82l2.25-.13Zm0-10-23.7,1.35v-.49l23.7-1.37Zm-2.44.33v9.82H175V300.4Zm-.45,0v9.81h-.16v-9.81Zm-.35,0v9.81l-4.25.23v-9.8Zm-4.45.25v9.8l-.25,0v-9.81Zm-.44,0v9.8h-.18v-9.8Zm-.37,0v9.8l-4.23.23V301Zm-4.42.25v9.79h-.22V301Zm-.41,0v9.79h-.16V301Zm-.35,0v9.79l-4.2.23v-9.78Zm-4.4.25v9.78h-.23v-9.78Zm-.43,0v9.77H159v-9.77Zm-.37,0v9.77l-4.36.24v-9.77Zm-4.55.26v9.76l-.27,0v-9.77Zm-.27-.86v-5.81l.27,0v5.81Zm.46,0v-5.81l4.35-.28v5.84Zm4.54-.26v-5.84l.19,0v5.84Zm.39,0v-5.84h.2v5.84Zm.39,0v-5.84l4.22-.28v5.88Zm4.42-.26v-5.87h.18v5.87Zm.37,0v-5.88h.21v5.88Zm.4,0V294.2l4.25-.28v5.91Zm4.44-.26v-5.91h.16v5.91Zm.35,0v-5.91l.25,0v5.92Zm.44,0v-5.92l4.26-.28v5.95Zm4.45-.26v-5.95h.17v5.95Zm.37,0v-5.95l.2,0v6Zm2.68-.16-2.28.13v-6l2.28-.15Zm0-6.16-23.8,1.54a.11.11,0,0,0-.09.1v16.64a.09.09,0,0,0,0,.07.09.09,0,0,0,.06,0h0l23.79-1.3v.22l-24.11,1.28V294.34l24.11-1.57Zm0-.8L152.47,294V278.31l25.17-1.81Zm0-16.59-2.27.16V266.1l2.27-.17Zm0-10.05L154,267.5V267l23.69-1.7Zm-2.46.38V276l-.2,0v-9.85Zm-.4,0V276l-.17,0v-9.85Zm-.37,0V276l-4.27.31v-9.84Zm-4.46.33v9.84l-.25,0v-9.84Zm-.45,0v9.84h-.15v-9.84Zm-.35,0v9.84l-4.24.31v-9.83Zm-4.44.33v9.83l-.21,0v-9.83Zm-.4,0v9.83l-.16,0v-9.84Zm-.36,0v9.83l-4.19.3v-9.82Zm-4.39.33v9.82l-.25,0v-9.83Zm-.44,0v9.82l-.19,0v-9.83Zm-.38,0v9.82l-4.34.31v-9.81Zm-4.54.33v9.82H154v-9.81Zm-.25-.83V261l.25,0v5.82Zm.45,0V261l4.36-.35v5.86Zm4.56-.33v-5.87h.16v5.87Zm.35,0v-5.87l.25,0v5.87Zm.45,0v-5.87l4.18-.34v5.91Zm4.37-.31V260.2l.19,0v5.91Zm.38,0v-5.92h.2v5.91Zm.4,0v-5.92l4.24-.34v6Zm4.44-.32v-6h.15v6Zm.35,0v-6l.25,0v6Zm.44,0v-6l4.25-.34v6Zm4.45-.32v-6h.17v6Zm.37,0v-6l.22,0v6Zm2.68-.19-2.27.16v-6l2.27-.19Zm0-6.23-23.79,1.92a.09.09,0,0,0-.09.1v16.68a.1.1,0,0,0,.1.1h0L177.64,276v.32L153.52,278V260.59l24.12-2Zm0-.69-25.14,2v-16L177.64,242Zm0-16.76-2.24.2v-9.87l2.24-.21Zm0-10.07L154,233.62v-.43l11.84-1.09,8.21-.76,2.7-.25.76-.07.16,0Zm-2.43.42v9.87l-.26,0v-9.86Zm-.45,0v9.87l-.18,0v-9.87Zm-.37,0v9.86l-4.25.39v-9.85Zm-4.45.42v9.84l-.23,0v-9.85Zm-.42,0v9.84h-.13v-9.84Zm-.33,0v9.84l-4.26.38v-9.82Zm-4.45.42v9.82l-.25,0v-9.82Zm-.44,0v9.82l-.19,0v-9.82Zm-.39,0v9.83l-4.16.37v-9.8Zm-4.36.42v9.8l-.25,0v-9.8Zm-.45,0v9.8H159v-9.8Zm-.33,0v9.8l-4.8.43v-9.78ZM154,233v-5.9l.24,0V233Zm.43,0v-5.91l4.37-.42v5.93Zm4.56-.42v-5.93l.17,0v5.93Zm.36,0v-5.93l.23,0v5.93Zm.43,0v-5.94l4.16-.41v6Zm4.36-.41v-6l.19,0v6Zm.38,0v-6l.23,0v6Zm.43,0v-6l4.24-.41v6Zm4.43-.41v-6l.17,0v6Zm.36,0v-6l.23,0v6Zm.43,0v-6l4.28-.42v6Zm4.48-.41v-6h.14v6Zm.33,0v-6l.2,0v6Zm2.69-.26-2.29.22v-6l2.29-.23Zm0-6.22-23.78,2.33a.11.11,0,0,0-.09.1V243.7a.1.1,0,0,0,.1.1h0l23.76-2.15v.15L153.53,244V226.57l24.11-2.4Zm0-.6-24.21,2.41-.31-.07,24.52-2.45Zm0-.3-25.16,2.51V210.42l25.16-2.74Zm0-16.53-2.28.25v-9.86l2.28-.27Zm0-10.07-23.7,2.71v-.46l23.7-2.58Zm-2.48.48v9.86l-.21,0v-9.86Zm-.4,0v9.87l-.19,0v-9.86Zm-.38.05v9.86l-4.27.47v-9.84Zm-4.46.51V208l-.21,0v-9.84Zm-.4,0V208l-.15,0v-9.84Zm-.35,0v9.84l-4.27.47v-9.82Zm-4.46.51v9.82l-.22,0v-9.81Zm-.41.05v9.82l-.2,0v-9.81Zm-.4,0v9.81l-4.14.45v-9.79Zm-4.34.5v9.78l-.26,0v-9.78Zm-.45.05v9.79h-.17v-9.78Zm-.36,0v9.79l-4.36.47v-9.76Zm-4.56.52v9.76l-.25,0V200Zm-.25-.82v-5.88l.25,0v5.88Zm.45,0v-5.88l4.36-.53v5.93Zm4.55-.5v-5.93l.17,0v5.94Zm.36,0v-5.94l.26,0v5.95Zm.46-.05v-5.94l4.18-.51v6Zm4.37-.47v-6l.17,0v6Zm.36,0v-6l.24,0v6Zm.43-.05v-6l4.25-.51v6.06Zm4.45-.48v-6.07h.13v6.06Zm.33,0v-6.07l.21,0v6.07Zm.4,0V191.3l4.31-.52v6.13Zm4.51-.49v-6.13l.15,0v6.13Zm.34,0v-6.13l.24,0v6.13Zm2.69-.29-2.25.24v-6.14l2.25-.27Zm0-6.37-23.81,2.89a.1.1,0,0,0-.08.1v16.68a.08.08,0,0,0,0,.07.09.09,0,0,0,.06,0h0l23.79-2.61v.13l-24.07,2.63V192.74l24.07-2.89Zm0-.54-24.17,2.91-.42-.08,24.59-2.9Zm0-.27-25.15,3V180.49l25.15-3.16Zm0-12.63v.39l-.39.05v-6.05h.37l2.59,3.74-1,1.62-1.45.17A.09.09,0,0,0,177.64,176.75ZM182.3,407h-4.46V176.84l4.46-.52Zm.08-230.91-.49,0-.88-1.29,2.5-3.92v5.28l-1.1-.12Zm1.67,203.17V407h-1.56V176.32l1.54.18v12.17a.09.09,0,0,0,0,.07l.05,0h0l1,.19v17.71l-1,.1a.1.1,0,0,0-.08.1v16.21a.09.09,0,0,0,0,.07l0,0h0l1,.21V241.1l-1,.08a.11.11,0,0,0-.09.1v16.48a.11.11,0,0,0,0,.08l.06,0h0l1,.11v17.81l-1,.07a.11.11,0,0,0-.09.1V292a.11.11,0,0,0,0,.08l.06,0h0l1,.09v17.84l-.94.05a.11.11,0,0,0-.09.1v16.27a.09.09,0,0,0,0,.07l0,0h0l1,.15v17.85l-1,0a.09.09,0,0,0-.09.09v16.39a.08.08,0,0,0,0,.07.09.09,0,0,0,.07,0h0l1,0v18h-.94A.1.1,0,0,0,184.05,379.29ZM210.37,407H184.24V379.38l26.13-.44Zm0-28.86-2.43,0V368.13l2.43-.06Zm0-10.29-24.57.58V368l24.57-.54Zm-2.63.26v10.07h-.21V368.14Zm-.41,0v10.06h-.14V368.15Zm-.34,0v10.07l-4.48.07v-10Zm-4.67.11v10h-.21v-10Zm-.4,0v10h-.2v-10Zm-.39,0v10l-4.38.07v-10Zm-4.58.11v10h-.24v-10Zm-.44,0v10h-.16v-10Zm-.36,0v10l-4.37.07v-9.95Zm-4.57.11v9.94h-.23v-10Zm-.42,0v9.94H191v-9.94Zm-.4,0v9.94l-4.52.07v-9.9Zm-4.71.11v9.9h-.25v-9.9Zm-.25-.87v-6h.25v6Zm.44,0v-6l4.54-.11v6Zm4.73-.11v-6h.19v6Zm.38,0v-6h.23v6Zm.43,0v-6l4.37-.1v6Zm4.57-.11v-6h.16v6Zm.36,0v-6H197v6Zm.44,0v-6l4.38-.1v6Zm4.57-.11v-6h.2v6Zm.39,0v-6h.21v6Zm.4,0v-6l4.48-.1v6Zm4.68-.1v-6h.15v6Zm.34,0v-6h.21v6Zm2.84-.06-2.43.05v-6l2.43,0Zm0-6.22-24.67.6a.09.09,0,0,0-.1.09v16.94a.1.1,0,0,0,.1.1h0l24.67-.39v.38l-25.1.43v-18l25.1-.66Zm0-.69-26.15.68V344.82l26.15-.93Zm0-17.07-2.4.08V333.27l2.4-.1Zm0-10.29-24.6,1v-.45l24.6-1Zm-2.6.3v10.08h-.26V333.28Zm-.45,0v10.07h-.17V333.3Zm-.37,0v10.07l-4.41.15v-10Zm-4.61.18v10h-.26v-10Zm-.46,0v10h-.17V333.51Zm-.36,0v10l-4.38.16v-10Zm-4.57.18v10h-.27v-10Zm-.46,0v10h-.16v-10Zm-.35,0v10l-4.38.15v-10Zm-4.57.18v10h-.25v-10Zm-.44,0v10h-.19v-10Zm-.39,0v10l-4.52.15v-10Zm-4.71.19v10h-.26v-10Zm-.26-.83v-5.95H186v5.95Zm.45,0v-6l4.54-.21v6Zm4.74-.19v-6h.17v6Zm.36,0v-6h.22v6Zm.42,0v-6l4.4-.2v6Zm4.59-.19v-6h.18v6Zm.37,0v-6H197v6Zm.44,0v-6l4.4-.2v6Zm4.59-.19v-6h.19v6Zm.39,0v-6h.21v6.05Zm.4,0v-6.05l4.43-.2v6.07Zm4.63-.19v-6.07h.16v6.07Zm.36,0v-6.08h.26v6.08Zm2.86-.12-2.4.1v-6.08l2.4-.11Zm0-6.29-24.7,1.15a.09.09,0,0,0-.09.09v16.95a.11.11,0,0,0,0,.07.07.07,0,0,0,.06,0h0l24.69-.86v.25l-25.09.89V326.75l25.09-1.1Zm0-.56-25.18,1.1-.08,0,25.26-1.11Zm0-.22-26.12,1.15V310.31l26.12-1.38Zm0-16.86-2.43.12V298.41l2.43-.14Zm0-10.3-24.56,1.42V299l24.56-1.41Zm-2.63.34v10.09h-.2V298.44Zm-.4,0v10.08h-.18V298.46Zm-.37,0v10.08l-4.44.23v-10Zm-4.63.27v10.05h-.25V298.75Zm-.44,0v10.05h-.18V298.77Zm-.37,0v10.05l-4.41.22V299Zm-4.61.27v10h-.22v-10Zm-.41,0v10h-.14v-10Zm-.34,0v10l-4.41.22v-10Zm-4.61.27v10h-.21v-10Zm-.41,0v10H191v-10Zm-.39,0v10l-4.52.23v-9.93Zm-4.72.27v9.93h-.23v-9.93Zm-.23-.9v-5.92l.23,0v5.93Zm.43,0v-5.93l4.53-.28v5.95Zm4.73-.27v-6h.18v6Zm.38,0v-5.95h.21v5.95Zm.41,0v-5.95l4.39-.28v6Zm4.59-.26v-6h.17v6Zm.37,0v-6h.2v6Zm.4,0v-6l4.41-.28v6Zm4.6-.26v-6h.18v6Zm.37,0v-6h.25v6Zm.45,0v-6l4.43-.28v6Zm4.62-.27v-6h.17v6Zm.37,0v-6h.21v6Zm2.84-.16-2.43.14v-6.05l2.43-.15Zm0-6.26-24.66,1.56a.1.1,0,0,0-.1.1v17a.11.11,0,0,0,0,.07l.07,0h0l24.65-1.25v.16l-25.09,1.33V292.24l25.09-1.57Zm0-.81-26.14,1.64V276l26.14-1.88Zm-25.24-32.52,6.55-.54-6.49.55Zm25.24,15.67-2.4.17V263.56l2.4-.18Zm0-10.27L185.8,265v-.46l24.57-1.77Zm-2.6.39v10.06l-.26,0V263.59Zm-.46,0v10.05h-.17V263.62Zm-.37,0v10.05l-4.42.31V264Zm-4.61.35v10l-.22,0V264Zm-.42,0v10h-.17V264Zm-.37,0v10l-4.4.31v-10Zm-4.59.35v10l-.25,0v-10Zm-.45,0v10h-.17v-10Zm-.37,0v10l-4.37.31v-10Zm-4.57.35v10l-.23,0v-10Zm-.43,0v10H191v-10Zm-.37,0v10l-4.54.31V265.2Zm-4.73.36v9.94h-.23v-9.94Zm-.23-.84v-6l.23,0v6Zm.42,0v-6l4.57-.35v6ZM191,264V258h.18V264Zm.37,0v-6l.2,0V264Zm.39,0v-6l4.39-.34v6.07Zm4.58-.32v-6.08h.18v6.07Zm.38,0v-6.08l.24,0v6.08Zm.43,0v-6.08l4.41-.34v6.1Zm4.6-.33v-6.11h.19v6.1Zm.39,0V257.1h.21v6.1Zm.4,0v-6.11l4.43-.34v6.13Zm4.62-.33v-6.14h.17v6.14Zm.37,0v-6.14h.24v6.13Zm2.86-.2-2.42.17v-6.14l2.42-.19Zm0-6.35-24.68,1.91a.1.1,0,0,0-.09.1v17a.09.09,0,0,0,0,.07.11.11,0,0,0,.07,0h0l24.66-1.74V274l-25.08,1.8V258l25.08-2.11Zm0-.76-26.14,2.15V241.37L210.37,239Zm0-17-2.42.22v-10l2.42-.22Zm0-10.2-24.58,2.3v-.48l24.58-2.26Zm-2.62.44v10l-.22,0v-10Zm-.42,0v10l-.21,0v-10Zm-.41,0v10l-4.4.4v-10Zm-4.6.43v10l-.23,0v-10Zm-.42,0v10l-.18,0v-10Zm-.38,0v10l-4.38.39v-10Zm-4.58.43v10l-.24,0v-9.95Zm-.43,0v10l-.16,0v-9.95Zm-.36,0v10l-4.39.39v-9.93Zm-4.59.44v9.93l-.25,0v-9.93Zm-.44,0v9.93H191v-9.93Zm-.34,0v9.93l-4.54.41v-9.92Zm-4.74.44v9.91l-.25,0v-9.9Zm-.25-.85V224l.25,0v6Zm.45,0v-6l4.54-.46v6Zm4.74-.43v-6h.14v6Zm.33,0v-6l.21,0v6Zm.41,0v-6l4.41-.44v6Zm4.61-.42v-6.05l.16,0v6.05Zm.36,0v-6l.25,0v6.05Zm.45,0v-6l4.38-.44v6.09Zm4.58-.42v-6.09l.2,0v6.09Zm.4,0v-6.1l.2,0v6.1Zm.4,0v-6.1l4.45-.45V228Zm4.65-.43v-6.14h.14V228Zm.34,0v-6.14l.24,0v6.14Zm2.86-.26-2.42.22v-6.14l2.42-.25Zm0-6.36-24.69,2.47a.1.1,0,0,0-.09.1v16.93a.08.08,0,0,0,0,.07.11.11,0,0,0,.07,0h0l24.67-2.21v.12l-25.09,2.26V223.39l25.09-2.51Zm0-.63-25.19,2.52-.42-.09,25.61-2.54Zm0-.31L184.21,223V207l26.16-2.84Zm0-16.81-2.4.26v-10l2.4-.27Zm0-10.21-24.55,2.76v-.5L210.37,193Zm-2.6.48v10l-.25,0v-10Zm-.44.06v10l-.15,0v-10Zm-.34,0v10l-4.44.49v-10Zm-4.64.52v10l-.28,0v-10Zm-.48.06v10l-.16,0v-10Zm-.36,0v10l-4.4.48V195Zm-4.6.52v10l-.2,0v-10Zm-.4,0v10l-.17,0v-10Zm-.37,0v10l-4.4.48v-10Zm-4.6.52v10l-.2,0v-10Zm-.4,0v10H191v-10Zm-.35,0v10l-4.56.49v-9.94Zm-4.76.54v9.95l-.21,0V196.3Zm-.21-.87v-5.93l.21,0v5.94Zm.41,0v-5.94l4.56-.54v6Zm4.76-.52v-6l.16,0v6Zm.36,0v-6l.21,0v6Zm.4,0v-6l4.39-.53v6.06Zm4.59-.49v-6.06l.15,0v6.06Zm.34,0v-6.06l.23,0v6.06Zm.43-.05v-6.06l4.44-.53v6.11Zm4.64-.5v-6.12h.16v6.11Zm.35,0v-6.12l.21,0v6.12Zm.4,0v-6.13L207,187v6.18Zm4.68-.51v-6.18h.14v6.18Zm.34,0v-6.19l.25,0V193Zm2.85-.31L208,193v-6.19l2.4-.29Zm0-6.41-24.66,3a.08.08,0,0,0-.08.09v17a.09.09,0,0,0,0,.07.09.09,0,0,0,.06,0h0l24.64-2.7v.16l-25.08,2.72V189l25.08-3Zm0-.54-25.17,3-.45-.09,25.62-3.07Zm0-.38-26.15,3.13V176.5l26.15-3.24Zm4.8,221.6h-4.61V172.74l4.61-.58Zm33-269.15a1.49,1.49,0,0,1-.36.05h-.15l-.18,0h0c-1-.25-1.84-1.67-1.84-3.37,0-2,1.15-3.85,2.57-4.1l.27,0h.15l.2,0c1.08.25,1.91,1.64,1.91,3.31C250.74,135.79,249.68,137.49,248.17,137.88Zm.22.14a4.3,4.3,0,0,0,2.55-4.27,4,4,0,0,0-1.33-3.15,3.41,3.41,0,0,1,1.69,3.25c0,2-1.05,3.74-2.57,4.13A1.32,1.32,0,0,1,248.39,138Zm.76,0v7.16l-.39.05v-7.08h0Zm-8.47.73a2.78,2.78,0,0,1-1.75,2.83,3.12,3.12,0,0,0,1.55-2.9,2.88,2.88,0,0,0-.75-2A2.51,2.51,0,0,1,240.68,138.77Zm-1.3,2.86v4.92l-.38,0v-4.82A2.15,2.15,0,0,0,239.38,141.63Zm-1.07-7.33a1.84,1.84,0,0,1-.47.07l-.19,0-.24,0h0c-1.36-.32-2.4-2.16-2.4-4.38,0-2.6,1.5-5,3.34-5.31l.35,0h.21l.25,0c1.41.32,2.5,2.13,2.5,4.3C241.66,131.59,240.28,133.8,238.31,134.3Zm.11.18c2-.56,3.43-2.82,3.43-5.54a4.94,4.94,0,0,0-1.86-4.15c1.38.39,2.4,2.18,2.4,4.28,0,2.64-1.38,4.85-3.35,5.36A2.2,2.2,0,0,1,238.42,134.48Zm1,0v1.78h0l-.34-.06h0v-1.6l.1,0Zm-.86,7a.67.67,0,0,1-.24,0h-.11l-.1,0c-.7-.16-1.27-1.15-1.27-2.31,0-1.38.79-2.64,1.76-2.81h.28l.14,0a2.23,2.23,0,0,1,1.3,2.27A2.77,2.77,0,0,1,238.53,141.53ZM225.66,407h-10.3V172.16l10.3,1.38Zm27.66,0H225.85V332l27.47-1.1Zm0-76.29-27.47,1.1V270.91l27.47-2Zm0-62.06-27.47,2v-61l27.47-2.88Zm0-62-27.47,2.87V173.45a.09.09,0,0,0-.08-.09l-4.7-.63V149.28l32.25-4.46ZM284.76,407H253.52V373.21l31.24.66Zm0-33.35L253.52,373V338.79l31.24,1.27Zm0-33.81-31.24-1.27V304.39l31.24,1.87Zm0-33.81-31.24-1.86V270l31.24,2.48Zm0-33.82-31.24-2.48V235.55l31.24,3.09Zm0-33.8-31.24-3.09V201.09l31.24,3.73Zm0-33.82-31.24-3.73V166.68L284.76,171ZM291.34,407H285V373.88l6.38.13Zm0-33.21-6.38-.14V340.07l6.38.26Zm0-33.68-6.38-.26V306.27l6.38.38Zm0-33.68-6.38-.38V272.45l6.38.5Zm0-33.7-6.38-.51V238.66l6.38.63Zm0-33.67-6.38-.63V204.84l6.38.77Zm0-33.68-6.38-.76V171l6.38.88ZM293.55,407h-2V374l2,0Zm0-33.17-2,0V340.34l2,.08Zm0-33.64-2-.08V306.66l2,.13Zm0-33.63-2-.12V273l2,.16Zm0-33.66-2-.16V239.31l2,.2Zm0-33.62-2-.2V205.63l2,.24Zm0-33.64-2-.24v-33.5l2,.28Zm0-33.65-40-5.53V144.8l40,6.06Zm206-83.29v12.51l-29.61-6V82.44ZM469.19,368.84v-8.62l26.6.81v8.51l-26-.71Zm.5.18v12.75l-31.28.47V369.66Zm.19,0,29.62.82-.06,12.5-29.56-.57Zm-.79-9-17.63.37,18.31-.44,26.84.85-.7,0Zm.6-13v12.75l-31,.74h-.31V347.93Zm-.5-.18v-8.6l26.6,1.19v8.44l-26-1.05Zm.69,12.93V347l29.62,1.2-.06,12.49ZM469.09,338l-27.57.88-.47,0,28.72-1,27.7,1.26-1.56.07Zm.6-13.07v12.74l-31.07,1.08h-.21V326.21Zm-.5-.18v-8.45l26.6,1.52v8.31l-26-1.4Zm.69,12.93V325l29.62,1.6-.06,12.49Zm-.79-21.58-27.57,1.14-1.38-.11,29.64-1.3,28,1.71-1.85.09Zm.6-13.21v12.74l-31.17,1.38h-.11V304.47Zm-.5-.17v-8.47l26.59,2v8.26l-26-1.81h0Zm.69,12.92V302.93L499.5,305l-.06,12.49Zm-.78-21.59h0l-27.57,1.52-1.71-.16,30-1.63L498.16,296l-2.25.15Zm25.17-19-23.07-2.16a.11.11,0,0,0-.07,0,.09.09,0,0,0,0,.07v7.62a.09.09,0,0,0,.09.09l19.14,1.66-20.54-1.71h0l-.59,0v-8.32l26.58,2.26v8.2l-1.47-.13h0a.11.11,0,0,0,0-.07v-7.46A.11.11,0,0,0,494.27,275.08Zm-.11.19v7.26l-.3,0v-7.26Zm-.49,0v7.27l-3.54-.31v-7.29Zm-3.74-.35v7.29l-.26,0v-7.29Zm-.46,0v7.29l-.33,0V274.8Zm-.53-.05v7.3l-5-.44v-7.33Zm-5.21-.49v7.34l-.27,0v-7.33Zm-.46,0v7.34l-.34,0v-7.34Zm-.53-.05v7.34l-5.17-.45v-7.37Zm-5.36-.5v7.37l-.29,0v-7.38Zm-.48-.05V281l-.35,0v-7.38Zm-.55,0V281l-5.06-.43v-7.42Zm-6.66,7.28v12.75l-31.21,1.69h-.07V282.74Zm.19,12.75V280.88l29.62,2.47-.06,12.5Zm-.78-21.45h0l-27.57,1.71-1.88-.19,30.14-1.95,28.51,2.55-2.38.16Zm.59-13.37v12.75l-31.23,2h0V261Zm-.5-.16v-8.3l26.6,2.68v8.13l-26-2.55h0Zm.69,12.91V258.82l29.62,2.9-.06,12.49Zm-.78-21.41h0l-27.57,2.07-2-.2,30.23-2.31,28.65,2.95-2.52.19Zm.59-13.37v12.74l-31.24,2.39h0V239.33Zm-10.81.5-6.71.52v-7.24l6.71-.55Zm.2,0v-7.4l.4,0v7.4Zm.6,0v-7.34l.21,0v7.28Zm.41,0V230l7.21-.61v7.28Zm34.18-5.51-23.06-2.53a.08.08,0,0,0-.08,0,.09.09,0,0,0,0,.07v7.49l-1.3-.15h0l-.61.05v-8.19l26.62,3v8l-1.43-.16v-7.55A.09.09,0,0,0,494.27,231.67Zm-.11.23v7.39l-.31,0V232Zm-3.44-.43,3.12.34-.08,0Zm2.93.56v7.2l-3.51-.39V231.6Zm-3.71-.64v7.43l-.27,0v-7.43Zm-.46,0v7.38l-.34,0v-7.24Zm-4.24-.51,3.85.43-.08,0Zm3.7.64v7.2l-5-.56v-7.24Zm-5.2-.8v7.42l-.27,0v-7.42Zm-.46,0v7.39l-.36,0v-7.26Zm-.56.09V238l-5.16-.57v-7.26Zm-5.36-.77v7.41l-.27,0V230Zm-.47,0v7.38l-.33,0v-7.28Zm-.52.08v7.24l-5.08-.57v-7.27Zm-6.49,19.46V236.78l29.62,3.3-.06,12.49Zm-.78-21.31h0l-27.57,2.31-2.16-.27,30.42-2.59,28.74,3.42-2.61.2Zm.59-13.48v12.75l-31.26,2.65h0V217.56Zm-26,2.15v-7.4l.23.08v7.3Zm.36-7.48,7-.66v0Zm7-.43v7.25l-6.92.62V209.6Zm.2,7.23v-7.48l.36,0v7.48Zm.55-.05v-7.44l.24.07v7.35Zm.43,0v-7.3l6.7-.66v7.36Zm6.9-.62V208l.39,0v7.51Zm.59-.05V208l.23.06v7.4Zm.42,0v-7.36l7.22-.69v7.4Zm34.19-5.28-23.06-3a.08.08,0,0,0-.08,0,.09.09,0,0,0,0,.07v7.45l-1.3-.17h0l-.61.06v-8.18l26.62,3.48v8l-1.43-.18v-7.43A.11.11,0,0,0,494.27,210.13Zm-.11.22v7.29l-.31,0v-7.18Zm-.51.07v7.15l-3.54-.45V210Zm-3.74-.65v7.33l-.22,0v-7.33Zm-.42,0V217l-.35,0v-7.18Zm-.55.08V217l-5-.63v-7.17Zm-5.2-.86v7.34l-.27,0v-7.35Zm-.47,0v7.31l-.35,0V209Zm-.54.05v7.19l-5.17-.66v-7.2Zm-5.37-.84v7.35l-.27,0v-7.35Zm-.46,0v7.33l-.35,0v-7.24Zm-.55.06v7.2l-5.06-.64V207.5Zm-6.47,19.32V214.74l29.62,3.78L499.44,231Zm-.77-21.29h0l-27.56,2.64-2.22-.28,30.48-2.95,28.94,3.85-2.81.25Zm.58-13.53v12.75l-31.27,3h0V195.86Zm-26,2.46v-7.36l.22.06v7.28Zm.42,0v-7.25l6.88-.71v7.26Zm7.08-.72V187l.4,0v7.42Zm.59-.06v-7.39l.28.06v7.3Zm.48-.05V187l6.68-.68v7.27Zm6.87-.7v-7.43l.39,0v7.43Zm.58-.06v-7.4l.22.05v7.33Zm.41,0v-7.28l7.22-.76v7.3Zm34.19-4.94-23.06-3.3a.08.08,0,0,0-.08,0,.09.09,0,0,0,0,.07v7.34l-1.3-.18h0l-.61.06v-8.07l26.61,3.84v7.82l-1.42-.2v-7.31A.09.09,0,0,0,494.27,188.52Zm-.11.23v7.14l-.31,0v-7Zm-4-.61v0l3.68.53h-.06Zm3.52.7v7l-3.52-.49v-7Zm-3.72-.75v7.21l-.26,0v-7.2Zm-.45,0v7.17l-.35-.05v-7Zm-2.62-.42,2.19.32h0Zm2.07.51v7l-5-.7v-7.05Zm-5.2-.95v7.22l-.23,0v-7.23Zm-.42,0v7.2l-.36-.05v-7.1Zm-.56.06v7.06l-5.19-.73v-7.1Zm-5.39-.94v7.24l-.26,0v-7.24Zm-.46,0v7.22l-.36-.05v-7.13Zm-.55.05v7.09l-5.07-.71v-7.1Zm-6.48,19.13V192.68l29.62,4.16v12.52Zm-.77-21.18h0l-27.56,2.9-2.33-.35,30.59-3.24,29,4.28-2.89.28Zm.58-13.62v12.74l-31.28,3.32h0V174.1Zm-26,2.7V166l.22.08v7.2Zm.35-7.39h0l7-.79h0Zm7-.59v7.16l-6.91.77v-7.15Zm.2,7.14v-7.37l.37-.05v7.38Zm.57-.06V165.1l.22.08v7.22Zm.34-7.41h0l4.76-.53Zm6.81-.59v7.2l-6.73.75v-7.17Zm.2,7.18v-7.39l.38,0v7.39Zm.57-.06V164.2l.21.06v7.26Zm.4-.05v-7.21l7.23-.82v7.23Zm34.21-4.58-23.07-3.69a.11.11,0,0,0-.08,0,.09.09,0,0,0,0,.07v7.29l-1.3-.19h0l-.58.07v-8l26.57,4.24v7.7l-1.4-.21V167A.11.11,0,0,0,494.28,166.92Zm-.12.23v7l-.31,0v-6.91Zm-2.76-.49,2.4.39h0Zm2.25.57v6.89l-3.52-.55v-6.92Zm-3.72-.8v7.11l-.26,0v-7.11Zm-.46,0v7.08l-.34-.05v-6.94Zm-5.53-.92h0l5.13.82h0Zm5,1v6.91l-5-.78v-6.94Zm-5.19-1v7.14l-.25,0V165.4Zm-.44,0v7.11l-.37,0v-7Zm-5.75-.94h0l5.32.85h0Zm5.18,1v7l-5.18-.81v-7Zm-5.38-1.06v7.17l-.25,0v-7.17Zm-.44,0v7.15l-.37-.06v-7Zm-5.47-.91,5.07.81-.08,0Zm4.9,1v7l-5-.78v-7Zm-6.46,18.9V170.63l29.62,4.59v12.52Zm-.77-21.09h0l-27.56,3.19-2.44-.42,30.7-3.57,29.12,4.72-3,.35Zm.58-13.73v12.75L438.41,165V152.36Zm-26,3v-7.21l.25.09,0,7.09Zm.36-7.29h0l7-.87v0Zm7-.67v7.07l-6.9.84,0-7Zm.19,7.05v-7.28l.4-.05v7.28Zm.6-.07v-7.23l.21.07v7.13Zm.34-7.32h0l6.79-.84h0Zm6.78-.65v7.1l-6.71.81v-7.07Zm.2,7.08v-7.31l.4,0v7.31Zm.6-.08v-7.24l.21.08v7.14Zm.37-7.3-.09,0,7.34-.91v0Zm7.25-.7v7.08l-7.22.87v-7.06Zm27,3.65-17.28-3h0l-5.79-1a.11.11,0,0,0-.08,0,.08.08,0,0,0,0,.07v7.23l-1.3-.22h0l-.58.07v-7.91l26.59,4.65v7.59l-1.42-.25v-7.19A.11.11,0,0,0,494.28,145.23Zm-4.15-.45v-.07l3.78.65-.15.06Zm3.54.83v6.79l-3.54-.6V145Zm.2,0,.29-.12v7l-.29,0Zm-3.94-.91v7.09l-.27-.05v-7.09Zm-6-1v-.06l5.27.91-.18.07Zm5,1.11v6.79l-5-.85V143.9Zm.19,0,.33-.13v7l-.33-.06Zm-5.4-1.18v7.11l-.27-.05v-7.11Zm-6.18-1v-.06l5.43.93-.17.06Zm5.18,1.12v6.82l-5.18-.88v-6.86Zm.2,0,.34-.11v7l-.34-.06Zm-5.57-1.19v7.13l-.28,0v-7.13Zm-6.08-1v0l5.31.92-.19.06Zm5.07,1.12v6.84l-5.07-.86V141.7Zm.2,0,.33-.12v7.08l-.33-.06Zm-6.68,18.71V148.57l29.62,5v12.53Zm-.77-21h0l-27.56,3.46-2.49-.46,30.74-3.86,29.16,5.18-3,.36Zm.58-13.79v12.75l-31.28,3.92V130.6Zm-26,3.2v-7.11l.22.08v7Zm.36-7.18-.08,0,7-.93v0Zm6.95-.73v7l-6.9.9v-6.94Zm.19,6.93v-7.19l.39,0v7.19Zm.59-.07v-7.15l.23.08v7Zm.37-7.23h0l6.81-.91h0Zm6.77-.72v7l-6.72.87v-7Zm.2,7V120.5l.39-.06v7.22Zm.59-.08v-7.17l.21.06v7.09Zm.41,0v-7l7.22-1v7Zm34.2-3.9-4.69-.89h0L477,120.42h0l-5.78-1.1a.11.11,0,0,0-.08,0,.08.08,0,0,0,0,.07v7.14l-1.3-.24h0l-.59.07v-7.8l26.6,5v7.57l-1.42-.27v-7.09A.11.11,0,0,0,494.28,123.68Zm-4.16-.51v-.08l3.76.71-.11,0Zm3.56.85v6.72l-3.56-.66v-6.71Zm.2,0,.28-.1v6.92l-.28-.06Zm-4-1v7l-.25,0v-7Zm-6-1.09v0l5.21,1-.13,0Zm5,1.16v6.73l-5-.92v-6.77Zm.2,0,.35-.1V130l-.35-.06Zm-5.38-1.23v7l-.28-.05v-7Zm-6.19-1.11v-.06l5.4,1-.13,0Zm5.2,1.19v6.75l-5.2-1V121Zm.19,0,.33-.1v7l-.33-.06Zm-5.59-1.27v7l-.28-.06v-7Zm-6.07-1.1v0l5.3,1-.16,0Zm5,1.19v6.76l-5-.94v-6.81Zm.19,0,.35-.11v7l-.35-.07Zm-6.65,18.51V126.53L499.5,132v12.52Zm-.77-20.89h0l-27.56,3.73-2.52-.47,30.77-4.22L499,123l-3.08.41Zm.58-13.88v12.74l-31.28,4.29V108.94Zm-26,3.5v-7.08l.23.08v7Zm7.31-8V107l-6.88,1V101Zm-6.66.75,6.66-1v0Zm6.85,6.15V99.79l.42-.06v7.15Zm.62-.08v-7.1l.21.06v7Zm7.13-8v7l-6.72,1v-7Zm-2.84.2,2.84-.41h0Zm3,6.72V98.64l.39,0v7.16Zm.58-.08V98.6l.21.05v7Zm.4-.06v-7l7.22-1v7Zm34.2-3.55-4.7-1h0l-6.18-1.26h0l-12.19-2.5a.08.08,0,0,0-.08,0,.11.11,0,0,0,0,.08v7.06l-1.3-.25h0l-.59.08V96.61l26.6,5.37v7.44l-1.42-.28V102.2A.11.11,0,0,0,494.28,102.11Zm-.12.22v6.77l-.3-.06v-6.63Zm-4-.83v0l3.71.76h-.07Zm3.54.91V109l-3.54-.7v-6.6Zm-3.73-1v6.85l-.28-.06v-6.85Zm-.47,0v6.8l-.33-.06v-6.66Zm-5.53-1.14v0l5.19,1.06-.08,0Zm5,1.22v6.62l-5-1v-6.65Zm-5.2-1.3V107l-.27-.05v-6.9Zm-.46-.05V107l-.34-.07v-6.7ZM477.54,99v-.08l5.4,1.1-.12,0Zm5.21,1.24v6.65l-5.21-1V99.16Zm-5.4-1.36v6.94l-.23,0V98.79Zm-6.06-1.17V97.6l5.33,1.09-.17,0Zm5.06,1.24v6.67l-5.06-1V97.87Zm.2,0,.38-.11v6.89l-.38-.07Zm-6.67,18.34V104.5l29.62,5.85v12.53Zm-.78-20.86h0l-28.95,4.27-2.14-.5V100l31.82-4.66,29.24,6-3.17.45ZM409.58,367.16v-.45l19.92.54h0a.1.1,0,0,0,.1-.1V359.3a.09.09,0,0,0-.1-.1l-19.92-.66v-.47l21.21.68v8.89l-20.2-.51Zm.91.17v13.34h-.91V367.36Zm-.91-.81v-7.78l5.2.17v7.75Zm5.4.14v-7.75h.33v7.75Zm.52,0v-7.75h.3v7.75Zm.5,0V359l5.68.18v7.71Zm5.88.16v-7.71h.31v7.71Zm.5,0v-7.7h.35v7.7Zm.54,0v-7.7l5.95.19V367Zm6.14.16v-7.66h.34v7.66Zm.42-22.41h0a.11.11,0,0,0,.07,0,.09.09,0,0,0,0-.07v-7.86a.09.09,0,0,0-.1-.09l-19.91-.9v-.53l21.19,1v8.79l-20.17-.79h0l-1,.08v-.41Zm-19.9-1v-7.73l5.18.23v7.72Zm5.38.23v-7.72l.34,0v7.71Zm.53,0v-7.72l.29,0v7.71Zm.49,0v-7.71l5.69.25v7.69Zm5.89.24v-7.69h.32v7.69Zm.51,0v-7.69l.33,0v7.68Zm.53,0v-7.68l6,.26v7.67Zm6.16.25v-7.66l.32,0v7.66Zm.4-22.4h0a.07.07,0,0,0,.06,0,.1.1,0,0,0,0-.07V314a.09.09,0,0,0-.1-.1l-19.9-1.17v-.54l21.24,1.29v8.71l-20.22-1.08h0l-1,.08v-.32Zm-19.89-1.29V313l5.14.3V321Zm5.34.29v-7.73l.37,0V321Zm.57,0v-7.73l.31,0v7.73Zm.5,0v-7.73l5.67.33v7.71Zm5.86.32v-7.71l.35,0v7.71Zm.55,0v-7.7h.29v7.71Zm.48,0v-7.7l6,.35v7.68Zm6.19.34v-7.68l.31,0v7.68Zm.4-22.42h0a.07.07,0,0,0,.06,0,.13.13,0,0,0,0-.07v-7.82a.1.1,0,0,0-.1-.1l-19.9-1.47v-.54l21.22,1.59v8.61l-20.2-1.36h0l-1,.08V298Zm-19.89-1.55v-7.74l5.2.39v7.71Zm5.4.37v-7.71l.3,0v7.7Zm.5,0v-7.7l.32,0v7.71Zm.51,0v-7.7l5.67.42v7.66Zm5.87.4V291l.33,0v7.67Zm.52,0V291l.35,0v7.66Zm.55,0v-7.66l5.94.44v7.63Zm6.13.42v-7.63l.32,0v7.62Zm.43-98.28-19.91-2.66v-.48l21.22,2.8v8.25l-1.22-.15V201A.1.1,0,0,0,429.49,200.87Zm-.11.2v7.53l-.33,0v-7.44Zm-.53.05v7.42l-5.92-.76V200.3Zm-6.12-1v7.59l-.34,0v-7.59Zm-.53,0v7.57l-.34-.05v-7.48Zm-.54,0v7.46l-5.68-.73V199.4Zm-5.87-.93v7.64l-.29,0v-7.64Zm-.48,0v7.61l-.37-.05v-7.48Zm-.56.09v7.45l-4.14-.53h0l-1,.13v-7.77Zm-4.26,7.12v13.35l-.91.08V206.53Zm.09,13.54,26.36,3.13-5.94.52v-.54a.11.11,0,0,0-.09-.1l-21.33-2.52V220Zm20.22,3.2v8.31l-1.19-.13v-7.76a.1.1,0,0,0-.08-.1l-19.95-2.34v-.5Zm-1.38.53v7.63l-.39-.05v-7.51Zm-.58.07v7.49l-5.93-.67V223Zm-6.13-.88v7.68l-.33,0v-7.68Zm-.52,0v7.66l-.33,0v-7.58Zm-.53,0v7.56l-5.68-.64v-7.57Zm-5.87-.82v7.72l-.3,0V222Zm-.5,0v7.68l-.34,0v-7.58Zm-.54.06v7.56l-4.15-.47h0l-1,.13v-7.85Zm-4.26,7.3v13.35l-.91.08V229.51Zm.09,13.54,26.24,2.72-5.82.46v-.44a.1.1,0,0,0-.09-.1l-21.33-2.23V243Zm20.22,2.82v8.41l-1.22-.12v-7.82a.11.11,0,0,0-.09-.1L409.58,244v-.47Zm-1.42.56V254l-.31,0v-7.72Zm-.5-.06V254l-6-.58v-7.77Zm-6.18-.65v7.77l-.32,0v-7.78Zm-.51-.06v7.78l-.31,0v-7.78Zm-.51,0v7.78l-5.68-.56v-7.82Zm-5.88-.63v7.83l-.31,0v-7.83Zm-.51-.05v7.84l-.32,0v-7.83Zm-.51-.05v7.83l-4.18-.4h0l-1,.13V244.2Zm-4.29,7.64v13.34l-.91.08V252.51Zm.09,13.53,26.06,2.31-5.64.39v-.38a.11.11,0,0,0-.09-.1l-21.33-1.91V266Zm20.22,2.41v8.53l-1.32-.11.06,0a.13.13,0,0,0,0-.07v-7.84a.11.11,0,0,0-.09-.1L409.58,267v-.52Zm-1.42.58v7.64l-.33,0v-7.64Zm-.52-.05v7.65l-5.95-.51v-7.67Zm-6.14-.54V276l-.33,0V268.3Zm-.53-.05V276l-.33,0v-7.68Zm-.52,0v7.68l-5.68-.48v-7.7Zm-5.87-.52v7.7l-.31,0v-7.71Zm-.51,0v7.7l-.33,0v-7.7Zm-.52-.05v7.71l-5.19-.44v-7.73Zm12.41,8.95-16.58-1.38h0l-1,.07v-.17Zm-16.69-1.18v13.35l-.91,0V275.46Zm.09,13.54,25.79,1.92-5.38.29v-.29a.1.1,0,0,0-.09-.1l-21.32-1.6V289Zm-.09,9.46v13.35l-.91,0V298.46Zm.09,13.55,25.57,1.49-5.13.28v-.28a.12.12,0,0,0-.1-.1L409.58,312V312Zm-.09,9.41v13.36l-.91,0V321.42Zm.09,13.55,25,1.11-4.59.18v-.14a.1.1,0,0,0-.1-.1l-21.29-1v0Zm20.31,23.66-20.58-.66h.27l23.75.71-3.35.09v0A.09.09,0,0,0,430.89,358.56Zm-20.4-14.21v13.34l-.91,0V344.41Zm.2,23,27.1.69v13.11l-27.1-.44Zm26.29.48-6-.16v-8.76l6-.15Zm-26.29-10.11V344.34l27.1,1.06v13.11ZM437,345.18l-6-.24v-8.56l6-.23Zm-26.29-10.47V321.35l27.1,1.45v13.11ZM437,322.56l-6-.32V313.9l6-.32Zm-26.28-10.81V298.39l27.1,1.83v13.11ZM437,300l-6-.41v-8.22l6-.33Zm-26.26-11.23V275.39l27.1,2.26v13.11ZM437,277.39l-5.95-.5v-8.07l5.95-.41Zm-26.26-11.64V252.39l27.1,2.65v13.1Zm26.28-11-6-.58v-7.87l6-.47Zm-26.28-12V229.39l27.1,3.06v13.11ZM437,232.16l-6-.67V223.8l6-.53Zm-26.28-12.39V206.41l27.1,3.46V223Zm20.3-11v-7.53l6-.58v8.87Zm0-7.73v-.64a.08.08,0,0,0-.08-.09l-21.33-2.82v-.48l1-.09L437,200.49Zm-1.51-22.8-19.9-3v-.49l21.22,3.12v8.17l-1.23-.18v-7.54A.11.11,0,0,0,429.48,178.28Zm-.11.21v7.4l-.34,0v-7.31Zm-.53,0v7.29l-5.93-.85v-7.34Zm-6.13-1.06v7.47l-.32,0v-7.48Zm-.51-.06v7.46l-.33-.05v-7.38Zm-.53,0v7.35L416,184v-7.37Zm-5.86-1V184l-.32-.05v-7.52Zm-.51,0v7.49l-.34,0v-7.4Zm-.53.05v7.37l-4.16-.6h0l-1,.13v-7.67Zm-4.28,7v13.35l-.91.08V183.54Zm.2,13.36V183.42l27.1,3.87V200.4ZM431,186.12v-7.34l6-.68V187Zm0-7.54v-.73a.1.1,0,0,0-.08-.1l-21.33-3.14V174l1-.06,26.55,3.9Zm-1.49-23-19.92-3.25v-.47l21.21,3.45v8l-1.21-.19v-7.48A.08.08,0,0,0,429.5,155.63Zm-.11.2v7.34l-.36-.06v-7.23Zm-.55,0v7.2l-5.93-.93v-7.23Zm-6.13-1.16v7.4l-.32-.05v-7.41Zm-.52-.06V162l-.34,0v-7.28Zm-.53.06V162l-5.68-.89v-7.28Zm-5.87-1.13V161l-.3,0v-7.46Zm-.49,0V161l-.33-.06v-7.3Zm-.45-.11h0l-5.24-.86h0Zm-.08.19v7.25l-4.16-.65h0l-1,.11v-7.56Zm-4.28,6.81v13.35l-.91.05v-13.3Zm.2,13.36V160.44l27.1,4.24v13.1ZM437,164.35l-6-.93v-7.21l6-.68ZM431,156v-.73a.09.09,0,0,0-.08-.09l-21.33-3.48v-.54l1-.16,26.59,4.3Zm-1.5-23-19.91-3.51V129l21.22,3.78v7.91l-1.22-.2v-7.44A.1.1,0,0,0,429.49,133Zm-.11.21v7.28l-.34-.06v-7.14ZM423,132l6,1.05h0Zm5.86,1.24v7.11l-5.93-1v-7.16ZM422.72,132v7.36l-.3-.06v-7.35Zm-.5,0v7.32l-.36-.06V132ZM416,130.8h0l5.77,1h0Zm5.66,1.21v7.14l-5.66-1V131Zm-5.86-1.25v7.4l-.31-.06v-7.39Zm-.5,0v7.36L415,138v-7.23Zm-.42-.11h0l-5.26-.93h0Zm-.11.2V138l-4.16-.71h0l-1,.19v-7.58Zm-4.28,6.68v13.35l-.91.14V137.66Zm.2,13.35V137.48l27.1,4.62v13.11ZM437,141.77l-6-1v-7.06l6-.76Zm-6-8.28v-.77a.1.1,0,0,0-.08-.1l-21.33-3.8v-.65l1-.15,26.65,4.68Zm-1.5-23.12-19.91-3.82v-.45l21.2,4.05V118l-1.21-.22v-7.31A.1.1,0,0,0,429.49,110.37Zm-.12.21v7.16l-.32-.06v-7Zm-.52.06v7l-5.93-1.1v-7Zm-5.93-1.33h0l1.54.29Zm-.2,0v7.24l-.33-.06v-7.24Zm-.53-.06v7.21l-.33-.07v-7.06ZM416,108v0l5.83,1.12h-.06Zm5.68,1.29v7l-5.68-1V108.2Zm-5.87-1.35v7.29l-.3,0v-7.3Zm-.5,0v7.25l-.34-.06V108Zm-.34-.11-.09,0-5.28-1v0Zm-.19.2V115l-4.15-.77h0l-1,.2V107Zm-4.27,6.51v13.35l-.91.13v-13.3Zm.2,13.35V114.49l27.1,5v13.1ZM437,119.15,431,118v-6.87l6-.81ZM431,111v-.9a.11.11,0,0,0-.08-.1l-21.32-4.07v-.72l1-.15,26.7,5.09ZM430.9,87.4,409.58,83V81.86l27.63,5.69-6.23.89v-1A.09.09,0,0,0,430.9,87.4Zm-.12.17v7.74l-1.21-.24v-7.2a.1.1,0,0,0-.08-.1l-19.91-4.12v-.43Zm-1.41.41v7l-.31-.06V88Zm-1.73-.39,1.31.27h0Zm1.22.45v6.89l-5.95-1.19V86.8Zm-6.15-1.47V93.7l-.31-.06V86.5Zm-.51-.07v7.1l-.35-.07v-7ZM416,85.2v0l5.78,1.2h0Zm5.65,1.35v6.94L416,92.36v-7Zm-5.84-1.41v7.18l-.33-.06V85.07Zm-.52-.07v7.15l-.33-.07v-7Zm-.4-.12h-.05l-5.26-1.06v-.05Zm-.12.19v7l-4.16-.83s0,0,0,0l-1,.19V84.1Zm-4.28,6.36v13.35l-.91.13V91.68Zm.2,13.35V91.5l27.1,5.41V110ZM431,95.35V88.64l6.8-1h.1l.06,0a.11.11,0,0,0,0-.08v-.33l31.73-4.82V95.19L438,99.84v-3a.1.1,0,0,0-.07-.09Zm35.91-27.49,12.25,2.74v5.21l-12.25-2.67Zm-12.5,1.94,12.31-2V73.1l-.57-.13V71.5a.1.1,0,0,0-.08-.1l-7.37-1.59h0l-4.11.63-.14,0Zm11.54,1.78v1.35l-7.18-1.57V70ZM458.56,70v1.3l-3.5-.76ZM451.47,28.2l1.41.07V70.08l-1.41-.31ZM436.69,66.75l59.55,13v8.1l-26.41-5.61h0L438,87.07V74.24a.1.1,0,0,0-.07-.09l-1.21-.26Zm-.2,0v7.09l-18.86-4Zm1.29,7.56V87.47L370,73.51V59.86Zm-42,292.44-25.84-.68h-.37v-9.26l24.84.69h1.37Zm2.69.27v13.42L370,379.93V366.28ZM331.84,80l.26-.06.13,0-.29.06Zm0,.22V374h-.31V80.15ZM331,61.36l6.49-1.17v5l-5.5.94a.1.1,0,0,0-.08.1v1.84l-.91.17Zm-.09-.18-.07,0L337.53,60h0ZM366.86,76a.11.11,0,0,0-.07,0l-7.37,1.21h0l-22,3.61a.11.11,0,0,0-.08.1v7.57l-1.86.3V80.55l33.85-5.48v8.22l-2.45.39V76A.07.07,0,0,0,366.86,76Zm-6.93,1.33-.07,0,6.84-1.13v0Zm6.77-.92v7.36L360,84.79V77.46Zm-6.88,1.09v7.37l-.28,0v-7.5Zm-.48-.11v7.55l-.41.07V77.41Zm-7.45,1.27-.1,0,6.94-1.14v0Zm6.84-.93V85l-6.8,1.09V78.8Zm-7,1.09v7.34l-.28,0V78.69Zm-.48-.1v7.52l-.4.06V78.74ZM344,79.91l-.11,0,6.76-1.11h0Zm6.65-.94v7.31l-6.58,1.06V80.1Zm-6.78,1.11v7.29l-.3,0V80Zm-.49-.12v7.49l-.43.07V80Zm-5.41.93-.08,0,4.86-.79h0Zm4.78-.62v7.28l-4.71.75V81.07Zm-4.91.78v7.29l-.29,0V81Zm32,2.37V97.07l-37.67,5.77V89.45Zm23-3.2-21.74-4.43-.08,0a.09.09,0,0,0,0,.08v7.52l-1-.2h0l-.35.06v-8.2l26.2,5.34v7.95l-2.86-.57V80.32A.1.1,0,0,0,392.8,80.22ZM386,79.1V79l6.39,1.3-.15,0Zm6.14,1.47v7.07L386,86.41V79.3Zm.2,0,.33-.11v7.28l-.33-.06ZM385.82,79v7.37l-.32-.06V78.94Zm-7-1.37v0L385,78.84l-.14,0Zm6,1.43v7.11l-6-1.19V77.83Zm.2,0,.32-.1v7.32l-.32-.06Zm-6.35-1.51v7.4l-.37-.07V77.46Zm-7.5-1.47V76l6.64,1.35-.13,0Zm6.42,1.52v7.14l-6.42-1.28V76.27Zm.2,0,.32-.1v7.36l-.32-.06Zm-10.9,21.8a.09.09,0,0,0-.08,0l-29.29,4.51a.11.11,0,0,0-.09.1v7.68l-1.89.28v-8.23l33.85-5.13v8.33l-2.47.37V99.44A.11.11,0,0,0,366.85,99.37Zm-6.91,1.26-.06,0,6.8-1v0Zm6.74-.83v7.49l-6.68,1v-7.47Zm-6.87,1v7.52l-.27,0v-7.64Zm-.47-.1v7.69l-.41.06v-7.69Zm-7.47,1.18-.07,0,6.94-1.07v0Zm6.87-.88v7.48l-6.81,1v-7.42Zm-7,1.05v7.47l-.29,0V102Zm-.48-.1v7.64l-.41.06V102ZM344,103.06h0l6.67-1h0Zm6.65-.82v7.43l-6.58,1v-7.4Zm-6.78,1v7.45l-.3,0v-7.56Zm-.49,7.52-.41.06v-7.6l.41-.06Zm-.61-7.31v7.4l-4.72.71v-7.38Zm-4.92.72v7.41l-.27,0v-7.52ZM369.81,107v13.65L332.14,126V112.62Zm-3,15.81a.07.07,0,0,0-.07,0L337.46,127a.11.11,0,0,0-.09.1v7.77l-1.87.25v-8.32L369.35,122v8.44l-2.48.34v-7.9A.08.08,0,0,0,366.83,122.83ZM359.94,124h0l6.77-1v0Zm6.73-.76v7.59l-6.64.91v-7.56Zm-6.83.93v7.6l-.29,0v-7.72Zm-.49-.1v7.77l-.41,0v-7.77Zm-.61.25v7.6l-6.81.93v-7.55Zm-7,1v7.58l-.27,0v-7.69Zm-.47-.08v7.72l-.38.06v-7.73Zm-6.92,1,6.34-.9h0Zm6.34-.69V133l-6.6.91v-7.5Zm-6.8.92v7.52l-.29.05v-7.63Zm-.48-.1V134l-.4.06v-7.69Zm-.6.26v7.51l-4.72.65v-7.47Zm-4.92.68v7.51l-.31,0v-7.62Zm31.93,3.33v13.65l-37.67,4.9V135.75Zm-3,15.7a.11.11,0,0,0-.07,0l-29.32,3.83a.08.08,0,0,0-.08.09V158l-1.86.23v-8.38l33.85-4.35V154l-2.48.31v-7.94A.07.07,0,0,0,366.83,146.29Zm-.16.37v7.66l-6.63.83v-7.62Zm-6.82.85v7.67l-.3,0v-7.78Zm-.49-.08v7.81l-.42,0v-7.81Zm-7.43,1.16,6.82-.91v7.64l-6.82.85Zm-.06-.19Zm-.13.17v7.62l-.27,0V148.5Zm-.47-.09v7.77l-.4.05v-7.77Zm-.59.26v7.59l-6.59.82v-7.54Zm-6.78.87v7.57l-.31,0v-7.69Zm-.51-.1v7.73l-.42,0v-7.73Zm-.61.24v7.57l-4.7.59v-7.55Zm-4.9.61v7.57l-.33,0V150.3Zm31.93,3.77v13.65l-37.67,4.46V158.85Zm-3,15.61-.08,0-29.25,3.48a.1.1,0,0,0-.08.1v7.95l-1.9.22V173l33.85-4v8.58l-2.51.29v-8A.11.11,0,0,0,366.81,169.74Zm-1.2.31,1-.12h0Zm1,.08v7.75l-6.61.76v-7.76Zm-6.8.74v7.8l-.31,0v-7.88Zm-.5-.07v7.92l-.42.05v-7.92Zm-.62.23v7.76l-6.79.79v-7.74Zm-7,.8v7.77l-.29,0v-7.86Zm-.48-.07v7.89l-.42,0v-7.89Zm-.62.23v7.74l-6.55.75v-7.7Zm-6.75.79v7.72l-.33,0v-7.83Zm-.52-.08v7.86l-.41.05v-7.86Zm-.6.21v7.72l-4.68.54v-7.69Zm-4.88.56v7.73l-.31,0v-7.81Zm31.91,4.24v13.66l-37.67,4.08V182.06Zm-3,15.48a.06.06,0,0,0-.07,0l-7.33.78h0l-21.94,2.34a.09.09,0,0,0-.09.09v8l-1.87.19v-8.54h0l33.85-3.59v8.67l-2.48.26v-8.13A.09.09,0,0,0,366.83,193.19Zm-.16.34v7.88l-6.64.68v-7.88Zm-6.84.68v7.9l-.3,0v-8Zm-.5-.06v8l-.41,0v-8Zm-.61.22v7.85l-6.77.69v-7.83Zm-7,.7v7.86l-.29,0V195Zm-.48-.06v8l-.43,0v-8Zm-.63.22V203l-6.55.67v-7.78Zm-6.75.68v7.82l-.29,0v-7.9Zm-.48-.06v7.93l-.44,0v-7.93Zm-.64.25v7.74l-4.67.48v-7.74Zm-4.87.47v7.77l-.34,0V196.5Zm31.91,4.71v13.66l-37.67,3.58v-13.4Zm-3,15.4-.08,0-29.29,2.81a.09.09,0,0,0-.09.09v8h0l-1.87.17v-8.6l33.85-3.21v8.79l-2.49.23h0v-8.18A.11.11,0,0,0,366.83,216.68Zm-.17.18v8l-6.63.59V217.5Zm-6.83.66v7.94l-.29,0v-7.94Zm-.49,0v7.94l-.41,0v-7.93Zm-.6.05v7.94l-6.82.61v-7.89Zm-7,.67v7.9l-.28,0v-7.89Zm-.47.05v7.89l-.38,0v-7.88Zm-.58,0v7.89l-6.61.59V219Zm-6.81.66v7.84l-.31,0v-7.83Zm-.5,0v7.83l-.39,0v-7.84Zm-.59.05V227l-4.72.43V219.6Zm-4.91.47v7.8l-.31,0v-7.8Zm31.94,5.26v13.65l-37.67,3.1v-13.4Zm0,23.57v13.66l-37.67,2.67V251.39Zm-34.31,2.48v-8.71l33.85-2.81v8.88ZM369.81,272v13.66l-37.67,2.28V274.54Zm-34.31,2.13v-8.84l33.85-2.4v8.95Zm34.31,21.45v13.65L332.14,311V297.63Zm-34.31,1.68v-8.84l33.85-2.07v9.06Zm34.31,21.89v13.65l-37.67,1.38V320.78Zm-34.31,1.3v-9l33.85-1.66V319Zm34.31,22.27v13.65l-37.67,1V343.93Zm-34.31.92v-9.07l33.85-1.23v9.19Zm0,13.82h-.19l34.62-.89,22,.71-22.48-.62Zm33.87-.61v9.25l-33.85.72v-9.17Zm-34-13.21-3.24.11v-9.37l3.24.18Zm0-23.18-3.24.14v-9.37l3.24.25Zm0-23.19-3.24.18v-9.31l3.24.27Zm0-23.13-3.24.22V265l3.24.27Zm0-23.18-3.24.25v-9.37l3.24.37Zm0-23.2-3.24.29v-9.31l3.24.39Zm0-23.14-3.24.33v-9.28l3.24.37Zm0-23.12-3.24.38v-9.42l3.24.49Zm0-23.24-3.24.41v-9.3l3.24.48Zm0-23.13-3.24.44v-9.33l3.24.51Zm0-23.17-3.24.48v-9.37l3.24.6Zm0-23.21-3.24.52v-9l.66-.15,2.58.45Zm-3.24,268.78,3.24.11v9.19l-3.24.06Zm.07,9.56,37.67-.8v13.65l-37.67.54ZM370,356.36V342.71l28.43,1.14v13.42Zm25.74-12.81-25.84-1h-.37v-9.19l24.84,1.14,1.37-.05Zm-1.37-9.27-24.9-1.15-34,1.23-1.29-.07L369.91,333l26.28,1.23ZM370,332.79V319.14l28.43,1.56v13.42Zm25.72-12.43-25.82-1.42-.37,0v-9.14l24.84,1.53h0l1.34-.06Zm-1.34-9.2-24.93-1.54h0l-34,1.67-1.86-.15,36.29-1.72,26.77,1.64ZM370,309.23V295.57l28.43,2V311Zm25.72-12.07-25.81-1.79h0l-.36,0v-9.05l24.88,1.91h0l1.3-.08Zm-1.3-9.1-24.94-1.92h0l-34,2.08-2.08-.17,36.5-2.21,27.19,2.05ZM370,285.65V272l28.43,2.38V287.8Zm7.52-13.4-6.38-.58v-7.92l6.38.6Zm.19,0v-7.9l.35,0v7.9Zm.55.05v-7.9l.35,0v7.89Zm.54,0v-7.88l6,.56v7.86Zm6.16.56v-7.86l.33,0V273Zm.53.05v-7.86l.31,0V273Zm.5,0v-7.85l6.15.58v7.83Zm6.35.58v-7.83l.35,0v7.83Zm3.4.37-2.85-.24v-8a.09.09,0,0,0-.09-.1l-21.75-2.07a.11.11,0,0,0-.08,0,.09.09,0,0,0,0,.07v8.12a.11.11,0,0,0,.09.1l4.41.4-5.53-.47h0l-.36,0v-8.95l24.83,2.24h0l1.37-.09Zm-1.37-9-24.87-2.25h0l-34,2.41-2.18-.18,36.62-2.61,27.39,2.42ZM370,262.11V248.45l22.77,2.2h0l5.65.55v13.42Zm1.14-13.89V240.3l6.36.69v7.89Zm6.56.68V241l.36,0v7.89Zm.55.06v-7.89l.35,0V249Zm.54,0v-7.88l6,.64v7.86Zm6.17.64v-7.86l.33,0v7.85Zm.53,0v-7.85l.35,0v7.85Zm.54.06v-7.85l6.09.66,0,7.82Zm6.29-7.17.37,0v7.81l-.33,0Zm3.43,8.15-2.86-.28v-7.92a.11.11,0,0,0-.09-.1l-21.75-2.35a.11.11,0,0,0-.08,0,.09.09,0,0,0,0,.07v8.12s0,0,0,0l-1-.1h0l-.36,0V239.4L394.33,242h0l1.41-.1Zm-1.41-9-24.87-2.58h0l-34,2.82-2.44-.27,36.86-3,27.52,2.83ZM370,238.53V224.88L398.44,228v13.42Zm1.14-13.72v-7.94l6.37.73v7.92Zm6.56.73v-7.92l.37,0v7.92Zm.56.06v-7.92l.33,0v7.92Zm.53.06v-7.92l6,.69v7.89Zm6.17.68v-7.89l.33,0v7.89Zm.52.06v-7.89l.33,0v7.89Zm.52.06v-7.89l6.13.7v7.87Zm6.32.7v-7.87l.37,0v7.87Zm3.41.38-2.84-.32v-8a.11.11,0,0,0-.09-.1l-21.75-2.49-.08,0a.11.11,0,0,0,0,.08v8l-1-.12h0l-.36,0v-8.77l24.81,3h0l1.37-.11Zm-1.37-8.84-24.88-3h0l-34,3.22-2.53-.31,37-3.51,27.64,3.33ZM370,214.94V201.29l28.43,3.65v13.42Zm7.5-20.6v7.72l-6.35-.82v-7.76Zm-6.35-1.05h0l3,.41Zm6.55,8.79v-7.75l.36-.07v7.87Zm.56.07v-7.9l.34,0v7.91Zm.53.07v-7.71l6,.77V203ZM385,203v-7.73l.34-.05v7.83Zm.54.07v-7.85l.32.05v7.84Zm.52.07v-7.7l6.12.81v7.68Zm6.31.81v-7.69l.39,0V204Zm3.43.44-2.85-.36v-7.91a.11.11,0,0,0-.08-.1l-21.75-3a.11.11,0,0,0-.08,0,.08.08,0,0,0,0,.07v8l-1-.13h0l-.36,0v-8.66l24.85,3.3h0l1.35-.14Zm-1.36-8.84-24.91-3.31h0l-34,3.6-2.56-.29,37-4,27.78,3.67ZM370,191.37V177.72l28.43,4v13.42Zm7.48-20.32v7.52l-6.35-.89V170.1Zm-2.35-.55,2.49.36h-.05Zm2.55,8.09V171l.38-.08v7.69Zm.57.09V171l.35.05v7.72Zm.54.07v-7.56l5.95.87v7.52Zm6.14.86v-7.56l.37-.07v7.68Zm.56.08V172l.34.05v7.71Zm6.62-6.56v7.49l-6.09-.86v-7.52Zm-3.29-.68,3.42.49h0Zm3.49,8.2v-7.52l.36-.08v7.65Zm3.43.48-2.88-.41v-7.8a.1.1,0,0,0-.08-.1l-21.73-3.1-.08,0a.12.12,0,0,0,0,.08v7.83l-1-.14h0l-.36,0V169l24.84,3.65h0l1.34-.16Zm-1.36-8.69-24.9-3.66h0l-34,4-2.68-.4,37.13-4.4,27.89,4ZM370,167.78V154.13l28.43,4.36v13.42Zm7.52-20.14v7.45l-6.38-1V146.6Zm-6.38-1.24h0l6.53,1.05h-.06Zm6.58,8.72v-7.49l.36-.09v7.63Zm.55.08v-7.66l.34.05v7.66Zm6.48-6.42v7.41l-5.95-.91v-7.45Zm-5.95-1.15h0l6.08,1h0Zm6.15,8.59v-7.44l.35-.08v7.58Zm.55.09v-7.62l.32.05v7.62Zm6.64-6.33v7.35l-6.12-.94V149ZM386,148.79h0l6.27,1h-.06Zm6.31,8.57V150l.36-.09v7.53Zm3.4.52-2.84-.44v-7.68a.11.11,0,0,0-.09-.1l-21.74-3.48-.08,0a.11.11,0,0,0,0,.08v7.8l-1-.16h0l-.36,0v-8.47l24.82,4h0l1.35-.16Zm-1.36-8.57-24.89-4h0l-34,4.37-2.71-.4,37.16-4.84,27.91,4.49ZM370,144.24V130.59l28.43,4.8v13.43Zm7.53-20v7.4l-6.38-1.08v-7.43ZM371.16,123v0l6.46,1.14h0Zm6.58,8.74v-7.44l.34-.06v7.56Zm.53.09V124.2l.35.06v7.59Zm6.48-6.22v7.32l-5.94-1v-7.39Zm-5.7-1.23,5.85,1h0Zm5.9,8.58v-7.36l.35-.08V133Zm.55.09v-7.53l.32.06v7.53Zm.52.09v-7.37l6.11,1.09v7.31Zm6.31,1.06v-7.33l.35,0v7.45Zm3.42.58-2.87-.48v-7.59a.09.09,0,0,0-.08-.09l-21.72-3.86-.08,0a.08.08,0,0,0,0,.07v7.74l-1-.18h0l-.36.05V122l24.8,4.38h0l1.38-.16Zm-1.39-8.54-24.87-4.39s0,0,0,0l-34,4.77-2.78-.44,37.21-5.28,27.95,4.93ZM370,120.67V107l28.43,5.25v13.41Zm7.5-19.74v7.28L371.15,107V99.71Zm-6.36-1.41h0l6.52,1.23h-.06Zm6.55,8.72v-7.31l.37-.08v7.46Zm.57.11v-7.5l.34.06v7.5Zm6.51-6v7.23l-6-1.1v-7.27Zm-6-1.34v0l6.16,1.16-.11,0Zm6.17,8.6v-7.27l.34-.09v7.43Zm.54.1v-7.47l.32.06v7.47Zm6.64-6v7.24L386,109.78v-7.26ZM386,102.33v0l6.27,1.18h0Zm6.31,8.61v-7.26l.35-.08V111Zm3.41.63-2.86-.53v-7.56a.1.1,0,0,0-.08-.1L385.43,102h0l-14.36-2.7a.08.08,0,0,0-.08,0,.1.1,0,0,0,0,.07V107l-1-.19h0l-.36,0V98.55l24.87,4.73h0l1.31-.18Zm-1.32-8.49-24.94-4.74h0l-34,5.16-2.85-.54,37.29-5.71,28,5.36Zm-24.42-6V83.42l28.43,5.67v13.42Zm-.5-22.22h0l-34,5.51-2.83-.49,37.29-6.18,29.23,6-3.33.51Zm.68-56.44,1-.05V38l-1-.22Zm-.93,19.31L396.81,44V65.38l-26.87-5.74h0l-.64.11Zm.56,22.13V73.5l-37.68,6.25V66.3ZM363.67.26,365.26.2v38l-1.59.29Zm5.39,37.45V59.79L338.48,65V43.26Zm-41.75,1L339,41.32V43l-.61.11a.09.09,0,0,0-.08.09v1.33l-11,2Zm11,6V65.05l-.56.1V59.86a.07.07,0,0,0,0-.07.11.11,0,0,0-.07,0L330.45,61a.11.11,0,0,0-.08.1v7.31a.1.1,0,0,0,0,.07.07.07,0,0,0,.06,0h0l1.46-.27v5.27l-5.51,1V46.85Zm-7.45,16.64v6.92l-.27,0V61.26ZM293.74,407V51.4l29-5.23,0,196.59,0,164.27Zm32.51,0H323l0-190.45,0-170.4,3.36.67ZM322.81,46h0l-11.23,2V41.63l15.57-2.9v7.8l-.77.14ZM335.31,407h-8.87V74.68l5.51-1v6.09l-.5.11a.1.1,0,0,0-.08.1h0V374.11a.09.09,0,0,0,.1.1H332v6.36a.09.09,0,0,0,0,.07.07.07,0,0,0,.06,0h0l3.27-.05Zm34,0H335.5V380.62l33.85-.49Zm26.4,0H369.54v-26.9h.37l25.84.47Zm3.86,0H396V380.6l2.58,0s.06,0,.07,0a.11.11,0,0,0,0-.07V366.93a.11.11,0,0,0-.09-.1l-2.59-.06V357.5l2.59,0h0a.07.07,0,0,0,.06,0,.08.08,0,0,0,0-.07V343.76a.1.1,0,0,0-.09-.1l-2.59-.1v-9.14l2.59-.1h0a.07.07,0,0,0,.06,0,.09.09,0,0,0,0-.07V320.61a.09.09,0,0,0-.09-.1l-2.61-.14v-9.09l2.61-.11h0a.07.07,0,0,0,.06,0,.09.09,0,0,0,0-.07V297.46a.09.09,0,0,0-.09-.1l-2.62-.18v-9l2.62-.16h0l.06,0a.11.11,0,0,0,0-.08V274.29a.11.11,0,0,0-.09-.1L396,274v-9l2.59-.18h0a.07.07,0,0,0,.06,0,.09.09,0,0,0,0-.07V251.11a.09.09,0,0,0-.09-.1l-2.58-.25v-8.91l2.58-.19h0l.06,0a.08.08,0,0,0,0-.07V227.94a.08.08,0,0,0-.08-.09l-2.61-.29v-8.79l2.6-.2h0l.06,0a.11.11,0,0,0,0-.08V204.86a.1.1,0,0,0-.08-.1l-2.6-.33v-8.84l2.59-.26h0l.06,0a.11.11,0,0,0,0-.08V181.62a.1.1,0,0,0-.08-.1l-2.6-.37v-8.71l2.6-.32h0l.05,0a.11.11,0,0,0,0-.08V158.41a.1.1,0,0,0-.08-.1l-2.61-.4v-8.58l2.61-.3h0a.06.06,0,0,0,.05,0,.08.08,0,0,0,0-.07V135.31a.09.09,0,0,0-.08-.09l-2.6-.44v-8.57l2.6-.31h0l.05,0a.08.08,0,0,0,0-.07V112.18a.09.09,0,0,0-.08-.09l-2.61-.48v-8.54l2.61-.35h0l.05,0a.09.09,0,0,0,0-.07V89a.1.1,0,0,0-.08-.1l-2.62-.52v-8l3.68-.56Zm9.77,0h-9.57V79.84l9.57,2Zm21.4,0h-21.2V380.86h1l20.2.33Zm6.21,0h-6V381.2l6,.1Zm4.7,0h-4.51V381.31h.71a.11.11,0,0,0,.07,0,.14.14,0,0,0,0-.07v-13.3a.09.09,0,0,0-.09-.1l-.71,0v-9.07l.71,0h0a.11.11,0,0,0,.07,0,.14.14,0,0,0,0-.07v-13.3a.1.1,0,0,0-.09-.1l-.72,0v-9l.72,0h0a.07.07,0,0,0,.06,0,.09.09,0,0,0,0-.07v-13.3a.1.1,0,0,0-.09-.1l-.72,0v-9l.72,0h0a.06.06,0,0,0,.06,0,.09.09,0,0,0,0-.07v-13.3a.09.09,0,0,0-.09-.1l-.74,0v-9l.74,0h0a.06.06,0,0,0,.06,0,.08.08,0,0,0,0-.07v-13.3a.1.1,0,0,0-.08-.1l-.76-.06v-9l.75,0h0s.05,0,.06,0a.09.09,0,0,0,0-.07V255a.09.09,0,0,0-.08-.1l-.74-.07v-9l.73-.06h0l.06,0a.11.11,0,0,0,0-.07V232.36a.08.08,0,0,0-.08-.09l-.74-.09v-8.93l.74-.06h0a.05.05,0,0,0,.05,0,.08.08,0,0,0,0-.07v-13.3a.1.1,0,0,0-.08-.1l-.73-.09v-8.92l.73-.07h0s0,0,.05,0a.09.09,0,0,0,0-.07v-13.3a.1.1,0,0,0-.08-.1l-.74-.11v-8.92l.74-.09h0l.05,0a.11.11,0,0,0,0-.07V164.59a.08.08,0,0,0-.08-.09l-.74-.12v-8.87l.74-.09h0l.05,0a.09.09,0,0,0,0-.07V142a.09.09,0,0,0-.08-.09l-.74-.13v-8.89l.74-.09h0s0,0,.05,0a.08.08,0,0,0,0-.07v-13.3a.1.1,0,0,0-.08-.1l-.74-.14v-8.85l.74-.1h0l.05,0a.11.11,0,0,0,0-.07v-9.78l2.12.49a0,0,0,0,0,0,0L469,96.6v7.8l-1.5.21V97.35a.11.11,0,0,0,0-.08l-.08,0-23.84,3.44a.11.11,0,0,0-.09.1V108l-5.15.73a.1.1,0,0,0-.08.1v12.78a.09.09,0,0,0,0,.07.11.11,0,0,0,.08,0h.06l3.11.58h0L469,118.59v7.83l-1.5.19v-7.32a.09.09,0,0,0,0-.07.07.07,0,0,0-.07,0l-15.76,2.09h0l-8.09,1.08a.09.09,0,0,0-.09.09v7.29l-5.15.67a.1.1,0,0,0-.08.1V143.3a.09.09,0,0,0,0,.07.07.07,0,0,0,.07,0h.07l3.11.58h0L469,140.52v7.93l-1.51.18v-7.41a.09.09,0,0,0,0-.07.06.06,0,0,0-.07,0l-7.82,1h0l-16,2a.09.09,0,0,0-.09.09v7.37l-5.15.63a.09.09,0,0,0-.08.1v12.78a.11.11,0,0,0,0,.07.07.07,0,0,0,.07,0h.08l3.1.54h0L469,162.49v8l-1.51.17v-7.5a.1.1,0,0,0-.1-.1l-23.85,2.7a.11.11,0,0,0-.09.1v7.47l-5.15.57a.09.09,0,0,0-.08.1V186.8a.11.11,0,0,0,0,.07.07.07,0,0,0,.07,0h.09l3.09.46h0L469,184.46v8.09l-1.48.15v-7.54a.11.11,0,0,0,0-.07.06.06,0,0,0-.07,0l-23.85,2.48a.11.11,0,0,0-.09.1v7.5l-5.15.53a.08.08,0,0,0-.08.09v12.78a.11.11,0,0,0,0,.08l.07,0h.1l3.08.39h0L469,206.41v8.2l-1.48.13V207.1a.09.09,0,0,0,0-.07.06.06,0,0,0-.07,0l-23.85,2.25a.09.09,0,0,0-.09.09v7.56l-5.15.46a.1.1,0,0,0-.08.1v12.78a.08.08,0,0,0,0,.07.09.09,0,0,0,.07,0h.11l3.07.39h0l27.44-2.3v8.21l-1.49.12a.07.07,0,0,0,0,0v-7.63a.11.11,0,0,0,0-.07.06.06,0,0,0-.07,0l-23.85,1.95a.1.1,0,0,0-.09.1v7.54a.1.1,0,0,0,.1.1h0l12-.94-17.25,1.4a.11.11,0,0,0-.09.1V252a.1.1,0,0,0,.1.1h.13l3.06.31h0L469,250.35v8.31l-30.69,2.15a.1.1,0,0,0-.09.1v12.78a.11.11,0,0,0,0,.07.09.09,0,0,0,.07,0h.14l3.05.31h0L469,272.38v8.35l-30.69,1.82a.11.11,0,0,0-.09.1v12.78a.1.1,0,0,0,.1.1h.16l3,.28h0L469,294.29v8.48l-30.69,1.51a.09.09,0,0,0-.09.09v12.78a.11.11,0,0,0,0,.08l.07,0h.2l3,.23h0L469,316.34v8.46L438.31,326a.1.1,0,0,0-.09.1V338.9a.11.11,0,0,0,0,.07.09.09,0,0,0,.07,0h.3l2.9.13,27.48-.88v8.61l-30.69.89a.09.09,0,0,0-.09.1v12.78a.11.11,0,0,0,0,.07l.07,0h.4l2.8.11,27.48-.59v8.62l-30.69.62a.1.1,0,0,0-.09.1v12.78a.09.09,0,0,0,0,.07.07.07,0,0,0,.06,0l3.38-.05ZM452,230.54v7.28l-.25,0v-7.35Zm-.44-.06v7.37l-.4,0v-7.38Zm-.6.18v7.24l-6.87.54v-7.2Zm-7.06.56v7.23l-.23,0v-7.31ZM469,407H441.89V382.39L469,382Zm26.79,0h-26.6V382h.59l26,.49Zm4.36,0H496V382.46l3.56.07h0a.11.11,0,0,0,.07,0,.07.07,0,0,0,0-.06l.06-12.69a.09.09,0,0,0-.1-.1l-3.62-.1V361l3.56-.12h0l.07,0a.11.11,0,0,0,0-.07l.06-12.69a.11.11,0,0,0-.1-.1l-3.62-.14v-8.45l3.56-.17h0a.1.1,0,0,0,.1-.1l.06-12.69a.09.09,0,0,0-.09-.09l-3.63-.2v-8.32l3.56-.17h0s0,0,.07,0a.09.09,0,0,0,0-.07l.06-12.69a.11.11,0,0,0-.09-.1l-3.63-.25v-8.26l3.57-.24h0l.06,0a.08.08,0,0,0,0-.07l.06-12.69a.1.1,0,0,0-.09-.09l-3.64-.31v-8.21l3.58-.24h0l.06,0a.11.11,0,0,0,0-.07l.06-12.69a.11.11,0,0,0-.09-.1l-3.63-.35V253l3.57-.27h0l.05,0a.1.1,0,0,0,0-.07L499.7,240a.11.11,0,0,0-.09-.1l-3.63-.4v-8l3.57-.27h0l.05,0a.13.13,0,0,0,0-.07l.06-12.69a.11.11,0,0,0-.09-.1l-3.63-.46v-8l3.63-.33h0l.05,0a.08.08,0,0,0,0-.07V196.76a.11.11,0,0,0-.09-.1l-3.63-.51v-7.84l3.63-.36h0l.05,0a.09.09,0,0,0,0-.07V175.14a.11.11,0,0,0-.08-.1l-3.66-.57v-7.72l3.65-.43h0l.05,0a.09.09,0,0,0,0-.08V153.5a.09.09,0,0,0-.08-.09l-3.64-.62v-7.61l3.63-.43h0l.05,0a.09.09,0,0,0,0-.08V131.93a.11.11,0,0,0-.08-.09l-3.64-.68v-7.58l3.63-.49h0l.05,0a.09.09,0,0,0,0-.08V110.27a.11.11,0,0,0-.08-.09l-3.64-.72V102l3.64-.53h0l.05,0a.09.09,0,0,0,0-.07V91.27l.42.1h0Zm3.18,0h-3V91.35l3-.42Zm22.87,0H503.52V90.94l22.68,4.75Zm23.13-252.2a1.73,1.73,0,0,1-.38,0h-.16l-.2,0h0a3,3,0,0,1-2-3.11,3.74,3.74,0,0,1,2.75-3.78l.29,0h.17l.2,0a3,3,0,0,1,2.06,3.05A3.76,3.76,0,0,1,549.33,154.83Zm.29.13a4,4,0,0,0,2.66-3.94,3.47,3.47,0,0,0-1.38-2.89,3.08,3.08,0,0,1,1.79,3,3.75,3.75,0,0,1-2.75,3.81A1.87,1.87,0,0,1,549.62,155Zm.61.08v7.47l-.39,0v-7.41l.14,0Zm-8.47.72a2.58,2.58,0,0,1-1.8,2.6,2.86,2.86,0,0,0,1.58-2.66,2.53,2.53,0,0,0-.77-1.89A2.2,2.2,0,0,1,541.76,155.76Zm-1.48,2.7v5.14l-.32,0v-5.07A1.7,1.7,0,0,0,540.28,158.46Zm-1-7.14a2.2,2.2,0,0,1-.5.06h-.21l-.25,0h0c-1.44-.3-2.54-2-2.54-4,0-2.39,1.59-4.58,3.53-4.88a2.43,2.43,0,0,1,.38,0l.22,0,.26,0c1.49.3,2.64,2,2.64,3.95A4.84,4.84,0,0,1,539.29,151.32Zm.15.16a5,5,0,0,0,3.58-5.09,4.38,4.38,0,0,0-1.92-3.8,3.89,3.89,0,0,1,2.49,3.92,4.84,4.84,0,0,1-3.53,4.92A2.17,2.17,0,0,1,539.44,151.48Zm.85.09v1.88l-.31,0h0v-1.75l.13,0Zm-.82,6.75-.26,0h-.11l-.14,0h0a2.06,2.06,0,0,1-1.33-2.13,2.56,2.56,0,0,1,1.87-2.6l.2,0h.12l.13,0a2,2,0,0,1,1.4,2.1A2.59,2.59,0,0,1,539.47,158.32ZM529.3,407h-2.91V187.89l2.91.48Zm30.05,0H529.49V336.9l29.86-1Zm0-71.29-29.86,1V279.62l29.86-1.76Zm0-58.08-29.86,1.77V222.28l29.86-2.55Zm0-58.13-29.86,2.56v-33.8a.1.1,0,0,0-.08-.1l-3-.5V165.32l33-3.61ZM583.71,407H559.55V375.55l24.16.57Zm0-31.11-24.16-.56V343.31l24.16,1.11Zm0-31.69-24.16-1.11V311.05l24.16,1.65Zm0-31.73-24.16-1.64v-32L583.71,281Zm0-31.68-24.16-2.19V246.57l24.16,2.73Zm0-31.72-24.16-2.73v-32l24.16,3.25Zm0-31.7-24.16-3.25v-32l24.16,3.79ZM588.81,407h-4.9V376.12l4.9.12Zm0-31-4.9-.11v-31.5l4.9.23Zm0-31.58-4.9-.22V312.71l4.9.33Zm0-31.61-4.9-.33V281l4.9.44Zm0-31.57-4.9-.45V249.32l4.9.55Zm0-31.61-4.9-.55v-31.5l4.9.66Zm0-31.58-4.9-.66v-31.5l4.9.77ZM612.08,407H589V376.24l23.07.54Zm0-30.44L589,376.05V344.67l23.07,1.06Zm0-31.06L589,344.47V313.06l23.07,1.57Zm0-31.09L589,312.86V281.49l23.07,2.08Zm0-31.06L589,281.29v-31.4l23.07,2.61Zm0-31.08L589,249.7V218.31l23.07,3.11Zm0-31.08L589,218.11V186.73l23.07,3.62Zm0-31.07-52.53-8.24V161.72l52.53,9ZM640.61,407H612.28V270l28.33-1.75ZM695,407H640.8V268.3l54.2,5.62Z"/><path class="cls-1" d="M337.45,366.35h0l29.34-.67a.09.09,0,0,0,.09-.1v-8.15a.08.08,0,0,0,0-.07.09.09,0,0,0-.07,0l-29.34.75a.09.09,0,0,0-.09.1v8.07a.09.09,0,0,0,0,.07A.07.07,0,0,0,337.45,366.35ZM360,357.7l6.66-.18v8l-6.66.15Zm-.54,0h.35v7.94h-.35Zm-.6,0,.41,0v7.94h-.41Zm-7,.17,6.78-.17v7.94l-6.78.15Zm-.47,0h.27v7.92h-.27Zm-.59,0h.39v7.92h-.39Zm-6.8.18,6.6-.17v7.91l-6.6.15Zm-.49,0h.29V366h-.29Zm-.61,0h.41V366H343Zm-4.91.13,4.71-.12V366l-4.71.11Zm-.51,0h.32v7.88h-.32Z"/><path class="cls-1" d="M392.81,358l-21.76-.69a.11.11,0,0,0-.08,0,.08.08,0,0,0,0,.07v8.1a.1.1,0,0,0,.1.1l21.76.65h0a.1.1,0,0,0,.1-.1v-8.06A.1.1,0,0,0,392.81,358Zm-15.28,7.61-6.39-.19v-7.91l6.39.2Zm.53,0h-.33v-7.89h.33Zm.55,0h-.36v-7.9l.36,0Zm6.16.18-6-.17v-7.9l6,.19Zm.54,0H385V358h.35Zm.55,0h-.36V358l.36,0Zm6.27.18-6.08-.18V358l6.08.2Zm.57,0h-.37V358.2h.37Z"/><path class="cls-1" d="M366.76,333.88l-29.3,1.1a.11.11,0,0,0-.09.1v8a.11.11,0,0,0,0,.07l.07,0h0l29.29-.91a.09.09,0,0,0,.1-.1V334a.09.09,0,0,0,0-.07A.11.11,0,0,0,366.76,333.88ZM337.87,343h-.31v-7.8l.31,0Zm4.87-.16-4.68.15v-7.8l4.68-.18Zm.64,0-.44,0V335h.44Zm.49,0h-.3V335h.3Zm6.76-.21-6.57.2v-7.84l6.57-.24Zm.62,0h-.42v-7.88l.42,0Zm.49,0h-.29v-7.89h.29Zm7-.21-6.79.21v-7.89l6.79-.26Zm.63,0h-.43v-7.94h.43Zm.49,0h-.3v-7.94h.3Zm6.82-.21-6.62.21v-7.95l6.62-.25Z"/><path class="cls-1" d="M392.8,334.89l-21.75-1a.11.11,0,0,0-.07,0,.09.09,0,0,0,0,.07v8.12a.11.11,0,0,0,.1.1l21.74.91h0a.07.07,0,0,0,.06,0,.1.1,0,0,0,0-.07v-8A.1.1,0,0,0,392.8,334.89Zm-15.24,7.38-6.41-.26v-7.93l6.41.3Zm.49,0-.3,0v-7.89h.3Zm.56,0-.36,0v-7.89l.36,0Zm6.17.26-6-.25v-7.89l6,.27Zm.52,0H385v-7.87l.33,0Zm.52,0h-.32v-7.86h.32Zm6.33.27-6.14-.26v-7.86l6.14.29Zm.55,0-.35,0v-7.82h.35Z"/><path class="cls-1" d="M366.76,310.45l-29.3,1.41a.11.11,0,0,0-.09.1v8a.11.11,0,0,0,0,.07l.07,0h0l29.29-1.22a.09.09,0,0,0,.1-.09v-8.19a.09.09,0,0,0,0-.07A.11.11,0,0,0,366.76,310.45Zm-28.88,9.39h-.32v-7.8h.32Zm4.89-.2-4.69.19V312l4.69-.23Zm.58,0-.38,0v-7.84h.38Zm.54,0h-.34v-7.83l.34,0Zm6.76-.28-6.57.27v-7.84l6.57-.32Zm.58,0h-.39v-7.89l.39,0Zm.53,0-.33,0v-7.89l.33,0Zm7-.29-6.79.28v-7.89l6.79-.32Zm.61,0h-.42V311l.42,0Zm.47,0h-.28V311l.28,0Zm6.84-.29-6.65.28V311l6.65-.32Z"/><path class="cls-1" d="M392.8,311.77l-21.74-1.32a.11.11,0,0,0-.08,0,.09.09,0,0,0,0,.07v8.12a.11.11,0,0,0,.09.1L392.79,320h0a.07.07,0,0,0,.06,0,.1.1,0,0,0,0-.07v-8A.1.1,0,0,0,392.8,311.77Zm-15.25,7.17-6.4-.36v-7.93l6.4.39Zm.52,0-.32,0v-7.9l.32,0Zm.53,0-.34,0v-7.9l.34,0Zm6.18.34-6-.33v-7.89l6,.36Zm.51,0-.32,0v-7.86l.32,0Zm.53,0-.33,0v-7.86l.33,0Zm6.3.35-6.1-.34v-7.86l6.1.37Zm.58,0-.39,0v-7.83l.39,0Z"/><path class="cls-1" d="M366.76,287l-29.3,1.81a.11.11,0,0,0-.09.1v8a.11.11,0,0,0,0,.07l.07,0h0l29.3-1.62a.11.11,0,0,0,.09-.1v-8.19a.11.11,0,0,0,0-.07A.07.07,0,0,0,366.76,287Zm-28.89,9.78-.31,0V289l.31,0Zm4.92-.27-4.72.26V289l4.72-.29Zm.59,0-.39,0v-7.83l.39,0Zm.49,0-.3,0v-7.84l.3,0Zm6.77-.38-6.58.37v-7.84l6.58-.41Zm.6,0-.4,0v-7.88l.4,0Zm.5,0h-.3v-7.89l.3,0Zm7-.39-6.81.37v-7.89l6.81-.42Zm.59,0-.39,0v-7.93l.39,0Zm.48,0h-.28v-7.94l.28,0Zm6.84-.38-6.65.36v-7.94l6.65-.41Z"/><path class="cls-1" d="M392.81,288.7,371.06,287a.08.08,0,0,0-.08,0,.11.11,0,0,0,0,.07v8.12a.1.1,0,0,0,.09.1l21.75,1.63h0a.07.07,0,0,0,.06,0,.1.1,0,0,0,0-.07v-8A.1.1,0,0,0,392.81,288.7Zm-15.25,6.88-6.41-.48v-7.92l6.41.51Zm.51,0-.32,0v-7.9l.32,0Zm.54,0-.35,0v-7.9l.35,0Zm6.15.46-5.95-.44v-7.89l5.95.47Zm.54,0-.34,0v-7.86l.34,0Zm.52,0-.32,0v-7.86l.32,0Zm6.29.47-6.09-.46v-7.85l6.09.48Zm.59,0-.4,0v-7.82l.4,0Z"/><path class="cls-1" d="M366.75,263.54l-29.29,2.16a.11.11,0,0,0-.09.1v8a.11.11,0,0,0,0,.08l.07,0h0l29.3-2a.09.09,0,0,0,.09-.1v-8.18a.09.09,0,0,0,0-.07A.11.11,0,0,0,366.75,263.54Zm-28.86,10.13-.33,0v-7.8l.33,0Zm4.89-.33-4.69.31v-7.8l4.69-.34Zm.6,0-.4,0v-7.84l.4,0Zm.49,0-.3,0v-7.84l.3,0Zm6.81-.46-6.62.44v-7.84l6.62-.49Zm.58,0-.39,0v-7.88l.39,0Zm.47,0h-.27v-7.88l.27,0Zm7-.47-6.81.45v-7.89l6.81-.5Zm.59,0-.39,0v-7.94l.39,0Zm.49,0-.29,0v-7.94l.29,0Zm6.84-.46-6.65.45v-7.95l6.65-.49Z"/><path class="cls-1" d="M366.75,240.09l-29.29,2.45a.09.09,0,0,0-.09.09v8a.11.11,0,0,0,0,.07.09.09,0,0,0,.07,0h0l29.3-2.26a.09.09,0,0,0,.09-.1v-8.18a.09.09,0,0,0,0-.07A.11.11,0,0,0,366.75,240.09ZM337.87,250.5l-.31,0v-7.8l.31,0Zm4.9-.38-4.71.36v-7.8l4.71-.39Zm.62-.05-.43,0v-7.84l.43,0Zm.47,0-.28,0v-7.84l.28,0Zm6.82-.53-6.63.51v-7.84l6.63-.55Zm.57,0-.37,0v-7.89l.37,0Zm.48,0-.28,0v-7.88l.28,0Zm7-.53-6.78.52v-7.89l6.78-.57Zm.62-.05-.42,0v-7.94l.42,0Zm.5,0-.31,0v-7.94l.31,0Zm6.83-.52-6.64.51v-8l6.64-.55Z"/><path class="cls-1" d="M443.55,369h0l23.85-.42a.1.1,0,0,0,.09-.1v-7.62a.14.14,0,0,0,0-.07.11.11,0,0,0-.07,0l-23.85.5a.1.1,0,0,0-.1.1v7.54a.1.1,0,0,0,.1.1Zm16.56-7.89,7.19-.15v7.43l-7.19.12Zm-.42,0h.23v7.41h-.23Zm-.6,0h.4v7.4h-.4Zm-6.89.15,6.7-.15v7.4l-6.7.12Zm-.45,0H452v7.38h-.25Zm-.57,0h.38v7.37h-.38Zm-7.11.15,6.92-.15v7.37l-6.92.13Zm-.42,0h.23v7.35h-.23Z"/><path class="cls-1" d="M471.19,368.52l23.07.59h0a.1.1,0,0,0,.1-.1v-7.46a.09.09,0,0,0-.1-.09l-23.06-.75a.08.08,0,0,0-.07,0,.09.09,0,0,0,0,.07v7.61A.1.1,0,0,0,471.19,368.52Zm22.67-6.88h.3v7.26h-.3Zm-3.72-.12,3.53.11v7.27l-3.53-.09Zm-.47,0h.27v7.29h-.27Zm-.55,0h.35v7.29h-.35Zm-5.18-.17,5,.16v7.3l-5-.13Zm-.47,0h.27v7.34h-.27Zm-.52,0h.32v7.33H483Zm-5.39-.18,5.2.17v7.34l-5.2-.13Zm-.49,0h.29v7.38h-.29Zm-.52,0h.33v7.38h-.33Zm-5.26-.17,5.07.16v7.39l-5.07-.13Z"/><path class="cls-1" d="M443.55,347.24h0l23.85-.65a.09.09,0,0,0,.09-.09v-7.63a.19.19,0,0,0,0-.07.11.11,0,0,0-.07,0l-23.85.73a.11.11,0,0,0-.1.1v7.54a.11.11,0,0,0,0,.08Zm16.54-8.05,7.21-.22v7.43l-7.21.2Zm-.42,0h.22v7.4h-.22Zm-.57,0h.38v7.4h-.38Zm-6.92.22,6.72-.21v7.4l-6.72.18Zm-.42,0H452v7.38h-.23Zm-.6,0,.41,0v7.38h-.41Zm-7.08.21,6.89-.21v7.38l-6.89.18Zm-.43,0h.23V347h-.23Z"/><path class="cls-1" d="M471.19,346.58l23.07.92h0a.1.1,0,0,0,.1-.1v-7.46a.09.09,0,0,0-.09-.09l-23.07-1.08a.09.09,0,0,0-.07,0,.11.11,0,0,0,0,.07v7.62A.09.09,0,0,0,471.19,346.58ZM493.86,340l.3,0v7.26h-.3Zm-3.74-.17,3.55.16v7.27l-3.55-.14Zm-.45,0h.25v7.29h-.25Zm-.54,0,.35,0v7.29h-.35Zm-5.19-.24,5,.23v7.3l-5-.2Zm-.49,0h.29v7.34l-.29,0Zm-.53,0h.33v7.34l-.33,0Zm-5.39-.26,5.2.25v7.34l-5.2-.21Zm-.44,0h.25v7.38h-.25Zm-.54,0h.34v7.38h-.34Zm-5.26-.25,5.06.24v7.38l-5.06-.2Z"/><path class="cls-1" d="M443.55,325.51h0l23.85-.86a.1.1,0,0,0,.09-.1v-7.62a.14.14,0,0,0,0-.07.11.11,0,0,0-.08,0l-23.84.95a.09.09,0,0,0-.1.09v7.55a.11.11,0,0,0,0,.07Zm16.55-8.2,7.2-.28v7.43l-7.2.26Zm-.43,0h.24v7.41h-.24Zm-.56,0h.37v7.4l-.37,0Zm-6.91.28,6.71-.27v7.4l-6.71.25Zm-.46,0H452V325h-.26Zm-.58,0,.38,0V325h-.38Zm-7.07.28,6.87-.27v7.37l-6.87.25Zm-.44,0h.25v7.35h-.25Z"/><path class="cls-1" d="M471.19,324.64l23.07,1.25h0a.1.1,0,0,0,.1-.1v-7.46a.09.09,0,0,0-.09-.09l-23.07-1.41a.09.09,0,0,0-.07,0,.08.08,0,0,0,0,.07v7.61A.1.1,0,0,0,471.19,324.64Zm22.69-6.23.28,0v7.26l-.28,0Zm-3.75-.23,3.55.22v7.26l-3.55-.19Zm-.47,0,.27,0v7.29l-.27,0Zm-.52,0,.33,0v7.29h-.33Zm-5.2-.32,5,.31v7.29l-5-.27Zm-.47,0,.27,0v7.33h-.27Zm-.52,0,.33,0v7.34l-.33,0Zm-5.39-.33,5.2.32v7.34l-5.2-.28Zm-.48,0,.28,0v7.38l-.28,0Zm-.53,0,.34,0v7.38l-.34,0Zm-5.26-.32,5.06.31v7.38l-5.06-.27Z"/><path class="cls-1" d="M443.55,303.88h0l23.85-1.19a.09.09,0,0,0,.09-.09V295a.1.1,0,0,0-.1-.1l-23.85,1.27a.1.1,0,0,0-.09.1v7.54a.1.1,0,0,0,.1.1Zm16.55-8.42,7.2-.38v7.42l-7.2.36Zm-.43,0h.24v7.4h-.24Zm-.57,0,.38,0v7.4l-.38,0Zm-6.91.37,6.72-.36v7.4l-6.72.33Zm-.47,0H452v7.37l-.28,0Zm-.57,0,.37,0v7.38l-.37,0Zm-7.08.38,6.89-.37v7.37l-6.89.35Zm-.42,0h.23v7.35h-.23Z"/><path class="cls-1" d="M471.19,302.68l23.06,1.64h0a.09.09,0,0,0,.07,0,.11.11,0,0,0,0-.07v-7.46a.11.11,0,0,0-.09-.1l-23.07-1.79a.1.1,0,0,0-.1.1v7.62A.09.09,0,0,0,471.19,302.68Zm22.66-5.85.31,0v7.26l-.31,0Zm-3.71-.29,3.51.27v7.27l-3.51-.25Zm-.49,0,.29,0v7.29l-.29,0Zm-.51,0,.32,0v7.29l-.32,0Zm-5.22-.4,5,.39v7.29l-5-.35Zm-.48,0,.29,0v7.33l-.29,0Zm-.52,0,.33,0v7.34l-.33,0Zm-5.38-.42,5.19.4v7.34l-5.19-.36Zm-.46,0,.27,0v7.37l-.27,0Zm-.53,0,.34,0v7.38l-.34,0Zm-5.26-.4,5.07.39v7.38l-5.07-.36Z"/><path class="cls-1" d="M443.55,282.12h0l23.85-1.38a.09.09,0,0,0,.09-.09V273a.1.1,0,0,0-.1-.1l-23.85,1.46a.09.09,0,0,0-.09.1V282a.1.1,0,0,0,.1.1Zm16.54-8.55,7.21-.45v7.43l-7.21.42Zm-.43,0h.23V281h-.23Zm-.56,0,.37,0V281l-.37,0Zm-6.92.42,6.72-.41V281l-6.72.38Zm-.45,0H452v7.37l-.26,0Zm-.59,0,.39,0v7.37l-.39,0Zm-7,.43,6.84-.42v7.37l-6.9.4Zm-.46,0,.26,0-.06,7.35-.2,0Z"/><path class="cls-1" d="M443.55,260.37h0l23.85-1.62a.1.1,0,0,0,.08-.1V251a.08.08,0,0,0,0-.07.09.09,0,0,0-.07,0l-23.85,1.7a.11.11,0,0,0-.09.1v7.54a.11.11,0,0,0,0,.08Zm16.53-8.6,7.22-.53v7.32l-7.22.49Zm-.4-.06.21,0v7.31l-.21,0Zm-.59,0,.39,0v7.4l-.39,0Zm-6.92.62,6.72-.47v7.26l-6.72.46Zm-.4-.07.2,0v7.29l-.2,0Zm-.61,0,.41,0v7.37l-.41,0Zm-7.09.64,6.89-.5v7.24l-6.89.47Zm-.42-.08.23.06v7.24l-.23,0Z"/><path class="cls-1" d="M471.18,258.74,494.25,261h0a.09.09,0,0,0,.07,0,.08.08,0,0,0,0-.07v-7.45a.1.1,0,0,0-.09-.1l-23.07-2.41-.07,0a.11.11,0,0,0,0,.08v7.61A.1.1,0,0,0,471.18,258.74Zm22.67-5.11.31-.07v7.22l-.31,0Zm-3.74-.4,3.54.41v7.09l-3.54-.34Zm-.45-.18.25,0v7.29l-.25,0Zm-.52.1.32-.08v7.26l-.32,0ZM489,253h0l-.39-.05Zm-5.05-.36,5,.56v7.09l-5-.48Zm-.48-.21.29,0v7.33l-.29,0Zm-.55.1.35-.09v7.3l-.35,0Zm-5.37-.57,5.17.58v7.15l-5.17-.51Zm-.44-.2.24,0v7.37l-.24,0Zm-.56.11.37-.09v7.34l-.37,0Zm-.1-.18h0l-2-.22Zm-5.16-.35,5.06.55v7.18l-5.06-.5Z"/><path class="cls-1" d="M242.27,225.24h0l6.52-.6a.1.1,0,0,0,.09-.1v-3.6a.11.11,0,0,0,0-.08.11.11,0,0,0-.08,0l-6.52.71a.1.1,0,0,0-.09.1v3.49a.1.1,0,0,0,0,.07A.07.07,0,0,0,242.27,225.24Zm6.42-.79-4.85.45v-3l4.85-.49Zm0-3.4v.13l-4.95.5-.47,0Zm-6.32.7,1.27.12v3l-1.27.11Z"/><path class="cls-1" d="M242.29,295.66h0l6.48-.36a.11.11,0,0,0,.09-.1v-3.63a.11.11,0,0,0,0-.07.07.07,0,0,0-.07,0l-6.48.4a.1.1,0,0,0-.1.09v3.59a.08.08,0,0,0,0,.07A.07.07,0,0,0,242.29,295.66Zm6.39-.56-4.82.28v-3.17l4.82-.3Zm0-3.42v0l-4.91.3-.24,0Zm-6.29.4,1.28.13v3.18l-1.28.07Z"/><path class="cls-1" d="M242.27,366.14h0l6.52-.18a.1.1,0,0,0,.09-.1v-3.62a.1.1,0,0,0-.1-.1l-6.51.18a.1.1,0,0,0-.1.1v3.63a.11.11,0,0,0,0,.07Zm1.6-3.67,4.82-.13v3.43l-4.82.13Zm-1.5,0,1.3,0v3.43l-1.3,0Z"/><path class="cls-1" d="M259.83,181.8,271,183.23h0l.06,0a.12.12,0,0,0,0-.08V176a.11.11,0,0,0-.09-.1l-11.15-1.57a.08.08,0,0,0-.08,0,.13.13,0,0,0,0,.07v7.26A.11.11,0,0,0,259.83,181.8ZM270.9,183l-1.14-.14V176.3l1.14-.17Zm-4.58-7.56,4,.56-.65.09-3.34-.49Zm0,.35,3.24.49v6.55l-3.24-.42Zm-1.51-.57,1.31.19v7l-1.31-.17Zm-.2,7-1.17-.15v-6.63l1.17-.2Zm-4.67-7.66,4.13.58-.73.12-3.4-.48Zm0,.42,3.31.46V182l-3.31-.42Z"/><path class="cls-1" d="M259.84,216.05,271,217.3h0l.06,0a.09.09,0,0,0,0-.07v-7.1a.09.09,0,0,0-.08-.1l-11.18-1.35a.11.11,0,0,0-.08,0,.09.09,0,0,0,0,.07V216A.1.1,0,0,0,259.84,216.05Zm11.1,1-1.15-.13v-6.6l1.15-.15Zm-4.63-7.46,4,.47-.58.08-3.38-.39Zm0,.35,3.29.38V217l-3.29-.37Zm-1.53-.54,1.34.16v6.95l-1.34-.15Zm-.2,6.93-1.12-.12v-6.61l1.12-.19ZM260,208.87l4.05.49-.64.11L260,209Zm0,.36,3.31.42v6.59l-3.31-.38Z"/><path class="cls-1" d="M259.79,250.35l11.18,1h0a.07.07,0,0,0,.06,0,.1.1,0,0,0,0-.07v-7.13a.09.09,0,0,0-.09-.09L259.81,243a.11.11,0,0,0-.08,0,.08.08,0,0,0,0,.07v7.18A.1.1,0,0,0,259.79,250.35Zm11.09.82-1.11-.1v-6.61l1.11-.19Zm-4.59-7.37,4,.38-.58.1-3.38-.36Zm0,.32,3.29.35v6.58l-3.29-.3Zm-1.51-.47,1.32.13v6.95l-1.32-.12Zm-.2,6.94-1.14-.1v-6.66l1.14-.17Zm-4.68-7.4,4,.38-.54.08-3.44-.37Zm0,.29,3.35.35v6.64l-3.35-.3Z"/><path class="cls-1" d="M259.84,284.71l11.18.71h0a.09.09,0,0,0,.07,0,.08.08,0,0,0,0-.07v-7.05a.1.1,0,0,0-.09-.1l-11.18-.84a.09.09,0,0,0-.07,0,.08.08,0,0,0,0,.07v7.19A.1.1,0,0,0,259.84,284.71Zm11.09.51-1.21-.08v-6.63l1.21-.13ZM266.3,278l3.68.28-.36,0-3.32-.3Zm0,.22,3.22.29v6.61l-3.22-.2Zm-1.52-.33,1.32.1v6.91l-1.32-.08Zm-.2,6.92-1.12-.07V278l1.12-.14Zm-4.64-7.29,3.74.28-.32,0-3.42-.27Zm0,.25,3.32.26v6.69l-3.32-.21Z"/><path class="cls-1" d="M259.84,319l11.12.54h0a.1.1,0,0,0,.1-.1v-7.06a.1.1,0,0,0-.09-.1l-11.12-.65a.11.11,0,0,0-.07,0,.09.09,0,0,0,0,.07v7.17A.09.09,0,0,0,259.84,319Zm10-6.4,1.05-.11v6.85l-1.05-.05Zm-3.48-.39,3.42.2h0l-3.38-.19Zm0,.21,3.28.18v6.68l-3.28-.16Zm-1.55-.31,1.35.08v6.92l-1.35-.06Zm-.2,6.93-1.14-.06v-6.72l1.14-.14Zm-4.64-7.21,3.62.21-.22,0-3.4-.22Zm0,.22,3.31.21V319l-3.31-.16Z"/><path class="cls-1" d="M259.84,353.28l11.14.29h0a.07.07,0,0,0,.06,0,.08.08,0,0,0,0-.07v-7a.09.09,0,0,0-.09-.09l-11.14-.43a.11.11,0,0,0-.08,0,.15.15,0,0,0,0,.07v7.16A.1.1,0,0,0,259.84,353.28Zm9.94-6.78,1.11,0v6.83l-1.11,0Zm-3.44-.14,3.24.13v6.85l-3.24-.08Zm-1.57-.06,1.37.06v6.89l-1.37,0Zm-1.35-.05,1.16.05v6.91l-1.16,0Zm-3.48-.13,3.29.13v6.92l-3.29-.08Z"/><path class="cls-1" d="M259.83,387.55l11.15.13h0l.06,0a.11.11,0,0,0,0-.07V380.5a.09.09,0,0,0-.09-.1l-11.16-.13a.11.11,0,0,0-.07,0,.08.08,0,0,0,0,.07v7.08A.1.1,0,0,0,259.83,387.55Zm9.93-7h1.13v6.9h-1.13Zm-3.42,0,3.22,0v6.89l-3.22,0Zm-1.56,0,1.36,0v6.89h-1.36Zm-1.34,0h1.14v6.89h-1.14Zm-3.51,0,3.31,0v6.9l-3.31,0Z"/><path class="cls-1" d="M286.72,200.76l2.88.31h0a.1.1,0,0,0,.07,0,.11.11,0,0,0,0-.07V174.43a.11.11,0,0,0-.08-.1l-2.88-.44a.08.08,0,0,0-.08,0,.08.08,0,0,0,0,.07v26.68A.11.11,0,0,0,286.72,200.76Zm2.79.11-.58-.07V174.63l.58-.09Zm-2.68-26.77,2.11.33h-.11l-2-.27Zm0,.27,1.9.26v26.15l-1.9-.21Z"/><path class="cls-1" d="M286.7,234.54l2.87.22h0l.06,0a.13.13,0,0,0,0-.07V208.16a.1.1,0,0,0-.09-.09l-2.87-.39a.11.11,0,0,0-.07,0,.08.08,0,0,0,0,.07v26.66A.11.11,0,0,0,286.7,234.54Zm2.24-26.18.54-.08v26.28l-.54,0Zm-.05-.19h-.05l-1.06-.16Zm-2.08-.1,1.93.29V234.5l-1.93-.15Z"/><path class="cls-1" d="M286.72,268.3l2.88.18h0a.09.09,0,0,0,.07,0,.08.08,0,0,0,0-.07V241.86a.11.11,0,0,0-.09-.1l-2.88-.28a.11.11,0,0,0-.08,0,.09.09,0,0,0,0,.07V268.2A.09.09,0,0,0,286.72,268.3Zm2.19-26.24.6-.09v26.31l-.6,0Zm-2.08-.37,1.41.14-1.41-.12Zm0,.22,1.89.15v26.17l-1.89-.12Z"/><path class="cls-1" d="M286.71,302.1l2.86.15h0a.07.07,0,0,0,.06,0,.1.1,0,0,0,0-.07V275.58a.09.09,0,0,0-.1-.09l-2.86-.2a.11.11,0,0,0-.07,0,.09.09,0,0,0,0,.07V302A.09.09,0,0,0,286.71,302.1Zm2.2-26.33.57-.08v26.36l-.57,0Zm-2.09-.14,1.9.14V302l-1.9-.1Z"/><path class="cls-1" d="M286.71,335.83l2.87.12h0a.08.08,0,0,0,.07,0,.09.09,0,0,0,0-.07V309.32a.09.09,0,0,0-.09-.09l-2.87-.14s-.05,0-.07,0a.11.11,0,0,0,0,.07v26.55A.11.11,0,0,0,286.71,335.83Zm2.22-26.44.56,0v26.33l-.56,0Zm-2.11-.1,1.91.09v26.34l-1.91-.08Z"/><path class="cls-1" d="M286.71,369.55l2.87.11h0a.08.08,0,0,0,.07,0,.09.09,0,0,0,0-.07V343a.09.09,0,0,0-.09-.09l-2.87-.12a.1.1,0,0,0-.1.1v26.53A.09.09,0,0,0,286.71,369.55Zm2.22-26.43.56,0v26.32l-.56,0Zm-2.12-.09,1.92.08v26.32l-1.92-.07Z"/><path class="cls-1" d="M286.71,403.37h2.9a.11.11,0,0,0,.1-.1v-26.5a.1.1,0,0,0-.1-.1l-2.89,0a.11.11,0,0,0-.08,0,.11.11,0,0,0,0,.06v26.55A.1.1,0,0,0,286.71,403.37Zm2.23-26.51h.57v26.3h-.57Zm-2.13,0,1.93,0v26.32h-1.93Z"/><path class="cls-1" d="M547.35,236.88h0l7.08-.47a.11.11,0,0,0,.09-.1V232.9a.15.15,0,0,0,0-.07.13.13,0,0,0-.08,0l-7.08.61a.1.1,0,0,0-.09.1v3.28a.11.11,0,0,0,0,.07Zm7-.66-5.75.38v-2.86l5.75-.45Zm0-3.21v.08l-5.84.47-.22,0Zm-6.88.61.94.12v2.88l-.94.06Z"/><path class="cls-1" d="M547.37,302.84h0l7-.31a.09.09,0,0,0,.09-.09v-3.37a.11.11,0,0,0,0-.08l-.07,0-7,.36a.09.09,0,0,0-.09.09v3.32a.08.08,0,0,0,0,.07A.09.09,0,0,0,547.37,302.84Zm1.23-3.19,5.72-.3v3l-5.72.25Zm0-.19h0Zm-1.1.07.94.12v3l-.94,0Z"/><path class="cls-1" d="M547.38,368.81h0l7-.08a.09.09,0,0,0,.09-.1v-3.38a.09.09,0,0,0,0-.07.08.08,0,0,0-.07,0l-7,.17a.1.1,0,0,0-.09.1v3.29a.1.1,0,0,0,.1.1Zm1.22-3.32,5.71-.14v3.19l-5.71.06Zm-1.13,0,.94,0v3.12h-.94Z"/><path class="cls-1" d="M564.4,196.19l8.64,1.26h0l.07,0a.11.11,0,0,0,0-.08v-6.61a.09.09,0,0,0-.08-.09l-8.64-1.35a.08.08,0,0,0-.08,0,.11.11,0,0,0,0,.07v6.71A.08.08,0,0,0,564.4,196.19Zm8.56,1.05-1.29-.19v-6l1.29-.17Zm-3.48-7,2.89.46-.79.1-2.1-.4Zm0,.35,2,.39v6l-2-.29Zm-1.2-.53,1,.15v6.46l-1-.15Zm-.2,6.43-1.26-.18v-6.07l1.26-.18Zm-3.57-7,3,.47-.79.11-2.22-.37Zm0,.41,2.12.35v6l-2.12-.31Z"/><path class="cls-1" d="M599.4,201.42l8.2,1.19h0l.06,0a.11.11,0,0,0,0-.08V196a.1.1,0,0,0-.08-.1l-8.2-1.28a.08.08,0,0,0-.08,0,.11.11,0,0,0,0,.07v6.63A.1.1,0,0,0,599.4,201.42Zm8.12,1-1.21-.18v-6l1.21-.16Zm-3.29-6.86,2.71.43-.72.09-2-.38Zm0,.34,1.89.36v6l-1.89-.28Zm-1.14-.51.95.15v6.37l-.95-.13Zm-.2,6.36-1.18-.17v-6l1.18-.17Zm-3.38-6.92,2.82.44-.72.1-2.1-.35Zm0,.39,2,.33v6l-2-.29Z"/><path class="cls-1" d="M564.39,228.34l8.64,1h0a.1.1,0,0,0,.1-.1v-6.64a.11.11,0,0,0-.09-.1l-8.64-1.13a.11.11,0,0,0-.08,0,.08.08,0,0,0,0,.07v6.73A.11.11,0,0,0,564.39,228.34Zm8.55.83-1.23-.15v-6.11l1.23-.16Zm-3.47-6.9,2.81.37-.66.09-2.15-.32Zm0,.34,2,.3V229l-2-.25Zm-1.2-.5,1,.13v6.49l-1-.12Zm-.2,6.47-1.24-.14v-6.19l1.24-.14Zm-3.57-7,2.86.37-.63.08-2.23-.29Zm0,.36,2.14.27v6.16l-2.14-.25Z"/><path class="cls-1" d="M599.35,232.77l8.21,1h0a.09.09,0,0,0,.06,0,.08.08,0,0,0,0-.07v-6.52a.09.09,0,0,0-.09-.09l-8.2-1.08-.08,0a.11.11,0,0,0,0,.08v6.61A.08.08,0,0,0,599.35,232.77Zm8.12.78-1.16-.14v-6l1.16-.15Zm-3.29-6.75,2.63.34-.59.08-2-.3Zm0,.32,1.94.28v6l-1.94-.23Zm-1.14-.47,1,.12v6.36l-1-.11Zm-.19,6.35-1.17-.14v-6.08l1.17-.13Zm-3.39-6.82,2.68.35-.56.06-2.12-.26Zm0,.34,2,.26v6.05l-2-.24Z"/><path class="cls-1" d="M564.41,260.41l8.62.89h0a.09.09,0,0,0,.06,0,.09.09,0,0,0,0-.07v-6.6a.1.1,0,0,0-.08-.1l-8.63-1a.06.06,0,0,0-.07,0,.11.11,0,0,0,0,.07v6.69A.1.1,0,0,0,564.41,260.41Zm8.54.68-1.23-.13v-6.13l1.23-.12Zm-3.5-6.8,2.68.3-.5.06-2.18-.27Zm0,.28,2.08.26v6.11l-2.08-.21Zm-1.2-.42,1,.12v6.44l-1-.1Zm-.2,6.44-1.22-.13v-6.15l1.22-.15Zm-3.53-6.86,2.81.32-.6.08-2.21-.26Zm0,.34,2.12.24v6.13l-2.12-.22Z"/><path class="cls-1" d="M599.36,264.08l8.15.84h0l.07,0a.11.11,0,0,0,0-.08v-6.48a.09.09,0,0,0-.09-.09l-8.15-.93-.08,0a.11.11,0,0,0,0,.08V264A.1.1,0,0,0,599.36,264.08Zm8.06.63-1.14-.11v-6l1.14-.12Zm-3.29-6.65,2.48.28-.43,0-2-.25Zm0,.26,2,.25v6l-2-.2Zm-1.14-.39.94.1v6.33l-.94-.1Zm-.19,6.31-1.15-.12v-6.05l1.15-.14Zm-3.33-6.71,2.61.29-.53.07-2.08-.24Zm0,.31,2,.23v6l-2-.2Z"/><path class="cls-1" d="M564.39,292.6l8.66.66h0a.1.1,0,0,0,.1-.1v-6.61a.11.11,0,0,0-.09-.1l-8.66-.81a.09.09,0,0,0-.07,0,.08.08,0,0,0,0,.07v6.76A.11.11,0,0,0,564.39,292.6Zm8.58.45-1.26-.09v-6.2l1.26-.1Zm-3.52-6.74,2.48.23-.31,0-2.17-.22Zm0,.23,2.07.21v6.19l-2.07-.15Zm-1.21-.34,1,.09v6.48l-1-.08Zm-.2,6.48-1.22-.09v-6.25l1.22-.14Zm-3.54-6.84,2.72.26-.49.06-2.23-.22Zm0,.3,2.13.21v6.22l-2.13-.16Z"/><path class="cls-1" d="M599.35,295.4l8.24.63h0l.06,0a.11.11,0,0,0,0-.08v-6.4a.11.11,0,0,0-.09-.1l-8.23-.78a.11.11,0,0,0-.08,0,.15.15,0,0,0,0,.07v6.55A.1.1,0,0,0,599.35,295.4Zm8.15.43-1.19-.09v-6l1.19-.1Zm-3.34-6.53,2.3.22-.24,0-2.06-.21Zm0,.22,2,.2v6l-2-.15Zm-1.15-.33,1,.09v6.28l-1-.08Zm-.19,6.28-1.15-.09v-6.05l1.15-.13Zm-3.36-6.61,2.53.24-.42,0-2.11-.21Zm0,.28,2,.19v6l-2-.16Z"/><path class="cls-1" d="M564.42,324.73l8.61.48h0a.11.11,0,0,0,.07,0,.09.09,0,0,0,0-.07v-6.62a.09.09,0,0,0-.09-.09l-8.61-.57-.07,0a.08.08,0,0,0,0,.08v6.7A.09.09,0,0,0,564.42,324.73Zm7.3-6.05,1.21-.08V325l-1.21-.07Zm-2.27-.16,2.08.16v6.25l-2.08-.11Zm-1.21-.24,1,.06v6.47l-1-.06Zm-1.45.05,1.26-.05v6.46l-1.26-.07Zm-2.27-.11,2.07.11v6.33l-2.07-.12Z"/><path class="cls-1" d="M599.37,326.77l8.17.45h0a.06.06,0,0,0,.06,0,.1.1,0,0,0,0-.07v-6.41a.11.11,0,0,0-.09-.1l-8.17-.54a.11.11,0,0,0-.08,0,.09.09,0,0,0,0,.07v6.5A.11.11,0,0,0,599.37,326.77Zm6.94-5.88,1.14-.08V327l-1.14-.06Zm-2.15-.15,2,.14V327l-2-.11Zm-1.15-.23,1,.06v6.26l-1-.06Zm-1.38.05,1.19-.06v6.26l-1.19-.06Zm-2.15-.11,1.95.11v6.13l-1.95-.11Z"/><path class="cls-1" d="M564.41,356.91l8.66.21h0a.1.1,0,0,0,.1-.1v-6.6a.09.09,0,0,0-.1-.1l-8.65-.33a.1.1,0,0,0-.1.1v6.72A.1.1,0,0,0,564.41,356.91Zm7.32-6.45,1.24.05v6.41l-1.24,0Zm-2.25-.08,2,.07v6.44l-2-.05Zm-1.24-.05,1,0v6.46l-1,0Zm-1.42-.05,1.23,0v6.48l-1.23,0Zm-2.31-.09,2.12.08v6.5l-2.12,0Z"/><path class="cls-1" d="M599.36,358.13l8.28.2h0a.1.1,0,0,0,.1-.1v-6.37a.09.09,0,0,0-.09-.1l-8.29-.31a.07.07,0,0,0-.07,0,.21.21,0,0,0,0,.07V358A.11.11,0,0,0,599.36,358.13Zm7-6.22,1.19,0v6.18l-1.19,0Zm-2.15-.09,1.95.08v6.2l-1.95-.05Zm-1.18,0,1,0V358l-1,0Zm-1.36,0,1.17,0V358l-1.17,0Zm-2.21-.08,2,.07V358l-2-.05Z"/><path class="cls-1" d="M564.41,389l8.62.08h0a.11.11,0,0,0,.08,0,.14.14,0,0,0,0-.07v-6.62a.1.1,0,0,0-.09-.1l-8.62-.16a.08.08,0,0,0-.07,0,.09.09,0,0,0,0,.07v6.7A.09.09,0,0,0,564.41,389Zm7.27-6.57,1.26,0v6.42h-1.26Zm-2.2,0,2,0v6.44l-2,0Zm-1.22,0,1,0v6.46h-1Zm-1.44,0,1.24,0v6.47h-1.24Zm-2.31,0,2.11,0v6.49l-2.11,0Z"/><path class="cls-1" d="M599.38,389.49l8.25.07h0a.11.11,0,0,0,.07,0,.09.09,0,0,0,0-.07v-6.41a.12.12,0,0,0-.1-.1l-8.25-.15a.1.1,0,0,0-.1.1v6.49A.1.1,0,0,0,599.38,389.49Zm7-6.37,1.2,0v6.21h-1.2Zm-2.1,0,1.91,0v6.23h-1.91Zm-1.17,0h1v6.25h-1Zm-1.38,0,1.19,0v6.26h-1.19Zm-2.2,0,2,0v6.27l-2,0Z"/><path class="cls-1" d="M585.2,213.77l2.24.34h0a.09.09,0,0,0,.06,0,.09.09,0,0,0,0-.07V189.08a.08.08,0,0,0-.08-.09l-2.24-.37a.07.07,0,0,0-.07,0,.1.1,0,0,0,0,.07v25A.11.11,0,0,0,585.2,213.77Zm2.16.13-.61-.09V189.26l.61-.07Zm-2-25.07,1.44.24h-.1l-1.34-.21Zm0,.24,1.24.19v24.52l-1.24-.19Z"/><path class="cls-1" d="M585.21,245.45l2.23.25h0l.06,0a.11.11,0,0,0,0-.08V220.68a.1.1,0,0,0-.08-.1l-2.23-.28a.08.08,0,0,0-.08,0,.11.11,0,0,0,0,.07v25A.11.11,0,0,0,585.21,245.45Zm2.15,0-.6-.06V220.9l.6-.11Zm-2-25,1.46.19-.13,0-1.33-.21Zm0,.2,1.23.2v24.5l-1.23-.13Z"/><path class="cls-1" d="M585.21,277.12l2.25.17h0a.11.11,0,0,0,.07,0,.14.14,0,0,0,0-.07V252.35a.1.1,0,0,0-.08-.1l-2.25-.29a.07.07,0,0,0-.07,0,.11.11,0,0,0,0,.07v25C585.13,277.08,585.16,277.12,585.21,277.12Zm1.54-24.62.62,0v24.63l-.62,0Zm-1.43-.14,1.23.14V277l-1.23-.1Z"/><path class="cls-1" d="M585.24,308.83l2.21.07h0l.06,0a.07.07,0,0,0,0-.06V284a.11.11,0,0,0-.09-.1l-2.21-.16-.07,0a.12.12,0,0,0,0,.08v24.94A.1.1,0,0,0,585.24,308.83ZM586.77,284l.59,0V308.7l-.59,0Zm-1.43-.11,1.24.09v24.7l-1.24,0Z"/><path class="cls-1" d="M585.23,340.48l2.21.06h0a.1.1,0,0,0,.1-.1V315.57a.1.1,0,0,0-.09-.1l-2.21-.13a.1.1,0,0,0-.1.1v24.94A.1.1,0,0,0,585.23,340.48Zm1.55-24.85.57,0v24.68l-.57,0Zm-1.45-.09,1.25.07v24.71l-1.25,0Z"/><path class="cls-1" d="M585.22,372.09l2.23.05h0a.07.07,0,0,0,.06,0,.09.09,0,0,0,0-.07V347.17a.09.09,0,0,0-.09-.1l-2.23-.08a.1.1,0,0,0-.1.1V372A.09.09,0,0,0,585.22,372.09Zm1.54-24.85.6,0v24.68h-.6Zm-1.44-.05,1.25,0v24.69l-1.25,0Z"/><path class="cls-1" d="M585.25,403.76l2.15,0h0a.1.1,0,0,0,.1-.1V378.8a.1.1,0,0,0-.1-.1l-2.16,0a.1.1,0,0,0-.1.1v24.9A.09.09,0,0,0,585.25,403.76Zm1.52-24.87h.53v24.69h-.53Zm-.2,0v24.7h-1.22l0-24.71Z"/></g></g></svg>