<svg xmlns="http://www.w3.org/2000/svg" viewBox="0 0 118.18 59.51"><defs><style>.cls-1{fill:#c38b5d;}.cls-2{fill:#e0bf94;}.cls-3{fill:#a16d42;}.cls-4{fill:#dee2e6;}.cls-5{fill:#d7aa7e;}.cls-6{fill:#c7d0dd;}.cls-7{fill:#dbe188;}.cls-8{fill:#6b9955;}.cls-9{fill:#c39d70;}.cls-10{fill:#efdebd;}.cls-11{fill:#80b46c;}.cls-12{fill:#96bd68;}.cls-13{fill:#c95b69;}.cls-14{fill:#d28889;}.cls-15{fill:#a5b3c0;}.cls-16{fill:#c3ccd5;}.cls-17{fill:#e5eaee;}</style></defs><title>Recurso 19</title><g id="Capa_2" data-name="Capa 2"><g id="Capa_1-2" data-name="Capa 1"><polygon class="cls-1" points="55.1 31.74 50.78 34.23 50.29 34.52 39.43 40.78 39.05 39.62 69 22.32 69.38 23.49 61.72 27.91 55.1 31.74"/><polygon class="cls-1" points="68.94 16.59 69.08 17.55 63.06 22.07 61.73 22.02 68.94 16.59"/><polygon class="cls-2" points="68.94 16.59 61.73 22.02 61.72 22.02 37.62 8.1 44.83 2.67 68.94 16.59"/><polygon class="cls-2" points="61.72 22.02 61.73 22.02 63.06 22.07 69 22.32 39.05 39.62 31.77 39.31 61.72 22.02 61.72 22.02"/><path class="cls-3" d="M61.72,38.44l-.48.27h0A6.66,6.66,0,0,0,58.5,33a6.34,6.34,0,0,0-3.4-1.23l6.62-3.83Z"/><path class="cls-4" d="M61.24,38.71a15.58,15.58,0,0,1-.6,4.18l-4.31,2.49c1.63-6.1-.4-8.62-2.14-9.92a6.41,6.41,0,0,0-3.41-1.23l4.32-2.49A6.34,6.34,0,0,1,58.5,33,6.66,6.66,0,0,1,61.24,38.71Z"/><path class="cls-5" d="M59.91,22,53.06,26a21.71,21.71,0,0,0-4.19-3.31,9.34,9.34,0,0,0-2.7-.69V14.86L37.61,9.93V9.15Z"/><path class="cls-6" d="M56.65,41.37a6.78,6.78,0,0,0-1.3-4.47A6.25,6.25,0,0,0,52.88,35a10.28,10.28,0,0,0-2.59-.53l.49-.28a6.41,6.41,0,0,1,3.41,1.23c1.74,1.3,3.77,3.82,2.14,9.92l-.27-.24A15.86,15.86,0,0,0,56.65,41.37Z"/><path class="cls-7" d="M37.61,26.91,46.17,22a9.34,9.34,0,0,1,2.7.69A21.71,21.71,0,0,1,53.06,26l-21.3,12.3-5.55-3.21c2.88-1.66,5.77-3.32,8.64-5V27.42l-6-3.46.2-.12c.46-.26.92-.52,1.37-.79l.11-.06c1.5-.74,3.08,2.29,5.09,3.35A6.29,6.29,0,0,0,37.61,26.91Z"/><path class="cls-8" d="M46.17,22l-8.56,4.94V19.8l8.56-4.94Z"/><polygon class="cls-9" points="44.65 45.48 44.65 46.88 40.12 49.5 40.12 48.09 44.65 45.48"/><polygon class="cls-9" points="44.65 43.53 44.65 44.94 40.12 47.55 40.12 46.15 44.65 43.53"/><polygon class="cls-9" points="44.65 41.54 44.65 42.94 40.12 45.56 40.12 44.16 44.65 41.54"/><polygon class="cls-9" points="39.58 44.5 39.58 49.81 32.67 53.8 32.67 48.49 39.58 44.5"/><path class="cls-10" d="M37.61,8.1,61.72,22,31.77,39.31h0L7.68,25.4h0ZM53.06,26,59.91,22,37.61,9.15,9.47,25.4l3.89,2.24,10.56,6.1h0l2.29,1.32,5.55,3.21Z"/><path class="cls-11" d="M30.54,23l-.11.06c-.45.27-.91.53-1.37.79v-9l8.55,4.94v7.11a6.29,6.29,0,0,1-2-.57C33.62,25.28,32,22.25,30.54,23Z"/><polygon class="cls-12" points="37.62 9.93 46.17 14.86 37.62 19.8 29.06 14.86 37.62 9.93"/><path class="cls-1" d="M37.61,9.15v.78l-8.55,4.93v9l-.2.12L24.3,21.32,13.36,27.64,9.47,25.4Z"/><polygon class="cls-2" points="30.34 0 37.62 8.1 7.66 25.39 0.38 17.29 5.82 14.15 6.06 14.01 10.38 11.52 10.9 11.22 11.12 11.09 15.43 8.6 30.34 0"/><path class="cls-13" d="M34.85,30.07c-2.87,1.67-5.76,3.33-8.64,5l-2.29-1.32,10.93-6.32Z"/><polygon class="cls-14" points="34.85 27.42 23.92 33.73 23.92 33.73 13.36 27.64 24.3 21.32 28.86 23.96 34.85 27.42"/><path class="cls-3" d="M55.35,36.9A6.25,6.25,0,0,0,52.88,35a10.28,10.28,0,0,0-2.59-.53L39.43,40.78l-7.28-.3-.08-.24-.3-.92h0V55.73L56.65,41.37A6.78,6.78,0,0,0,55.35,36.9ZM39.58,49.81l-6.91,4V48.49l6.91-4Zm5.07-2.93L40.12,49.5V48.09l4.53-2.61Zm0-2-4.53,2.62v-1.4l4.53-2.62Zm0-2-4.53,2.62v-1.4l4.53-2.62Z"/><polygon class="cls-5" points="31.77 39.31 39.05 39.62 39.43 40.78 32.15 40.48 32.07 40.24 31.77 39.32 31.77 39.31 31.77 39.31"/><polygon class="cls-5" points="31.77 40.73 31.77 55.73 7.66 41.82 7.66 37.38 26.93 48.51 31.77 40.73"/><polygon class="cls-1" points="31.77 39.32 31.77 40.73 26.93 48.51 26.33 48.08 31.77 39.32"/><path class="cls-4" d="M10.87,6.46a2.08,2.08,0,0,1,1.81.1,8.61,8.61,0,0,1,2.75,2h0l-4.31,2.49a8.84,8.84,0,0,0-2.76-2,2.13,2.13,0,0,0-1.75-.13Z"/><path class="cls-15" d="M10.28,10.64c0,.28.06.57.1.88L6.06,14c-.15-1.16-.34-3.19.22-4.21C6.73,9,7.53,9,8.4,9.39a6.93,6.93,0,0,1,1.88,1.25Z"/><polygon class="cls-2" points="31.77 39.31 31.77 39.32 26.33 48.08 7.66 37.3 7.66 37.3 2.22 34.16 7.24 26.08 7.66 25.39 7.68 25.4 31.77 39.31"/><polygon class="cls-5" points="0.38 17.29 7.66 25.39 7.24 26.08 0 18.02 0.38 17.29"/><path class="cls-6" d="M11.12,11.09l-.22.13-.62-.58A6.93,6.93,0,0,0,8.4,9.39C7.53,9,6.73,9,6.28,9.8c-.56,1-.37,3-.22,4.21l-.24.14c-.47-3.37,0-4.76.73-5.2l.06,0a2.13,2.13,0,0,1,1.75.13A8.84,8.84,0,0,1,11.12,11.09Z"/><polygon class="cls-1" points="26.93 48.51 7.66 37.38 7.66 37.3 26.33 48.08 26.93 48.51"/><polygon class="cls-1" points="7.66 37.3 7.66 37.38 2.83 34.59 2.22 34.16 7.66 37.3"/><polygon class="cls-3" points="98.54 27.75 98.54 42.62 92.24 46.26 92.24 31.39 98.54 27.75"/><polygon class="cls-2" points="98.54 27.75 92.24 31.39 85.94 27.75 92.24 24.12 98.54 27.75"/><polygon class="cls-16" points="92.24 31.39 92.24 46.26 90.09 47.5 90.09 32.63 92.24 31.39"/><polygon class="cls-4" points="92.24 24.12 85.94 27.75 83.79 26.51 90.09 22.88 92.24 24.12"/><polygon class="cls-17" points="92.24 31.39 90.09 32.63 83.79 28.99 85.94 27.75 92.24 31.39"/><path class="cls-3" d="M90.09,32.63V47.5l-6.3,3.64V36.27Zm-2,15.43V45.59l-3.7,2.14V50.2Z"/><polygon class="cls-2" points="90.09 32.63 83.79 36.27 77.5 32.63 83.79 28.99 90.09 32.63"/><polygon class="cls-2" points="90.09 22.88 83.79 26.51 77.5 22.88 83.79 19.24 90.09 22.88"/><polygon class="cls-9" points="88.06 45.59 88.06 48.06 84.36 50.2 84.36 47.73 88.06 45.59"/><polygon class="cls-17" points="83.79 26.51 85.94 27.75 83.79 28.99 81.65 27.75 83.79 26.51"/><polygon class="cls-5" points="83.79 36.27 83.79 51.14 77.5 47.5 77.5 32.63 83.79 36.27"/><polygon class="cls-17" points="83.79 26.51 81.65 27.75 75.35 24.12 77.5 22.88 83.79 26.51"/><polygon class="cls-4" points="83.79 28.99 77.5 32.63 75.35 31.39 81.65 27.75 83.79 28.99"/><polygon class="cls-2" points="81.65 27.75 75.35 31.39 69.05 27.75 75.35 24.12 81.65 27.75"/><polygon class="cls-4" points="77.5 32.63 77.5 47.5 75.35 46.26 75.35 31.39 77.5 32.63"/><polygon class="cls-5" points="75.35 31.39 75.35 46.26 69.05 42.62 69.05 27.75 75.35 31.39"/><polygon class="cls-3" points="118.18 40.93 118.18 55.8 109.58 57.13 109.58 42.26 118.18 40.93"/><polygon class="cls-2" points="116.78 37.91 118.18 40.93 109.58 42.26 108.17 39.24 116.78 37.91"/><polygon class="cls-4" points="116.78 37.91 108.17 39.24 107.39 37.55 115.99 36.22 116.78 37.91"/><polygon class="cls-2" points="115.99 36.22 107.39 37.55 105.99 34.53 103.06 34.99 114.59 33.2 115.99 36.22"/><polygon class="cls-16" points="109.58 42.26 109.58 57.13 106.64 57.59 106.64 42.72 109.58 42.26"/><polygon class="cls-17" points="108.17 39.24 109.58 42.26 106.64 42.72 105.24 39.7 108.17 39.24"/><polygon class="cls-17" points="107.39 37.55 108.17 39.24 105.24 39.7 104.45 38.01 107.39 37.55"/><polygon class="cls-17" points="105.99 34.53 107.39 37.55 104.45 38.01 103.06 34.99 105.99 34.53"/><path class="cls-3" d="M106.64,42.72V57.59L98,58.92V44.05ZM103.87,57.4V54.94l-5.06.78v2.47Z"/><polygon class="cls-2" points="105.24 39.7 106.64 42.72 98.04 44.05 96.64 41.03 96.64 41.03 105.24 39.7"/><polygon class="cls-4" points="104.45 38.01 105.24 39.7 96.64 41.03 95.85 39.34 95.85 39.34 104.45 38.01"/><polygon class="cls-2" points="103.06 34.99 104.45 38.01 95.85 39.34 94.45 36.32 103.06 34.99"/><polygon class="cls-9" points="103.86 54.94 103.86 57.4 98.81 58.19 98.81 55.72 103.86 54.94"/><polygon class="cls-5" points="98.04 44.05 98.04 58.92 96.64 55.9 96.64 41.03 98.04 44.05"/><polygon class="cls-4" points="96.64 41.03 96.64 55.9 95.85 54.21 95.85 39.34 96.64 41.03 96.64 41.03"/><polygon class="cls-5" points="95.85 39.34 95.85 54.21 94.45 51.19 94.45 36.32 95.85 39.34 95.85 39.34"/><polygon class="cls-3" points="82 50.21 82 56.51 73.72 57.79 73.72 51.49 82 50.21"/><polygon class="cls-2" points="80.65 47.3 82 50.21 73.72 51.49 73.72 51.49 72.37 48.58 80.65 47.3"/><polygon class="cls-17" points="80.65 47.3 72.37 48.58 71.61 46.95 79.9 45.67 80.65 47.3"/><polygon class="cls-2" points="78.55 42.76 79.9 45.67 71.61 46.95 70.26 44.05 78.55 42.76"/><polygon class="cls-16" points="73.72 51.49 73.72 57.79 70.89 58.23 70.89 51.93 70.89 51.92 73.72 51.49"/><polygon class="cls-4" points="72.37 48.58 73.72 51.49 70.89 51.92 69.54 49.02 72.37 48.58"/><polygon class="cls-4" points="71.61 46.95 72.37 48.58 69.54 49.02 68.78 47.39 71.61 46.95"/><polygon class="cls-4" points="70.26 44.05 71.61 46.95 68.78 47.39 67.44 44.48 70.26 44.05"/><polygon class="cls-2" points="70.89 51.92 70.89 51.93 62.6 53.21 61.26 50.3 61.26 50.3 69.54 49.02 70.89 51.92"/><polygon class="cls-17" points="69.54 49.02 61.26 50.3 60.5 48.67 68.78 47.39 69.54 49.02"/><polygon class="cls-2" points="67.44 44.48 68.78 47.39 60.5 48.67 59.15 45.76 67.44 44.48"/><path class="cls-3" d="M70.89,58.23,62.6,59.51v-6.3l8.29-1.28Zm-2.68.15V56.29L63.34,57v2.09Z"/><polygon class="cls-9" points="68.22 56.29 68.22 58.38 63.34 59.13 63.34 57.04 68.22 56.29"/><polygon class="cls-5" points="62.6 53.21 62.6 59.51 61.26 56.6 61.26 50.3 62.6 53.21"/><polygon class="cls-4" points="61.26 50.3 61.26 56.6 60.5 54.97 60.5 54.97 60.5 48.67 61.26 50.3 61.26 50.3"/><polygon class="cls-5" points="59.15 45.76 60.5 48.67 60.5 54.97 59.15 52.06 59.15 45.76"/></g></g></svg>