<svg xmlns="http://www.w3.org/2000/svg" xmlns:xlink="http://www.w3.org/1999/xlink" viewBox="0 0 262.41 343.59"><defs><style>.cls-1{fill:none;stroke:aqua;stroke-miterlimit:10;stroke-width:9px;}.cls-2{clip-path:url(#clip-path);}.cls-3{fill:#0b0635;}.cls-4{fill:#f8bd8c;}.cls-5{fill:#eab186;}.cls-6{fill:#fcfcfc;}</style><clipPath id="clip-path"><circle class="cls-1" cx="131.21" cy="131.21" r="126.71"/></clipPath></defs><title>Recurso 20</title><g id="Capa_2" data-name="Capa 2"><g id="Capa_1-2" data-name="Capa 1"><g class="cls-2"><path class="cls-3" d="M140.23,70.34s17.39-6.43,33.11,1.61c16.74,8.55,25.24,17.11,29.09,89s3.42,107.79,3.85,113.35S69.4,278.12,69.4,278.12V99.32Z"/><polygon class="cls-4" points="161.36 253.74 109.75 255.29 111.52 210.97 158.8 210.97 161.36 253.74"/><path class="cls-5" d="M159.76,227c-2.93,6.22-8.3,12.4-16,13.25-13.14,1.48-26-13.1-32.29-21.18-1.27-1.61-1.88-3-2.58-3.87a31.07,31.07,0,0,0,5.81,2.89A65.52,65.52,0,0,0,137.89,222a38.27,38.27,0,0,0,17.32-3.86l4-.07Z"/><path class="cls-4" d="M181.93,158.9c1.12,35.64-20.12,65.22-47.43,66.07S84.14,197.64,83,162s20.11-65.22,47.42-66.08S180.81,123.27,181.93,158.9Z"/><path class="cls-4" d="M193.2,162.8c0,7.38-6.4,14.5-11.68,14.5s-9.56-6-9.56-13.36,7-13.36,12.29-13.36S193.2,155.42,193.2,162.8Z"/><path d="M163.72,139.74a3.86,3.86,0,0,1-1.2-.19c-10.62-3.48-17.6-.32-17.89-.18a3.85,3.85,0,0,1-3.35-6.94c.4-.19,9.91-4.69,23.63-.2a3.85,3.85,0,0,1-1.19,7.51Z"/><path d="M90,145.84a3.84,3.84,0,0,1-2.21-7c.37-.25,9.08-6.15,23.33-3.78a3.85,3.85,0,1,1-1.26,7.59c-11-1.81-17.44,2.36-17.71,2.54A3.87,3.87,0,0,1,90,145.84Z"/><path d="M132.28,176.21h-3.85a.64.64,0,0,1-.64-.64V161.13a.64.64,0,0,1,.64-.64.64.64,0,0,1,.64.64v13.8h3.21a.64.64,0,0,1,0,1.28Z"/><path d="M107.9,158c0,3-1.92,5.38-4.28,5.38S99.34,161,99.34,158s1.92-5.37,4.28-5.37S107.9,155,107.9,158Z"/><path d="M157.62,152.63c0,3-1.91,5.37-4.28,5.37s-4.27-2.4-4.27-5.37,1.91-5.37,4.27-5.37S157.62,149.66,157.62,152.63Z"/><path class="cls-6" d="M116.9,194.07c1.45,6.6,9.21,10.89,17.81,9.66,7.47-1.07,13.16-6,14.23-11.65Z"/><path class="cls-3" d="M138.91,68.94c13.43,26.92-19,36.59-31.25,51.16C94.25,136,85,167.47,85.71,188.4c2,57.12,21.28,102.91-16.39,155.19,7.81-31.75-4.06-56-14-84.83-10.88-31.69-10.7-64.16-6.94-97.08,2.83-24.8,3.75-64.93,22.4-83.66C81.53,67.27,130.36,51.79,138.91,68.94Z"/><path class="cls-3" d="M135.81,96.14a47.35,47.35,0,0,0,19.45,17c19,9.19,23.12,39.44,23.12,39.44l7.73-4.21-15-56.29Z"/></g><circle class="cls-1" cx="131.21" cy="131.21" r="126.71"/></g></g></svg>