<svg xmlns="http://www.w3.org/2000/svg" xmlns:xlink="http://www.w3.org/1999/xlink" viewBox="0 0 390.93 191.85"><defs><style>.cls-1{fill:url(#Degradado_sin_nombre_56);}.cls-2{fill:#98e6f5;}.cls-3{fill:#65e7f6;}.cls-4{fill:url(#Degradado_sin_nombre_52);}.cls-5{fill:#fff;}</style><linearGradient id="Degradado_sin_nombre_56" x1="181.42" y1="56.04" x2="206.78" y2="187.16" gradientUnits="userSpaceOnUse"><stop offset="0.14" stop-color="#d18fb5"/><stop offset="0.95" stop-color="#d18fb5" stop-opacity="0.1"/></linearGradient><linearGradient id="Degradado_sin_nombre_52" y1="80.23" x2="241.87" y2="80.23" gradientUnits="userSpaceOnUse"><stop offset="0.23" stop-color="#98e6f5"/><stop offset="0.93" stop-color="#91d5f5"/></linearGradient></defs><title>Recurso 28</title><g id="Capa_2" data-name="Capa 2"><g id="Capa_1-2" data-name="Capa 1"><path class="cls-1" d="M10.71,113.69a16.66,16.66,0,0,0,.66,9.27c1.93,4.77,7.94,14.47,7.94,14.47s15.46,27.26,27.85,51.85l343.77,2.57c-1.2-2.49-51.47-112.48-57.77-114.57-11.81-3.92-38.18-7.65-50-11.57-9.84-3.27-26.77-9.78-37-11.43-31-5-55,1-91-3-3.88-.43-11.3-9.18-14-12-2.46-2.57-6.18-1.35-7.6-4.61-3.18-7.27-9.33-15.49-16.73-18.57-8.84-3.68-21-3.44-30.39-3.62C73,12.22,66.8,20,57.23,28.4L28.29,53.93c-2.64,2.32-5.32,4.71-7.07,7.76-4.67,8.18-1.43,18.46-2.65,27.8C17.6,97,12.16,105.58,10.71,113.69Z"/><circle class="cls-2" cx="223.58" cy="37.41" r="11.75"/><path class="cls-2" d="M279.86,85.72A4.9,4.9,0,0,0,278,84.49h-1.36a5,5,0,0,0-1.82,1.22l-17.92,17.92a7.14,7.14,0,0,0-.92,1.06,2.74,2.74,0,0,0-.15,2.91A2.55,2.55,0,0,0,258.3,109h2.12c.56,0,.57,0,.57.57q0,7.86,0,15.73a2.7,2.7,0,0,0,2.16,2.69,2.32,2.32,0,0,0,.59.06c2.55,0,5.1,0,7.65,0,.43,0,.56-.12.56-.55,0-4.3,0-8.59,0-12.89a2.71,2.71,0,0,1,1.91-2.76,3.36,3.36,0,0,1,1-.14c1.66,0,3.32,0,5,0a2.74,2.74,0,0,1,2.93,2.93v12.8c0,.6,0,.6.62.6h7.52a2.71,2.71,0,0,0,2.81-2.82q0-7.8,0-15.6c0-.63,0-.63.63-.63h2a2.66,2.66,0,0,0,2.72-1.83l.1-.24v-1.36a4.74,4.74,0,0,0-1.16-1.76c-1.28-1.27-2.54-2.56-3.82-3.82l-8.67-8.79Z"/><path class="cls-2" d="M161,58.07q-3,0-5.48,3.54a28.05,28.05,0,0,0-3.81,8.52,33.81,33.81,0,0,0-1.37,8.79c0,2.54.37,4.16,1.11,4.87a3.72,3.72,0,0,0,2.7,1.06A5.47,5.47,0,0,0,158,83.07a9.33,9.33,0,0,0,2.55-4.91L164.16,61A3.14,3.14,0,0,0,163.4,59,2.86,2.86,0,0,0,161,58.07Z"/><path class="cls-3" d="M189.58,82.34c0,1.68.86,2.51,2.59,2.51q3.5,0,6.5-4.41a37.42,37.42,0,0,0,4.83-10.5,37.38,37.38,0,0,0,1.83-10.5q-.15.38-1,.57a6.48,6.48,0,0,1-1.44.19,2.22,2.22,0,0,1-2-1.22,5.13,5.13,0,0,1-.72-2.66,3.93,3.93,0,0,1,1.18-3,4.24,4.24,0,0,1,2.22-1l-8.23-.14L190,79.6A16.34,16.34,0,0,0,189.58,82.34Z"/><path class="cls-2" d="M170.85,82q0,3.27,3.12,3.27a4.59,4.59,0,0,0,3.69-2,11.79,11.79,0,0,0,1.05-1.71,17.91,17.91,0,0,1,.3-2l5.41-27.55-7.83-.14L171.16,79.6A9.16,9.16,0,0,0,170.85,82Z"/><path class="cls-4" d="M228.19,52.83,222.24,79.6a9.6,9.6,0,0,0-.3,2.44,2.81,2.81,0,0,0,.72,2.17,3.57,3.57,0,0,0,2.4.64,6.19,6.19,0,0,0,2.43-.45,8.08,8.08,0,0,1-2.7,5.82,8.55,8.55,0,0,1-5.67,2,7.93,7.93,0,0,1-5.9-2.28Q211,87.67,211,83.1a26.09,26.09,0,0,1,.61-4.94l4-25.55-9.23-.17a3.7,3.7,0,0,1,2.16,1.64,9,9,0,0,1,1.14,4.75,50.8,50.8,0,0,1-2.36,14.65,34.73,34.73,0,0,1-7.23,13.27A15.52,15.52,0,0,1,188,92.23,9.83,9.83,0,0,1,181.1,90a7.2,7.2,0,0,1-2-3.45,13.43,13.43,0,0,1-2.71,2.76A14.32,14.32,0,0,1,168,92.23a7.25,7.25,0,0,1-5.14-1.79,8,8,0,0,1-2.32-5.21,21.18,21.18,0,0,1-4.91,5.06,10.67,10.67,0,0,1-6.43,1.94,9.34,9.34,0,0,1-9.51-7.31,14.25,14.25,0,0,1-4.09,4.38,15.68,15.68,0,0,1-8.75,2.93A7.89,7.89,0,0,1,121,90q-2.25-2.28-2.25-6.85a26.94,26.94,0,0,1,.61-4.94L127.5,40l11.26-1.52L130,79.6a9.6,9.6,0,0,0-.3,2.44,2.81,2.81,0,0,0,.72,2.17,3.57,3.57,0,0,0,2.4.64A5.81,5.81,0,0,0,136.94,83a10.23,10.23,0,0,0,2.21-3.55,35,35,0,0,1,2.22-11.29,27.31,27.31,0,0,1,6.69-10.5,14.79,14.79,0,0,1,10.62-4.3,8.15,8.15,0,0,1,4.64,1.07,3.29,3.29,0,0,1,1.52,2.81v.54l.84-6.05-5.9-.1c-3.36-.06-5.11-.91-6.53-4.17A77.59,77.59,0,0,0,123,12.4,80.23,80.23,0,0,0,31.36,143.92c40.11,30.83,98.65,17,120.91-28.62,1.32-2.71,2.83-3.45,5.63-3.37l69.18.44c.86-20.6,6.93-40.37,14.79-59.29ZM59.32,95.55a22.57,22.57,0,0,1-31.64-.48c-8.39-8.73-8-23.21.8-31.67a22.08,22.08,0,0,1,31.24.71A21.93,21.93,0,0,1,59.32,95.55ZM110.14,39a5.29,5.29,0,0,0-3.77-1.26q-4.41,0-8.52,3.92a28.4,28.4,0,0,0-6.62,10.24,35.37,35.37,0,0,0-2.51,13.24c0,3.8.61,6.71,1.82,8.71a5.81,5.81,0,0,0,5.25,3q4.11,0,7.27-4.33t5.06-12.63l9,.07-5.56,25.57q-2.43,11.34-6.88,16.66a14.33,14.33,0,0,1-11.53,5.33,13.38,13.38,0,0,1-8.94-2.86,9.31,9.31,0,0,1-3.39-7.49,10.74,10.74,0,0,1,1.37-5.33A10.34,10.34,0,0,1,85.9,88a9.9,9.9,0,0,1,5.18-1.41,7.27,7.27,0,0,1,4.68,1.45,5.14,5.14,0,0,1,.95,6.69,4.72,4.72,0,0,0-1.87-1.44,5.87,5.87,0,0,0-2.47-.53,4.89,4.89,0,0,0-3.73,1.52,5.51,5.51,0,0,0-1.45,3.95,5.58,5.58,0,0,0,1.41,4,4.64,4.64,0,0,0,3.54,1.52,5.68,5.68,0,0,0,4.57-2.36,16.78,16.78,0,0,0,2.89-7l3.8-16.81h-.3a13.88,13.88,0,0,1-5,4.41,13.64,13.64,0,0,1-6.43,1.52,13.08,13.08,0,0,1-7.76-2.36,14.79,14.79,0,0,1-5.13-6.73A26.75,26.75,0,0,1,77,64.23,32.08,32.08,0,0,1,80.65,49a27.81,27.81,0,0,1,10-10.84,26.19,26.19,0,0,1,14.07-4q6.47,0,10.23,2.81a9.07,9.07,0,0,1,3.77,7.69,8.08,8.08,0,0,1-1.6,5.25,5.11,5.11,0,0,1-4.18,2,6.18,6.18,0,0,1-2.7-.61,5.53,5.53,0,0,1-2.09-1.75,7.08,7.08,0,0,0,2.32-2.93,9.5,9.5,0,0,0,1-4.07A4.67,4.67,0,0,0,110.14,39Z"/><path class="cls-2" d="M333.82,78c-7.77-6.75-15.58-13.44-23.34-20.19A14.08,14.08,0,0,0,301,54.13q-29.54-.5-59.08-1.05C234,72,227.94,91.77,227.08,112.37l25,.16v-2.42c0-.86,0-.88-.87-.88h-3.26a3.93,3.93,0,0,1-3.72-2.19,4.17,4.17,0,0,1,.24-4.45,10.31,10.31,0,0,1,1.4-1.63L273.3,73.51a7.31,7.31,0,0,1,2.78-1.87h2.09A7.39,7.39,0,0,1,281,73.51l8.64,8.43,13.27,13.48c2,1.93,3.91,3.9,5.86,5.85a7.13,7.13,0,0,1,1.77,2.69v2.09c-.05.12-.1.24-.14.36a4.11,4.11,0,0,1-4.17,2.82h-3c-1,0-1,0-1,1v2.65l14.13.09a33.47,33.47,0,0,0,3.62-3.81c4.95-5.92,9.8-11.92,14.78-17.8C338.88,86.43,338.68,82.19,333.82,78Z"/><path class="cls-5" d="M158.89,145.28v27.64h-5V145.28Z"/><path class="cls-5" d="M169,160.77v12.15h-4.89V152.19h4.67v3.52H169a5.82,5.82,0,0,1,2.28-2.76,7,7,0,0,1,3.9-1,7.41,7.41,0,0,1,3.74.92,6.21,6.21,0,0,1,2.48,2.66,9.08,9.08,0,0,1,.87,4.22v13.2h-4.88V160.48a4.69,4.69,0,0,0-1.07-3.26,3.84,3.84,0,0,0-3-1.17,4.57,4.57,0,0,0-2.27.56,3.88,3.88,0,0,0-1.55,1.61A5.4,5.4,0,0,0,169,160.77Z"/><path class="cls-5" d="M187.28,172.92V152.19H192v3.52h.25a5.48,5.48,0,0,1,2.14-2.78,6.28,6.28,0,0,1,3.58-1,6,6,0,0,1,3.55,1,5.42,5.42,0,0,1,2.05,2.77h.21a5.73,5.73,0,0,1,2.33-2.76,7.13,7.13,0,0,1,3.89-1,6.29,6.29,0,0,1,4.67,1.81,7.11,7.11,0,0,1,1.81,5.27v13.92h-4.9V159.76a3.58,3.58,0,0,0-1-2.83A3.72,3.72,0,0,0,208,156a3.5,3.5,0,0,0-2.76,1.1,4.09,4.09,0,0,0-1,2.85v12.93h-4.8V159.56a3.48,3.48,0,0,0-1-2.57,3.44,3.44,0,0,0-2.52-1,3.5,3.5,0,0,0-1.91.53,3.72,3.72,0,0,0-1.38,1.5,4.72,4.72,0,0,0-.51,2.24v12.61Z"/><path class="cls-5" d="M230.44,173.32a10,10,0,0,1-5.26-1.33,9,9,0,0,1-3.45-3.74,13.55,13.55,0,0,1,0-11.24,9,9,0,0,1,3.45-3.75,11,11,0,0,1,10.52,0,9.07,9.07,0,0,1,3.45,3.75,13.55,13.55,0,0,1,0,11.24A9.11,9.11,0,0,1,235.7,172,10,10,0,0,1,230.44,173.32Zm0-3.91a4.19,4.19,0,0,0,2.76-.91,5.52,5.52,0,0,0,1.65-2.45,11,11,0,0,0,0-6.88,5.5,5.5,0,0,0-1.65-2.46,4.2,4.2,0,0,0-2.76-.92,4.29,4.29,0,0,0-2.8.92,5.52,5.52,0,0,0-1.66,2.46,11.23,11.23,0,0,0,0,6.88,5.54,5.54,0,0,0,1.66,2.45A4.28,4.28,0,0,0,230.46,169.41Z"/><path class="cls-5" d="M244.71,172.92V145.28h4.89v10.34h.2a8.78,8.78,0,0,1,1.07-1.61,5.72,5.72,0,0,1,1.86-1.48,6.43,6.43,0,0,1,3-.61,8,8,0,0,1,4.33,1.22,8.5,8.5,0,0,1,3.08,3.6,15.55,15.55,0,0,1,0,11.64,8.52,8.52,0,0,1-3.05,3.65,7.89,7.89,0,0,1-4.37,1.25,6.64,6.64,0,0,1-3-.59,6,6,0,0,1-1.88-1.44,8.68,8.68,0,0,1-1.1-1.6h-.28v3.27Zm4.79-10.37a10,10,0,0,0,.58,3.53,5.21,5.21,0,0,0,1.66,2.35,4.17,4.17,0,0,0,2.64.84,4.21,4.21,0,0,0,2.71-.87,5.26,5.26,0,0,0,1.65-2.38,10.1,10.1,0,0,0,.56-3.47,9.78,9.78,0,0,0-.55-3.42,5.12,5.12,0,0,0-1.65-2.35,4.75,4.75,0,0,0-5.38,0,5.08,5.08,0,0,0-1.66,2.31A9.94,9.94,0,0,0,249.5,162.55Z"/><path class="cls-5" d="M270.89,149.25a2.82,2.82,0,0,1-2-.78,2.52,2.52,0,0,1-.83-1.88,2.46,2.46,0,0,1,.84-1.87,2.93,2.93,0,0,1,4,0,2.52,2.52,0,0,1,0,3.74A2.83,2.83,0,0,1,270.89,149.25Zm-2.44,23.67V152.19h4.89v20.73Z"/><path class="cls-5" d="M283.24,145.28v27.64h-4.89V145.28Z"/><path class="cls-5" d="M290.7,149.25a2.8,2.8,0,0,1-2-.78,2.52,2.52,0,0,1-.83-1.88,2.46,2.46,0,0,1,.84-1.87,2.93,2.93,0,0,1,4,0,2.52,2.52,0,0,1,0,3.74A2.85,2.85,0,0,1,290.7,149.25Zm-2.44,23.67V152.19h4.88v20.73Z"/><path class="cls-5" d="M304.13,173.34a8.54,8.54,0,0,1-3.54-.71,5.75,5.75,0,0,1-2.49-2.1,6.19,6.19,0,0,1-.91-3.43,5.84,5.84,0,0,1,.65-2.9,5,5,0,0,1,1.77-1.84,9.4,9.4,0,0,1,2.53-1,20.93,20.93,0,0,1,2.92-.52c1.21-.13,2.2-.24,3-.34a4.44,4.44,0,0,0,1.65-.49,1.14,1.14,0,0,0,.52-1v-.08a3.05,3.05,0,0,0-.91-2.37,3.72,3.72,0,0,0-2.6-.83,4.65,4.65,0,0,0-2.84.78,3.83,3.83,0,0,0-1.41,1.85l-4.56-.65a7.29,7.29,0,0,1,1.78-3.16,7.9,7.9,0,0,1,3-1.92,11.58,11.58,0,0,1,4-.64,13.11,13.11,0,0,1,3,.35,8.78,8.78,0,0,1,2.72,1.15,6,6,0,0,1,2,2.18,7.16,7.16,0,0,1,.75,3.45v13.87h-4.69v-2.85h-.16a5.91,5.91,0,0,1-3.26,2.81A8.11,8.11,0,0,1,304.13,173.34Zm1.27-3.59a5.28,5.28,0,0,0,2.55-.59,4.24,4.24,0,0,0,1.66-1.56,3.94,3.94,0,0,0,.59-2.12V163a2.23,2.23,0,0,1-.77.35,11.27,11.27,0,0,1-1.23.28c-.45.08-.89.16-1.33.22l-1.15.16a8.39,8.39,0,0,0-2,.49,3.25,3.25,0,0,0-1.36.94,2.61,2.61,0,0,0,.49,3.58A4.25,4.25,0,0,0,305.4,169.75Z"/><path class="cls-5" d="M320,172.92V152.19h4.73v3.45H325a5.22,5.22,0,0,1,1.95-2.77,5.36,5.36,0,0,1,3.16-1c.27,0,.58,0,.92,0a5.7,5.7,0,0,1,.84.1v4.49a4.94,4.94,0,0,0-1-.19,9.54,9.54,0,0,0-1.29-.09,4.94,4.94,0,0,0-2.39.57,4.19,4.19,0,0,0-1.67,1.59,4.47,4.47,0,0,0-.61,2.33v12.19Z"/><path class="cls-5" d="M337.51,149.25a2.82,2.82,0,0,1-2-.78,2.52,2.52,0,0,1-.83-1.88,2.46,2.46,0,0,1,.84-1.87,2.93,2.93,0,0,1,4,0,2.52,2.52,0,0,1,0,3.74A2.83,2.83,0,0,1,337.51,149.25Zm-2.44,23.67V152.19H340v20.73Z"/><path class="cls-5" d="M350.94,173.34a8.57,8.57,0,0,1-3.54-.71,5.75,5.75,0,0,1-2.49-2.1,6.19,6.19,0,0,1-.91-3.43,5.84,5.84,0,0,1,.65-2.9,5,5,0,0,1,1.77-1.84,9.4,9.4,0,0,1,2.53-1,20.93,20.93,0,0,1,2.92-.52c1.22-.13,2.2-.24,3-.34a4.44,4.44,0,0,0,1.65-.49,1.12,1.12,0,0,0,.52-1v-.08a3.08,3.08,0,0,0-.9-2.37,3.77,3.77,0,0,0-2.61-.83,4.65,4.65,0,0,0-2.84.78,3.83,3.83,0,0,0-1.41,1.85l-4.56-.65a7.29,7.29,0,0,1,1.78-3.16,7.9,7.9,0,0,1,3-1.92,11.58,11.58,0,0,1,4-.64,13.2,13.2,0,0,1,3,.35,8.73,8.73,0,0,1,2.71,1.15,6,6,0,0,1,2,2.18,7.28,7.28,0,0,1,.74,3.45v13.87h-4.69v-2.85H357a5.91,5.91,0,0,1-3.26,2.81A8.11,8.11,0,0,1,350.94,173.34Zm1.27-3.59a5.28,5.28,0,0,0,2.55-.59,4.34,4.34,0,0,0,1.67-1.56,4,4,0,0,0,.58-2.12V163a2.23,2.23,0,0,1-.77.35,11.07,11.07,0,0,1-1.22.28c-.45.08-.9.16-1.34.22l-1.15.16a8.18,8.18,0,0,0-1.95.49,3.29,3.29,0,0,0-1.37.94,2.61,2.61,0,0,0,.49,3.58A4.28,4.28,0,0,0,352.21,169.75Z"/></g></g></svg>