<svg xmlns="http://www.w3.org/2000/svg" xmlns:xlink="http://www.w3.org/1999/xlink" viewBox="0 0 262.41 289.54"><defs><style>.cls-1{fill:none;stroke:aqua;stroke-miterlimit:10;stroke-width:9px;}.cls-2{clip-path:url(#clip-path);}.cls-3{fill:#f8bd8c;}.cls-4{fill:#eab186;}.cls-5{fill:#1a1a1a;}.cls-6{fill:#fcfcfc;}</style><clipPath id="clip-path"><circle class="cls-1" cx="131.21" cy="131.21" r="126.71"/></clipPath></defs><title>Recurso 21</title><g id="Capa_2" data-name="Capa 2"><g id="Capa_1-2" data-name="Capa 1"><g class="cls-2"><polygon class="cls-3" points="186.88 280.22 107.38 289.54 105.42 236.02 105.29 232.33 105.03 225.29 170.08 217.67 174.31 217.17 177.86 235.02 186.88 280.22"/><path class="cls-4" d="M177.86,235c-3.18,7.29-8.72,14.06-17.29,17.14C141.67,259,118,244.77,105.42,236l-.13-3.69c1.09.17,2.32.32,3.71.44,8.33.69,20.75.46,36.38-3.44a65.12,65.12,0,0,0,24.7-11.66l4.23-.5Z"/><path class="cls-3" d="M187.07,148.08c3.47,43.85-17.25,81.35-49.45,83.89S76.5,201,73,157.18s19.83-81.46,52-84S183.6,104.22,187.07,148.08Z"/><path class="cls-5" d="M143.05,244.26c-30.83,4.58-61-27.27-67.52-71.07-.62-4.22-1-8.38-1.19-12.5,7.21,42.56,37,73.18,67.21,68.7,27.79-4.12,46.52-36.43,45.19-74.88.15.72.25,1.44.36,2.16C193.58,200.47,173.87,239.68,143.05,244.26Z"/><path class="cls-5" d="M97.28,51.14s-.37,32.6,7.75,37.31,17.39-3.86,24.76-5.14,22.29-2.55,32.73,6.55,19.42,35.65,19.42,35.65l2.29,8.9s6.11,1.54,6.75-6.82-1.07-43.42,0-46.86.64-6.86-3.21-10.72-8.8-9.86-7.3-12.43,7.94-9.22,1.72-15S146,33.13,140.38,38.28,114,23.7,97.28,51.14Z"/><path class="cls-5" d="M91.6,53.61s-29.27,3.22-29.92,29c0,0-3.53,5.79-10.61,15.11s1.29,25.09,3.22,34.42,5.89,17,5.68,19.83,5.14,8.15,10,6,5.9-7.87,5.9-7.87.43-36.3,5.79-42.74S96.1,94.57,101.35,91.88a11.88,11.88,0,0,0,6.44-8.36c0-.64-6.65-35.81-6.65-35.81Z"/><path class="cls-3" d="M85.16,163.84c4,8.3,2.55,17.32-3.31,20.17S68,182.45,63.94,174.16,61.39,156.84,67.25,154,81.12,155.55,85.16,163.84Z"/><path class="cls-3" d="M198.79,152.51c-1.06,9.16-7.16,16-13.63,15.23s-10.86-8.77-9.81-17.93,7.16-16,13.63-15.23S199.84,143.35,198.79,152.51Z"/><path class="cls-5" d="M110.49,135.92a88.78,88.78,0,0,0-12.21,1.62,35,35,0,0,0-10.92,3.86l-.15.09a3.34,3.34,0,0,1-3.6-5.63c4.3-2.83,8.72-4.13,13.1-5.23a95.27,95.27,0,0,1,13.3-2.16,3.74,3.74,0,0,1,.7,7.44h-.22Z"/><path class="cls-5" d="M107.09,151.85c.47,3.2-1.33,6.11-4,6.51s-5.26-1.87-5.73-5.07,1.33-6.11,4-6.51S106.61,148.65,107.09,151.85Z"/><path class="cls-5" d="M144.49,131.86a87.76,87.76,0,0,1,12.26-1.19A35,35,0,0,1,168.26,132l.17.06a3.34,3.34,0,0,0,2.22-6.31,41.11,41.11,0,0,0-13.94-2.12,95,95,0,0,0-13.45.91,3.74,3.74,0,1,0,1,7.41l.1,0Z"/><path class="cls-5" d="M151.42,146.6c.26,3.22,2.67,5.65,5.39,5.43s4.7-3,4.44-6.24-2.68-5.65-5.4-5.42S151.15,143.38,151.42,146.6Z"/><path class="cls-5" d="M114.43,224.24c1.69,1.15,7.58-.27,9.49-.67,3.24-.69,7-1.93,9-4.73,2.33-3.22,1.25-8.06,1-11.73-.09-1,.09-3.93-.77-4.8l8.57-1.28c-.76.11,1.52,12.09,1.88,13.07,1,2.61,3.59,4.08,6.17,4.73a26.87,26.87,0,0,0,8.39.56c.68,0,7.32-.62,7.38-1.32a2.61,2.61,0,0,1-.89,1.49,168.08,168.08,0,0,1-13.92,12.34s-22.73,1.93-23.37,1.29S114.45,224.26,114.43,224.24Z"/><path class="cls-6" d="M156.76,192.66c-3,5.3-9.31,9.73-17.29,11.27-10.6,2.06-20.48-1.54-24.29-8.23,0-.11.1-.21.2-.31a26.63,26.63,0,0,1,4.22-2.94l31.14-3.7C153.16,189.26,155.32,190.19,156.76,192.66Z"/><path class="cls-5" d="M112.42,228.48c-.67-6.48-2.53-27.23.18-33.41v-.42l.93-1.05a28.29,28.29,0,0,1,4.83-3.4,38.7,38.7,0,0,1,18.13-4.9,68.28,68.28,0,0,1,10.95.38l.87.1a29.77,29.77,0,0,1,3,.46,10.79,10.79,0,0,1,7.69,5.13c2.14,3.65,3.05,7.59,3.94,11.41.23,1,.46,2,.71,2.93a44.89,44.89,0,0,1,1.45,15.82L160,221a40.3,40.3,0,0,0-1.32-14c-.25-1-.49-2-.73-3-.84-3.6-1.62-7-3.37-10-.85-1.46-2.06-2.21-4.34-2.69a21.21,21.21,0,0,0-2.48-.37l-.9-.11a62.44,62.44,0,0,0-10.12-.34,33.59,33.59,0,0,0-15.79,4.22,22.8,22.8,0,0,0-3.59,2.45l0,.06c-1.5,2.29-1.08,17.77.25,30.78Z"/><path class="cls-5" d="M127.12,174.32a.71.71,0,0,1-.33-1.33l5.53-2.94a4.33,4.33,0,0,0,2.5-4.32L132,146.24a.71.71,0,0,1,.59-.8.72.72,0,0,1,.8.6l2.81,19.49a5.7,5.7,0,0,1-3.23,5.76l-5.53,2.94A.68.68,0,0,1,127.12,174.32Z"/></g><circle class="cls-1" cx="131.21" cy="131.21" r="126.71"/></g></g></svg>