<svg xmlns="http://www.w3.org/2000/svg" xmlns:xlink="http://www.w3.org/1999/xlink" viewBox="0 0 235 273.49"><defs><style>.cls-1,.cls-11,.cls-20{fill:none;stroke-miterlimit:10;}.cls-1{stroke:aqua;stroke-width:9px;}.cls-2{fill:#fbbca6;}.cls-3{isolation:isolate;}.cls-4{clip-path:url(#clip-path);}.cls-10,.cls-5,.cls-6,.cls-7{fill:#faae9d;}.cls-6{opacity:0.4;}.cls-10,.cls-14,.cls-19,.cls-23,.cls-6,.cls-7{mix-blend-mode:multiply;}.cls-31,.cls-7{opacity:0.3;}.cls-8{fill:#fbbeb1;}.cls-9{fill:#fccec4;}.cls-10,.cls-14,.cls-15,.cls-19{opacity:0.5;}.cls-11,.cls-20{stroke:#393c39;}.cls-11{stroke-width:2px;}.cls-12,.cls-15{fill:#393c39;}.cls-13,.cls-14{fill:#727871;}.cls-16{fill:#742326;}.cls-17{fill:#e7464b;}.cls-18{fill:#fafcfb;}.cls-21{fill:#b9bfbf;}.cls-22,.cls-23{fill:#57658b;}.cls-23,.cls-29{opacity:0.1;}.cls-24{fill:#cf8416;}.cls-25{clip-path:url(#clip-path-2);}.cls-26{opacity:0.2;}.cls-27{clip-path:url(#clip-path-3);}.cls-28{clip-path:url(#clip-path-4);}.cls-30{clip-path:url(#clip-path-5);}.cls-31{fill:#fff;}.cls-32{fill:#eae250;}</style><clipPath id="clip-path"><circle class="cls-1" cx="117.5" cy="117.5" r="113"/></clipPath><clipPath id="clip-path-2"><path id="_Trazado_de_recorte_" data-name="&lt;Trazado de recorte&gt;" class="cls-2" d="M64.76,209.16c15.43-32.55,29.95-41,46.4-46.6,9.08-3.09,31.29-11.54,33.5-12s2.68-3.92.18-5.45-10.77,2.83-24.39,5c-9.88,1.54-27.4,0-41.56,4.8-10.36,3.54-30.72,28.47-40.72,42.47C42,200.08,58.75,204.93,64.76,209.16Z"/></clipPath><clipPath id="clip-path-3"><path id="_Trazado_de_recorte_2" data-name="&lt;Trazado de recorte&gt;" class="cls-2" d="M116.81,153.11c3.93-.07,16-1.59,19.09-2.8a101.5,101.5,0,0,0,12-5.87c2.78-1.72,5.25-2.62,7.52-2s.54,3.71.54,3.71-10.8,8.41-15.09,9.48-21.36,4.32-23.66,3.47S114.47,153.16,116.81,153.11Z"/></clipPath><clipPath id="clip-path-4"><path id="_Trazado_de_recorte_3" data-name="&lt;Trazado de recorte&gt;" class="cls-2" d="M119,153.71c4.57-.39,18.69-1.86,22.27-3.27a117.43,117.43,0,0,0,14-6.85c3.25-2,6.13-3.06,8.76-2.3s.64,4.32.64,4.32-12.59,9.81-17.59,11-24.91,5-27.58,4.05S107.23,154.7,119,153.71Z"/></clipPath><clipPath id="clip-path-5"><path id="_Trazado_de_recorte_4" data-name="&lt;Trazado de recorte&gt;" class="cls-2" d="M135.23,155.19c3.94-.7,8.62,1.06,10.93-.42s10.76-7.64,13.76-8.71,6.12-.52,6.92.62-12.19,11.65-16.1,14.75-4.17,2.13-9.86,3.85-13,4.15-15.63,5.45c-7.32,3.7-11.47,4.91-20.37,4.94-5.51,0-10.33-2.26-24,6.22s-4.11-25.63,17.7-27.35c3.85-.31,11.51.8,17,0C128,152.72,135.23,155.19,135.23,155.19Z"/></clipPath></defs><title>Recurso 16</title><g class="cls-3"><g id="Capa_2" data-name="Capa 2"><g id="Capa_1-2" data-name="Capa 1"><g class="cls-4"><path class="cls-5" d="M113.9,67.25a8.07,8.07,0,0,0-5.23-5s4.91-5.69,1.07-10.47c0,0-5.53-3.32-8.93.15,0,0-4.66,4.31-.86,11.94S111.75,73.87,113.9,67.25Z"/><path class="cls-6" d="M113.9,67.25a8.07,8.07,0,0,0-5.23-5s4.91-5.69,1.07-10.47c0,0-5.53-3.32-8.93.15,0,0-4.66,4.31-.86,11.94S111.75,73.87,113.9,67.25Z"/><path class="cls-5" d="M109.58,69.32a1.86,1.86,0,0,0,0-.67c-.12-.75-.73-1.92-3.29-2.32,0,0,2.81-10.32-2.2-13.69,0,0-7.81,2.72-8.72,8.92s0,8.53,3.33,11.3,8.73,3.54,8.73,3.54S114.56,72.9,109.58,69.32Z"/><path class="cls-7" d="M103,67.19a4.65,4.65,0,0,0-1.19-5.12,4.85,4.85,0,0,0-1.24-7.59,19,19,0,0,1,3.58-1.84c5,3.37,2.2,13.69,2.2,13.69,2.56.4,3.17,1.57,3.29,2.32a1.86,1.86,0,0,1,0,.67c4.4,3.16-.63,6.25-1.87,6.94a4,4,0,0,0,.62-2.83,4.2,4.2,0,0,0-2.55-3.16l-.06,0a3.35,3.35,0,0,0-1.21-.29A4.26,4.26,0,0,0,103,67.19Z"/><path class="cls-8" d="M159.15,39.31s-20-4.93-24.36-4.24-32.54,5.12-35.35,8.7S88.23,63,88.23,63s-1.46,2.39.84,5.25,11.19,11.27,12.68,12,11.24-.88,9.74-4.48c0,0-.73-4.24-6.55-2.29a3.31,3.31,0,0,0-4.24-2.33s-.78-4.63-4.37-5.35c0,0,6-6.55,4.93-9.19,0,0,8-1,8.67-4.36,0,0,5,6.82,8.64,7.33s24.32-2.46,26.32-5.36l10.6,3.5Z"/><path class="cls-9" d="M152,39.34c-1-.14-2-.27-3.06-.38-2.45-.45-4.94-.77-7.41-1.1a60.18,60.18,0,0,0-21,.68c-4,.88-7.92,2-11.83,3.09-3,.58-6,1.19-9,1.85,4-3.52,30.83-7.73,35.06-8.41s24.36,4.24,24.36,4.24l-.38,1.88A36,36,0,0,0,152,39.34Z"/><path class="cls-10" d="M99.18,54.64a11.52,11.52,0,0,0,5.11.25c2.93-.47,4.75-1.46,5.4-4.67.16.16-.18-.15,0,0,4,6.88,6.19,7.44,8.53,9.23,0,.38,0-.21,0,0-3.56-.84-8.29-7.26-8.29-7.26-.63,3.35-8.67,4.36-8.67,4.36,1.12,2.64-4.93,9.19-4.93,9.19,3.59.72,4.37,5.35,4.37,5.35a3.31,3.31,0,0,1,4.24,2.33c5.82-2,6.55,2.29,6.55,2.29.81,2-1.69,3.31-4.38,4a2,2,0,0,0,0-.24,10.57,10.57,0,0,0-3.69-6.39c-1-.75-1.16-.83-3.24-.78a7.85,7.85,0,0,0-.18-1.08,8.69,8.69,0,0,0-.51-1.54c-1.18-2.58-4.35-4-7.2-4.14C97.77,65,101.12,58,99.18,54.64Z"/><path class="cls-11" d="M109.89,106.63a7.55,7.55,0,1,0-2.39-14.9"/><path class="cls-12" d="M103.37,111.69a7.39,7.39,0,1,0,6.13-8.47A7.39,7.39,0,0,0,103.37,111.69Zm5.08-4.49a1.85,1.85,0,1,1,2.12,1.53A1.85,1.85,0,0,1,108.45,107.2Z"/><path class="cls-13" d="M113.69,133.91a1.1,1.1,0,0,0-1.25-.91l-.38-2.33a1.1,1.1,0,0,0,.91-1.25,1.08,1.08,0,0,0-1.25-.9l-.38-2.34A1.09,1.09,0,1,0,111,124l-1.64-10.17c0-.2,0-.36.22-.39l3-.49c.2,0,.59.06.63.25L117,136.39c0,.19-.21.4-.41.43-1.94.31-2.18.23-3.15-.1a.69.69,0,0,1-.45-.43l-.18-1.13A1.1,1.1,0,0,0,113.69,133.91Z"/><path class="cls-14" d="M110.91,124l-1.63-10.17c0-.2,0-.37.21-.4l1.25-.2L114.56,137a3.92,3.92,0,0,1-1.27-.29.63.63,0,0,1-.41-.43l-.19-1.14a1.14,1.14,0,0,0,.91-1.25,1.13,1.13,0,0,0-1.25-.9l-.38-2.34a1.09,1.09,0,1,0-.34-2.15l-.38-2.33a1.09,1.09,0,0,0-.34-2.16Z"/><rect class="cls-14" x="113.79" y="115.01" width="0.91" height="22.13" transform="translate(-18.53 19.69) rotate(-9.12)"/><path class="cls-13" d="M103.3,111.21a7.39,7.39,0,1,0,6.12-8.47A7.38,7.38,0,0,0,103.3,111.21Zm5.07-4.49a1.85,1.85,0,1,1,2.12,1.53A1.85,1.85,0,0,1,108.37,106.72Z"/><path class="cls-15" d="M107.61,112.48c0,.1,0,.07.25,0l6.28-1c.2,0,.37,0,.35-.13l-.1-.63c0-.1-.19-.17-.39-.14l-6.28,1c-.2,0-.23.14-.21.24Z"/><path class="cls-15" d="M107.87,114.1a.22.22,0,0,0,.28.21l6.28-1c.2,0,.34-.22.32-.32l-.1-.62c0-.1-.16,0-.36,0l-6.28,1c-.2,0-.26,0-.24,0Z"/><path class="cls-16" d="M96.69,73.16l3.08,19.16c0,.33.4.55.69.72,1.83,1.1,5.3,3.8,7.51,3.49s4.64-4,6-5.66c.22-.25.49-.57.44-.9l-3.08-19.16a.59.59,0,0,0-.69-.5l-6.74,1.08L97.2,72.47A.61.61,0,0,0,96.69,73.16Zm8.79,18.39a1.67,1.67,0,1,1,1.91,1.38A1.66,1.66,0,0,1,105.48,91.55Z"/><path class="cls-17" d="M96.74,73.46l3.08,19.16c.05.33.4.55.69.72,1.83,1.1,5.3,3.8,7.5,3.49s4.64-4,6-5.66c.22-.26.49-.57.43-.9l-3.07-19.16a.59.59,0,0,0-.69-.5L104,71.69l-6.74,1.08A.6.6,0,0,0,96.74,73.46Zm8.79,18.39a1.67,1.67,0,1,1,1.91,1.38A1.66,1.66,0,0,1,105.53,91.85Z"/><rect class="cls-18" x="100.49" y="73.69" width="10.01" height="14.86" transform="translate(-11.52 17.74) rotate(-9.12)"/><g class="cls-19"><line class="cls-20" x1="107.5" y1="74.5" x2="109.42" y2="86.47"/><line class="cls-20" x1="106" y1="74.74" x2="107.93" y2="86.71"/><line class="cls-20" x1="104.51" y1="74.98" x2="106.43" y2="86.95"/><line class="cls-20" x1="103.01" y1="75.22" x2="104.93" y2="87.19"/><line class="cls-20" x1="101.51" y1="75.46" x2="103.44" y2="87.43"/></g><path class="cls-11" d="M107.5,91.73a7.55,7.55,0,0,0,2.39,14.9"/><path class="cls-8" d="M145.7,52.58a24,24,0,0,1-20.3,15.61s-2.79.52-4,2.23-11.75,11.28-16.08,8.86,3.79-9.47,3.79-9.47,3-3.51,4.72-4.09a15.83,15.83,0,0,1,5.58-7.26C123.72,55.35,136.31,46,145.7,52.58Z"/><path class="cls-10" d="M108.4,79.19c3.93-1.17,11-6.07,14.65-12a34.49,34.49,0,0,0,4.37-.16c8.64-.89,15.44-9.85,16.88-14,2.07.62,9.82,2.89,11.39,3.57l-.2,1-10.44-3.44a24,24,0,0,1-19.65,14s-2.79.52-4,2.23-11.75,11.28-16.08,8.86C104.89,79,107,79.62,108.4,79.19Z"/><path class="cls-5" d="M108.23,78.8a14.88,14.88,0,0,0,3.44-2.29s-2.87-3.75-3.23-3.65c-.91.25-3.52,2.91-3.54,3.55s1.35,1.93,1.91,2.36A1.17,1.17,0,0,0,108.23,78.8Z"/><path class="cls-5" d="M117.36,71.29s-1.28-1.15-1.73-1.57a11.51,11.51,0,0,1-1.29-2s1.27,1.51,1.51,1.76A7.63,7.63,0,0,1,117.36,71.29Z"/><path class="cls-5" d="M118.11,70.26s-1.28-1.15-1.73-1.57a10.91,10.91,0,0,1-1.29-2s1.26,1.51,1.51,1.76A7.89,7.89,0,0,1,118.11,70.26Z"/><path class="cls-5" d="M118.85,69.23s-1.28-1.15-1.73-1.57a11.51,11.51,0,0,1-1.29-2s1.27,1.51,1.51,1.76A7.87,7.87,0,0,1,118.85,69.23Z"/><path class="cls-10" d="M109.15,69.81s3-3.51,4.72-4.09a14.86,14.86,0,0,1,4.35-6.27l-.07.22-.21.23a21.58,21.58,0,0,0-1.53,1.77,14.52,14.52,0,0,0-2,4.49,53.83,53.83,0,0,0-8.13,7.39,7.38,7.38,0,0,0-2,4.66C102.81,75.39,109.15,69.81,109.15,69.81Z"/><polygon class="cls-21" points="164.29 39.07 159.66 37.54 153.17 62.26 158.97 66.29 164.29 39.07"/><polygon class="cls-22" points="210.47 48.32 162.91 37.02 156.89 68.46 225.49 83.38 210.47 48.32"/><path class="cls-23" d="M153.17,62.26l1.56-6c1.18,1.09,35.43,16.3,51.12,22.1l0,.8-49-10.72.62-3.19Z"/><path class="cls-18" d="M159.61,64.65a2.1,2.1,0,1,0,1.74-2.4A2.1,2.1,0,0,0,159.61,64.65Z"/><path class="cls-18" d="M161.65,59.78a1.1,1.1,0,1,0,.92-1.27A1.1,1.1,0,0,0,161.65,59.78Z"/><path class="cls-24" d="M56,171.18a63.24,63.24,0,0,1,13.17,6.43C78,183.15,79,187.46,79,187.46s-10,3.91-18.25-1.12S56,171.18,56,171.18Z"/><path id="_Trazado_de_recorte_5" data-name="&lt;Trazado de recorte&gt;" class="cls-2" d="M64.76,209.16c15.43-32.55,29.95-41,46.4-46.6,9.08-3.09,31.29-11.54,33.5-12s2.68-3.92.18-5.45-10.77,2.83-24.39,5c-9.88,1.54-27.4,0-41.56,4.8-10.36,3.54-30.72,28.47-40.72,42.47C42,200.08,58.75,204.93,64.76,209.16Z"/><g class="cls-25"><path class="cls-26" d="M131.82,150.34c-2.56.76-11,2-12.41,4.65-1.56,3,3.34,3.14,5.35,3,6.83-.48,13-3.36,19.59-5,2.25-.55,6.54-1.15,7.09-4s-2.35-3.92-4.64-4C141.45,144.87,136.75,148.88,131.82,150.34Z"/></g><path id="_Trazado_de_recorte_6" data-name="&lt;Trazado de recorte&gt;" class="cls-2" d="M116.81,153.11c3.93-.07,16-1.59,19.09-2.8a101.5,101.5,0,0,0,12-5.87c2.78-1.72,5.25-2.62,7.52-2s.54,3.71.54,3.71-10.8,8.41-15.09,9.48-21.36,4.32-23.66,3.47S114.47,153.16,116.81,153.11Z"/><g class="cls-27"><path class="cls-26" d="M135.19,150.46c4.21-1.22,9.2-2,12.84-4.25s4.7-4.52,9.16-3.5c2.91.67,2.45,3.91,1.66,5.89a13.6,13.6,0,0,1-9.09,8.06c-6.93,2.05-15.13,4.37-22.42,4-3.07-.18-12.65-3.53-9.79-6C120.17,152.38,131.88,151.43,135.19,150.46Z"/></g><path id="_Trazado_de_recorte_7" data-name="&lt;Trazado de recorte&gt;" class="cls-2" d="M119,153.71c4.57-.39,18.69-1.86,22.27-3.27a117.43,117.43,0,0,0,14-6.85c3.25-2,6.13-3.06,8.76-2.3s.64,4.32.64,4.32-12.59,9.81-17.59,11-24.91,5-27.58,4.05S107.23,154.7,119,153.71Z"/><g class="cls-28"><path class="cls-29" d="M148.07,150.66c-6.09,3.16-12.94,4.64-19.47,6.88-5.79,2-10.85,2.48-7.15,7.49,1.43,1.93,6,1.06,7.94.88a82.41,82.41,0,0,0,22.8-5.39c5.11-2,15-5.22,17.41-10.72,2.1-4.79-5.23-5.53-8.6-5C156.32,145.62,152.2,148.51,148.07,150.66Z"/></g><path id="_Trazado_de_recorte_8" data-name="&lt;Trazado de recorte&gt;" class="cls-2" d="M135.23,155.19c3.94-.7,8.62,1.06,10.93-.42s10.76-7.64,13.76-8.71,6.12-.52,6.92.62-12.19,11.65-16.1,14.75-4.17,2.13-9.86,3.85-13,4.15-15.63,5.45c-7.32,3.7-11.47,4.91-20.37,4.94-5.51,0-10.33-2.26-24,6.22s-4.11-25.63,17.7-27.35c3.85-.31,11.51.8,17,0C128,152.72,135.23,155.19,135.23,155.19Z"/><g class="cls-30"><path class="cls-29" d="M93.59,165.33c6.5-5.19,11.37,4.93,19,4,8.29-1,18.12-4.16,28.37-6.09,9.76-1.84-3.26-13-9.82-11.65-8.57,1.79-29.59-1.87-37,2.54Z"/></g><path class="cls-2" d="M90.25,154.38c4.8-.87,13.27.87,16.69,1.8s4.13,1.9,10.09-.42,17.54-3.35,20.72-2.35,6.49,3.79,4.45,6.24-9.29,3-13,4.06-6.35,2.32-9.2,2.74-10.29,4.8-13.9,5.2-15,.71-20.37-4.47C77.88,159.61,79.17,156.38,90.25,154.38Z"/><path class="cls-31" d="M137.33,155.31c-2.83.51-5.25.83-5.1,2.7s-.06,3.43,1.92,3.58,7.38-.53,7.25-3.09A3.19,3.19,0,0,0,137.33,155.31Z"/><path class="cls-32" d="M56,171.18s2.08,8.16,9,12.06a34.85,34.85,0,0,0,14,4.22l-52,86V209.16Z"/></g><circle class="cls-1" cx="117.5" cy="117.5" r="113"/></g></g></g></svg>