<svg xmlns="http://www.w3.org/2000/svg" xmlns:xlink="http://www.w3.org/1999/xlink" viewBox="0 0 119.79 106.79"><defs><style>.cls-1{isolation:isolate;}.cls-2{fill:#dee1e5;}.cls-3{fill:#c9cfda;}.cls-4{fill:#f3f3f5;}.cls-5{fill:#a7b1bd;}.cls-6{fill:#232b3a;}.cls-7{fill:#5f6976;}.cls-8{fill:#808b9c;}.cls-9{fill:#668039;}.cls-10{fill:#4c6130;}.cls-11{fill:#536931;}.cls-12{fill:#3b4926;}.cls-13{fill:#1d1d16;}.cls-14{fill:#323f49;}.cls-15{fill:#767f8d;}.cls-16{fill:#4e5660;}.cls-17{fill:#aebcce;}.cls-18{fill:#0b080a;}.cls-19{fill:#987667;}.cls-20{fill:#96bc5d;}.cls-21{fill:#8db74e;}.cls-22{fill:#d4e0ec;}.cls-23{fill:#eadeda;}.cls-24{fill:#4c4c3a;}.cls-25{fill:#bfd8b9;}.cls-26{fill:#d4e3d0;}.cls-27{fill:url(#linear-gradient);}.cls-28{fill:#80a552;}.cls-29{fill:#47515e;}.cls-30{fill:#606671;}.cls-31{fill:#2c3a45;}.cls-32{fill:#9386ac;mix-blend-mode:multiply;}</style><linearGradient id="linear-gradient" x1="12.89" y1="60.58" x2="46.5" y2="60.58" gradientUnits="userSpaceOnUse"><stop offset="0" stop-color="#bcd5a8"/><stop offset="1" stop-color="#96bc5d"/></linearGradient></defs><title>Recurso 18</title><g class="cls-1"><g id="Capa_2" data-name="Capa 2"><g id="Capa_1-2" data-name="Capa 1"><g id="_Grupo_" data-name="&lt;Grupo&gt;"><polygon class="cls-2" points="119.79 15.04 55.88 51.95 29.79 36.89 93.72 0 119.79 15.04"/><polygon class="cls-3" points="119.79 15.04 119.79 44.15 108.24 50.82 55.88 81.06 55.88 51.95 119.79 15.04"/><polygon class="cls-4" points="55.88 51.95 55.88 81.06 32.52 67.58 32.51 67.58 29.79 66.02 29.79 36.89 55.88 51.95"/><polygon class="cls-5" points="48.68 85.6 48.73 85.63 48.73 88.4 48.67 88.41 27.38 76.12 27.38 73.3 27.41 73.32 48.68 85.6"/><polygon class="cls-6" points="55.88 84.22 107.11 54.63 110.97 52.41 110.97 55.23 107.11 57.45 55.88 87.03 55.88 84.22"/><polygon class="cls-6" points="55.88 84.22 55.88 87.03 48.73 88.4 48.73 85.63 48.68 85.6 55.88 84.22"/><polygon class="cls-7" points="107.11 54.63 55.88 84.22 48.68 85.6 27.41 73.32 29.79 69.16 32.51 67.58 32.52 67.58 55.88 81.06 108.24 50.82 110.97 52.41 107.11 54.63"/></g><path class="cls-8" d="M36.76,79.48l.14,6.13-.4.12.1-5.9a1.74,1.74,0,0,0-1.54-1.53l-3.12-.48v-.38l2.81.43h0l.48.07A1.75,1.75,0,0,1,36.76,79.48Z"/><polygon class="cls-9" points="48.73 85.57 48.73 88.36 48.69 88.37 48.73 88.4 46.05 89.95 46.05 84.18 48.73 82.63 48.73 85.53 48.69 85.55 48.73 85.57"/><polygon class="cls-10" points="48.73 80.22 48.73 82.63 46.05 84.18 46.05 81.77 48.73 80.22"/><polygon class="cls-10" points="48.73 80.04 48.73 80.22 46.05 81.77 46.05 65.63 48.73 64.07 48.73 80.04"/><polygon class="cls-9" points="46.5 60.58 48.73 64.07 46.05 65.63 43.8 62.13 46.5 60.58"/><path class="cls-11" d="M46.06,84.18V90l-5.55,3.19h0l-1.38-.79h0a4.45,4.45,0,0,0-4.37.44V90.7Z"/><polygon class="cls-12" points="46.05 81.77 46.05 84.18 34.75 90.7 34.75 88.29 46.05 81.77"/><path class="cls-13" d="M46.06,65.63V81.77L34.75,88.29v-2l.31,0a1.29,1.29,0,0,0,1.44-.61v0l.16-.33a1.05,1.05,0,0,0,.1-.44V79.48A1.75,1.75,0,0,0,35.23,78l-.48-.07h0V72.15Z"/><polygon class="cls-9" points="43.8 62.13 46.05 65.63 34.75 72.15 32.51 68.66 43.8 62.13"/><path class="cls-7" d="M42.56,96.49c-.24.15-.48.28-.72.42a3.87,3.87,0,0,0-.77-2,3,3,0,0,0-1.93-1,2.84,2.84,0,0,0-1.08.08,6.54,6.54,0,0,0-2.47,1.21,12.06,12.06,0,0,0-1,.86A12.46,12.46,0,0,0,31,103.15l-.61-.35a10.81,10.81,0,0,1,.61-2.24,14.64,14.64,0,0,1,3.33-5.21c1.3-1.28,3.39-2.68,5.18-2.44a3.67,3.67,0,0,1,.93.26,3.39,3.39,0,0,1,1.26,1A4.62,4.62,0,0,1,42.56,96.49Z"/><path class="cls-14" d="M38.06,93.91a2.84,2.84,0,0,1,1.08-.08,3,3,0,0,1,1.93,1,3.87,3.87,0,0,1,.77,2l-1.37-.79a3.08,3.08,0,0,0-.28-.61,2.59,2.59,0,0,0-1.41-1.11,3.89,3.89,0,0,0-3.19.72A6.54,6.54,0,0,1,38.06,93.91Z"/><path class="cls-14" d="M40.47,96.12a5.26,5.26,0,0,1,.24,1.62,10.71,10.71,0,0,1-4.33,8,4.13,4.13,0,0,1-3.28.93,2.66,2.66,0,0,1-.61-.3,3.26,3.26,0,0,1-1.2-1.47,4.2,4.2,0,0,1-.25-1.78h0A12.46,12.46,0,0,1,34.62,96a12.06,12.06,0,0,1,1-.86,3.89,3.89,0,0,1,3.19-.72,2.59,2.59,0,0,1,1.41,1.11A3.08,3.08,0,0,1,40.47,96.12Zm-.86,2.25a2.43,2.43,0,0,0-1.34-2.52,2.22,2.22,0,0,0-1.59,0,5.11,5.11,0,0,0-2.11,1.38,8.53,8.53,0,0,0-2.39,4.89,4.63,4.63,0,0,0,0,1.44,2.67,2.67,0,0,0,.27.73,2.4,2.4,0,0,0,.51.64C35.12,106.73,39.5,102.67,39.61,98.37Z"/><path class="cls-15" d="M40.51,93.14l0,0a3.67,3.67,0,0,0-.93-.26c-1.79-.24-3.88,1.16-5.18,2.44A14.64,14.64,0,0,0,31,100.56v-1l-1.3-.75a18.54,18.54,0,0,1,5-6,4.45,4.45,0,0,1,4.37-.44h0l1.38.79Z"/><path class="cls-7" d="M38.27,95.85a2.43,2.43,0,0,1,1.34,2.52c-.11,4.3-4.49,8.36-6.63,6.56h0a3,3,0,0,0,2.23-.35,6.26,6.26,0,0,0,2.44-2.4,7.91,7.91,0,0,0,1.39-4.12,3,3,0,0,0-.58-2,2.2,2.2,0,0,0-.2-.23Z"/><path class="cls-7" d="M38.47,96.09a3,3,0,0,1,.58,2,7.91,7.91,0,0,1-1.39,4.12,6.26,6.26,0,0,1-2.44,2.4,3,3,0,0,1-2.23.35h0a2.4,2.4,0,0,1-.51-.64,2.67,2.67,0,0,1-.27-.73h0c.93.88,2.36.26,3.34-.61a1.75,1.75,0,0,0,1.43-.66,3.69,3.69,0,0,0,1.07-2.38,1.32,1.32,0,0,0-.25-.86h0a4.86,4.86,0,0,0,.11-1,2.11,2.11,0,0,0-1.26-2.2,2.22,2.22,0,0,1,1.59,0h0A2.2,2.2,0,0,1,38.47,96.09Z"/><path class="cls-5" d="M37.82,99.05a1.32,1.32,0,0,1,.25.86A3.69,3.69,0,0,1,37,102.29a1.75,1.75,0,0,1-1.43.66.72.72,0,0,1-.29-.1,1.23,1.23,0,0,1-.46-1.31,3.6,3.6,0,0,1,1-2.13c.62-.63,1.24-.78,1.65-.59A.83.83,0,0,1,37.82,99.05Z"/><path class="cls-16" d="M37.52,98.81l-1.06-.6a1.32,1.32,0,0,0-1.36.25,3.71,3.71,0,0,0-1.41,2.43,1.4,1.4,0,0,0,.47,1.32l1.12.64a.72.72,0,0,0,.29.1c-1,.87-2.41,1.49-3.34.61h0a4.63,4.63,0,0,1,0-1.44,8.53,8.53,0,0,1,2.39-4.89,5.11,5.11,0,0,1,2.11-1.38,2.11,2.11,0,0,1,1.26,2.2,4.86,4.86,0,0,1-.11,1h0a.83.83,0,0,0-.3-.23Z"/><path class="cls-15" d="M37.52,98.81h0c-.41-.19-1,0-1.65.59a3.6,3.6,0,0,0-1,2.13,1.23,1.23,0,0,0,.46,1.31l-1.12-.64a1.4,1.4,0,0,1-.47-1.32,3.71,3.71,0,0,1,1.41-2.43,1.32,1.32,0,0,1,1.36-.25Z"/><path class="cls-17" d="M34.75,86.31l-2.81-.43V77.82l3.12.48a1.74,1.74,0,0,1,1.54,1.53v5.49a.83.83,0,0,1-.1.41v0a1.29,1.29,0,0,1-1.44.61Z"/><path class="cls-9" d="M34.75,90.7v2.07a18.54,18.54,0,0,0-5,6l-.38-.21L25,101.13,28,95.89Z"/><polygon class="cls-10" points="34.75 88.29 34.75 90.7 28.01 95.89 31.94 89.91 34.75 88.29"/><polygon class="cls-10" points="34.75 86.31 34.75 88.29 31.94 89.91 31.94 85.88 34.75 86.31"/><polygon class="cls-10" points="34.75 72.15 34.75 77.87 31.94 77.44 31.94 73.78 34.75 72.15"/><polygon class="cls-9" points="32.51 68.66 34.75 72.15 31.94 73.78 29.68 70.29 32.51 68.66"/><path class="cls-18" d="M32.49,106.4l.3.18c-1.15-.67-2.64-1.48-3.79-2.13a3,3,0,0,1-1.3-2l.38-.21c.75.43,1.48.86,2.24,1.28.24-.13.48-.26.71-.41h0a4.2,4.2,0,0,0,.25,1.78A3.26,3.26,0,0,0,32.49,106.4Z"/><polygon class="cls-19" points="31.94 85.88 31.94 89.91 25.21 91.21 26.32 74.43 31.94 73.78 31.94 77.44 31.94 77.82 31.94 85.88"/><polygon class="cls-13" points="26.95 75.03 31.27 74.54 31.27 89.36 25.94 90.39 26.95 75.03"/><polygon class="cls-20" points="29.68 70.29 31.94 73.78 26.32 74.43 28.02 69.32 29.68 70.29"/><polygon class="cls-21" points="31.94 89.91 28.01 95.89 18.5 95.57 25.21 91.21 31.94 89.91"/><polygon class="cls-8" points="31.02 99.57 31.02 100.56 28.08 102.28 27.7 102.49 24.66 104.25 24.66 103.26 31.02 99.57"/><polygon class="cls-22" points="31.02 99.57 24.66 103.26 17.16 101.53 3 93.36 0 89.02 3.5 86.99 2.96 89.58 5.04 92.58 7.27 93.88 16.21 99.04 18.5 100.36 24.09 101.64 24.96 101.14 24.96 101.13 29.35 98.61 29.73 98.82 31.02 99.57"/><path class="cls-15" d="M28.08,102.28l3-1.72a10.81,10.81,0,0,0-.61,2.24,6.89,6.89,0,0,0-.1.76C29.56,103.14,28.83,102.71,28.08,102.28Z"/><path class="cls-7" d="M31,103.15c-.23.15-.47.28-.71.41a6.89,6.89,0,0,1,.1-.76Z"/><polygon class="cls-20" points="28.02 69.32 26.32 74.43 22.37 72.15 25.73 68 28.02 69.32"/><path class="cls-20" d="M28,95.89,25,101.13h0l-.87.5-5.59-1.28V95.57Zm-5.68,4.77c1.76-.24,2.71-2.16,1.26-3.18-1.65-1.14-4.9-.21-4.13,1.65A2.81,2.81,0,0,0,22.33,100.66Z"/><polygon class="cls-23" points="26.32 74.43 25.21 91.21 21.26 88.94 12.31 83.77 8.41 81.52 8.57 79.2 9.35 67.48 9.54 64.73 13.44 66.98 22.37 72.15 26.32 74.43"/><polygon class="cls-24" points="9.11 81.14 9.24 79.24 10.13 65.85 22.04 72.73 25.63 74.8 24.61 90.1 9.11 81.14"/><polygon class="cls-20" points="25.73 68 22.37 72.15 13.44 66.98 16.8 62.84 25.73 68"/><polygon class="cls-21" points="25.21 91.21 18.5 95.57 16.21 94.25 21.26 88.94 25.21 91.21"/><polygon class="cls-17" points="24.66 103.26 24.66 104.25 17.16 102.52 17.16 101.53 24.66 103.26"/><path class="cls-4" d="M23.59,97.48c1.45,1,.5,2.94-1.26,3.18a2.81,2.81,0,0,1-2.87-1.53C18.69,97.27,21.94,96.34,23.59,97.48Z"/><polygon class="cls-25" points="21.26 88.94 16.21 94.25 7.27 89.1 12.31 83.77 21.26 88.94"/><polygon class="cls-20" points="18.5 95.57 18.5 100.36 16.21 99.04 16.21 94.25 18.5 95.57"/><polygon class="cls-17" points="17.16 101.53 17.16 102.52 3 94.35 3 93.36 17.16 101.53"/><polygon class="cls-20" points="16.8 62.84 13.44 66.98 9.54 64.73 14.56 61.55 16.8 62.84"/><polygon class="cls-26" points="16.21 94.25 16.21 99.04 7.27 93.88 7.27 89.1 16.21 94.25"/><polygon class="cls-27" points="29.68 50.88 12.89 60.58 29.68 70.29 46.5 60.58 29.68 50.88"/><polygon class="cls-28" points="27.45 51.79 24.76 53.34 17.62 57.47 10.64 61.49 12.89 60.58 14.56 59.61 17.95 57.66 27.01 52.43 29.68 50.88 27.45 51.79"/><polygon class="cls-20" points="10.01 63.34 10.64 61.49 12.89 60.58 14.56 61.55 9.54 64.73 9.83 63.86 10.01 63.34"/><polygon class="cls-21" points="12.31 83.77 7.27 89.1 5.04 87.8 8.41 81.52 12.31 83.77"/><path class="cls-17" d="M9.83,63.86l-.29.87-.19,2.75V64.1c0-.4.07-.66.17-.68h0C9.62,63.42,9.73,63.55,9.83,63.86Z"/><polygon class="cls-21" points="8.57 79.2 8.41 81.52 5.04 87.8 4.47 82.31 8.57 79.2"/><polygon class="cls-20" points="7.27 89.1 7.27 93.88 5.04 92.58 5.04 87.8 7.27 89.1"/><path class="cls-20" d="M5,87.8v4.78L3,89.58,3.5,87l1-4.69Zm-.16,2.4a16.25,16.25,0,0,0-.33-3.66c-.33-.67-1.11,1.94-.56,3.7.08.24.27.68.51.79S4.86,90.54,4.88,90.2Z"/><path class="cls-4" d="M4.55,86.54a16.25,16.25,0,0,1,.33,3.66c0,.34-.07,1-.38.83s-.43-.55-.51-.79C3.44,88.48,4.22,85.87,4.55,86.54Z"/><polygon class="cls-17" points="3 93.36 3 94.35 0 90.01 0 89.02 3 93.36"/><path class="cls-8" d="M99.58,66.85a5.6,5.6,0,0,0,4.38-3,7.93,7.93,0,0,0,1.39-4.11,2.89,2.89,0,0,0-.78-2.19,2.42,2.42,0,0,1,1.34,2.51C105.79,64.19,101.8,68.09,99.58,66.85Z"/><path class="cls-29" d="M98.52,65.29c.9.85,2.26.3,3.23-.51a1.66,1.66,0,0,0,1.51-.64,3.57,3.57,0,0,0,1.07-2.39,1.24,1.24,0,0,0-.24-.84,4.4,4.4,0,0,0,.14-1.14c0-1.28-.55-2-1.28-2.19a2.25,2.25,0,0,1,1.62,0,2.89,2.89,0,0,1,.78,2.19A7.93,7.93,0,0,1,104,63.88a5.6,5.6,0,0,1-4.38,3,2.19,2.19,0,0,1-.81-.84,2.22,2.22,0,0,1-.26-.72Z"/><path class="cls-8" d="M100,62.73a3.76,3.76,0,0,1,1.41-2.42,1.38,1.38,0,0,1,1.38-.26l1,.61h0c-.41-.19-1,0-1.64.59a3.73,3.73,0,0,0-1.06,2.14,1.21,1.21,0,0,0,.47,1.3l-1.13-.64A1.4,1.4,0,0,1,100,62.73Z"/><path class="cls-30" d="M98.48,63.84a8.36,8.36,0,0,1,2.4-4.89A5.4,5.4,0,0,1,103,57.58c.73.2,1.28.91,1.28,2.19a4.4,4.4,0,0,1-.14,1.14.73.73,0,0,0-.31-.24h0l-1-.61a1.38,1.38,0,0,0-1.38.26A3.76,3.76,0,0,0,100,62.73a1.4,1.4,0,0,0,.47,1.33l1.13.64a.5.5,0,0,0,.2.08c-1,.81-2.33,1.36-3.23.51h0A4.69,4.69,0,0,1,98.48,63.84Z"/><path class="cls-17" d="M101.08,63.4a3.73,3.73,0,0,1,1.06-2.14c.61-.63,1.23-.78,1.64-.59a.73.73,0,0,1,.31.24,1.24,1.24,0,0,1,.24.84,3.57,3.57,0,0,1-1.07,2.39,1.66,1.66,0,0,1-1.51.64.5.5,0,0,1-.2-.08A1.21,1.21,0,0,1,101.08,63.4Z"/><path class="cls-31" d="M101.19,68.28a2.93,2.93,0,0,1-2.5-.16h0c-1.12-.66-2.26-1.31-3.4-2a2.48,2.48,0,0,0,.47.22l.72.41.89-.56c-.18-3.91,2.57-8.08,5.41-9.86h0A2.76,2.76,0,0,1,107,58.91a5.07,5.07,0,0,1,0,.55C107,63.34,103.82,67.43,101.19,68.28ZM98.77,66a2.19,2.19,0,0,0,.81.84c2.22,1.24,6.21-2.66,6.33-6.76a2.42,2.42,0,0,0-1.34-2.51,2.25,2.25,0,0,0-1.62,0A5.4,5.4,0,0,0,100.88,59a8.36,8.36,0,0,0-2.4,4.89,4.69,4.69,0,0,0,0,1.45A2.22,2.22,0,0,0,98.77,66Z"/><path class="cls-6" d="M102.81,56.36a4.25,4.25,0,0,1,3.45-.75,3.2,3.2,0,0,1,1.86,1.7,5.15,5.15,0,0,1,.39,2.49L107,58.91h0a2.76,2.76,0,0,0-4.16-2.55Z"/><path class="cls-14" d="M96.48,66.79c-.21-4.87,3.69-10.53,7.41-12a4.4,4.4,0,0,1,2.91-.3,3.24,3.24,0,0,1,.33.13,3.89,3.89,0,0,1,1.81,1.84,5.9,5.9,0,0,1,.46,2.81v.08l-.89.46a5.15,5.15,0,0,0-.39-2.49,3.2,3.2,0,0,0-1.86-1.7,4.25,4.25,0,0,0-3.45.75h0c-2.84,1.78-5.59,6-5.41,9.86Z"/><path class="cls-7" d="M98.79,52.74A5.59,5.59,0,0,1,102.4,52a2.32,2.32,0,0,1,.88.31c.8.45,1.59.92,2.38,1.38l1.49.87,0,0a3.24,3.24,0,0,0-.33-.13,4.4,4.4,0,0,0-2.91.3c-3.72,1.48-7.62,7.14-7.41,12l-.72-.41-3.5-2a10.63,10.63,0,0,1,.7-4.08A17.57,17.57,0,0,1,94.54,57c.15-.24.31-.5.47-.72A10.32,10.32,0,0,1,98.79,52.74Z"/><path class="cls-32" d="M20.18,95.33l0,.12,7.83.33,1.64-2.5c-.18,0-.29,0-.39,0-.63,0-1.26.1-1.89.17s-1.19.15-1.79.22a11.54,11.54,0,0,1-1.65.17,2.88,2.88,0,0,0-1.39.26C21.79,94.52,21,94.92,20.18,95.33Zm16-16.82c.06-.16.05-.23-.14-.36A2.56,2.56,0,0,0,33.87,78Z"/></g></g></g></svg>